0
SECTION
2
HEADER
0
ENDSEC
0
SECTION
2
TABLES
0
TABLE
2
LAYER
70
15
0
LAYER
2
WRECKS
70
0
62
1
6
CONTINUOUS
0
LAYER
2
DEBRIS
70
0
62
30
6
CONTINUOUS
0
LAYER
2
UNDEFINED_CONSTRUCTION
70
0
62
5
6
CONTINUOUS
0
LAYER
2
UNDEFINED_OBJECTS
70
0
62
6
6
CONTINUOUS
0
LAYER
2
JETTY_QUAY
70
0
62
2
6
CONTINUOUS
0
LAYER
2
STEEL_PILLARS
70
0
62
4
6
CONTINUOUS
0
LAYER
2
VESSEL_SIGNATURES
70
0
62
3
6
CONTINUOUS
0
LAYER
2
NAVIGATION_BUOY
70
0
62
150
6
CONTINUOUS
0
LAYER
2
SSS_TARGETS
70
0
62
160
6
CONTINUOUS
0
LAYER
2
LINEAR_DEBRIS
70
0
62
140
6
CONTINUOUS
0
LAYER
2
OUTCROPPING
70
0
62
200
6
CONTINUOUS
0
LAYER
2
UNDEFINED_OBJECTS_DETAIL
70
0
62
210
6
CONTINUOUS
0
ENDTAB
0
ENDSEC
0
SECTION
2
ENTITIES
0
POINT
8
DEBRIS
10
536276.813
20
710940.325
30
0.0
0
TEXT
8
DEBRIS
10
536276.813
20
710953.325
30
0.0
40
3.0
1
MAG_001
50
0.0
0
TEXT
8
DEBRIS
10
536276.813
20
710945.325
30
0.0
40
2.0
1
M:E B:3 A:182nT
50
0.0
0
POINT
8
DEBRIS
10
536284.713
20
710926.825
30
0.0
0
TEXT
8
DEBRIS
10
536290.713
20
710931.825
30
0.0
40
3.0
1
MAG_002
50
0.0
0
TEXT
8
DEBRIS
10
536290.713
20
710923.825
30
0.0
40
2.0
1
M:AA B:1 A:214nT
50
0.0
0
POINT
8
DEBRIS
10
536296.813
20
710774.225
30
0.0
0
TEXT
8
DEBRIS
10
536290.813
20
710779.225
30
0.0
40
3.0
1
MAG_003
50
0.0
0
TEXT
8
DEBRIS
10
536290.813
20
710771.225
30
0.0
40
2.0
1
M:G B:5 A:506nT
50
0.0
0
POINT
8
UNDEFINED_CONSTRUCTION
10
536298.663
20
710844.175
30
0.0
0
TEXT
8
UNDEFINED_CONSTRUCTION
10
536298.663
20
710841.175
30
0.0
40
3.0
1
MAG_004
50
0.0
0
TEXT
8
UNDEFINED_CONSTRUCTION
10
536298.663
20
710833.175
30
0.0
40
2.0
1
M:E B:1 A:1448nT
50
0.0
0
POINT
8
DEBRIS
10
536302.913
20
710797.925
30
0.0
0
TEXT
8
DEBRIS
10
536302.913
20
710810.925
30
0.0
40
3.0
1
MAG_005
50
0.0
0
TEXT
8
DEBRIS
10
536302.913
20
710802.925
30
0.0
40
2.0
1
M:I B:6 A:988nT
50
0.0
0
POINT
8
DEBRIS
10
536306.313
20
710728.525
30
0.0
0
TEXT
8
DEBRIS
10
536312.313
20
710733.525
30
0.0
40
3.0
1
MAG_006
50
0.0
0
TEXT
8
DEBRIS
10
536312.313
20
710725.525
30
0.0
40
2.0
1
M:I B:6 A:2392nT
50
0.0
0
POINT
8
UNDEFINED_CONSTRUCTION
10
536310.5
20
710834.1
30
0.0
0
TEXT
8
UNDEFINED_CONSTRUCTION
10
536304.5
20
710839.1
30
0.0
40
3.0
1
MAG_007
50
0.0
0
TEXT
8
UNDEFINED_CONSTRUCTION
10
536304.5
20
710831.1
30
0.0
40
2.0
1
M:I B:6 A:5114nT
50
0.0
0
POINT
8
UNDEFINED_CONSTRUCTION
10
536317.334
20
710851.816
30
0.0
0
TEXT
8
UNDEFINED_CONSTRUCTION
10
536317.334
20
710848.816
30
0.0
40
3.0
1
MAG_008
50
0.0
0
TEXT
8
UNDEFINED_CONSTRUCTION
10
536317.334
20
710840.816
30
0.0
40
2.0
1
M:G B:1 A:2581nT
50
0.0
0
POINT
8
UNDEFINED_CONSTRUCTION
10
536317.113
20
710871.425
30
0.0
0
TEXT
8
UNDEFINED_CONSTRUCTION
10
536317.113
20
710884.425
30
0.0
40
3.0
1
MAG_009
50
0.0
0
TEXT
8
UNDEFINED_CONSTRUCTION
10
536317.113
20
710876.425
30
0.0
40
2.0
1
M:I B:6 A:3089nT
50
0.0
0
POINT
8
UNDEFINED_CONSTRUCTION
10
536318.656
20
710853.758
30
0.0
0
TEXT
8
UNDEFINED_CONSTRUCTION
10
536324.656
20
710858.758
30
0.0
40
3.0
1
MAG_010
50
0.0
0
TEXT
8
UNDEFINED_CONSTRUCTION
10
536324.656
20
710850.758
30
0.0
40
2.0
1
M:I B:5 A:2581nT
50
0.0
0
POINT
8
UNDEFINED_OBJECTS
10
536321.213
20
710963.025
30
0.0
0
TEXT
8
UNDEFINED_OBJECTS
10
536315.213
20
710968.025
30
0.0
40
3.0
1
MAG_011
50
0.0
0
TEXT
8
UNDEFINED_OBJECTS
10
536315.213
20
710960.025
30
0.0
40
2.0
1
M:I B:1 A:1832nT
50
0.0
0
POINT
8
DEBRIS
10
536323.635
20
710789.479
30
0.0
0
TEXT
8
DEBRIS
10
536323.635
20
710786.479
30
0.0
40
3.0
1
MAG_012
50
0.0
0
TEXT
8
DEBRIS
10
536323.635
20
710778.479
30
0.0
40
2.0
1
M:G B:4 A:1440nT
50
0.0
0
POINT
8
UNDEFINED_OBJECTS
10
536328.8
20
710970.1
30
0.0
0
TEXT
8
UNDEFINED_OBJECTS
10
536328.8
20
710983.1
30
0.0
40
3.0
1
MAG_013
50
0.0
0
TEXT
8
UNDEFINED_OBJECTS
10
536328.8
20
710975.1
30
0.0
40
2.0
1
M:I B:1 A:3234nT
50
0.0
0
POINT
8
DEBRIS
10
536327.513
20
710785.625
30
0.0
0
TEXT
8
DEBRIS
10
536333.513
20
710790.625
30
0.0
40
3.0
1
MAG_014
50
0.0
0
TEXT
8
DEBRIS
10
536333.513
20
710782.625
30
0.0
40
2.0
1
M:F B:3 A:1569nT
50
0.0
0
POINT
8
UNDEFINED_CONSTRUCTION
10
536330.313
20
710887.658
30
0.0
0
TEXT
8
UNDEFINED_CONSTRUCTION
10
536324.313
20
710892.658
30
0.0
40
3.0
1
MAG_015
50
0.0
0
TEXT
8
UNDEFINED_CONSTRUCTION
10
536324.313
20
710884.658
30
0.0
40
2.0
1
M:H B:4 A:1221nT
50
0.0
0
POINT
8
UNDEFINED_OBJECTS
10
536331.413
20
710975.525
30
0.0
0
TEXT
8
UNDEFINED_OBJECTS
10
536331.413
20
710972.525
30
0.0
40
3.0
1
MAG_016
50
0.0
0
TEXT
8
UNDEFINED_OBJECTS
10
536331.413
20
710964.525
30
0.0
40
2.0
1
M:I B:5 A:2394nT
50
0.0
0
POINT
8
UNDEFINED_CONSTRUCTION
10
536332.413
20
710900.525
30
0.0
0
TEXT
8
UNDEFINED_CONSTRUCTION
10
536332.413
20
710913.525
30
0.0
40
3.0
1
MAG_017
50
0.0
0
TEXT
8
UNDEFINED_CONSTRUCTION
10
536332.413
20
710905.525
30
0.0
40
2.0
1
M:H B:2 A:2980nT
50
0.0
0
POINT
8
DEBRIS
10
536333.6
20
710694.9
30
0.0
0
TEXT
8
DEBRIS
10
536339.6
20
710699.9
30
0.0
40
3.0
1
MAG_018
50
0.0
0
TEXT
8
DEBRIS
10
536339.6
20
710691.9
30
0.0
40
2.0
1
M:A B:1 A:309nT
50
0.0
0
POINT
8
WRECKS
10
536337.213
20
710754.125
30
0.0
0
TEXT
8
WRECKS
10
536331.213
20
710759.125
30
0.0
40
3.0
1
MAG_019
50
0.0
0
TEXT
8
WRECKS
10
536331.213
20
710751.125
30
0.0
40
2.0
1
M:G B:4 A:1764nT
50
0.0
0
POINT
8
DEBRIS
10
536340.083
20
710728.867
30
0.0
0
TEXT
8
DEBRIS
10
536340.083
20
710725.867
30
0.0
40
3.0
1
MAG_020
50
0.0
0
TEXT
8
DEBRIS
10
536340.083
20
710717.867
30
0.0
40
2.0
1
M:D B:3 A:905nT
50
0.0
0
POINT
8
UNDEFINED_CONSTRUCTION
10
536341.013
20
710914.125
30
0.0
0
TEXT
8
UNDEFINED_CONSTRUCTION
10
536341.013
20
710927.125
30
0.0
40
3.0
1
MAG_021
50
0.0
0
TEXT
8
UNDEFINED_CONSTRUCTION
10
536341.013
20
710919.125
30
0.0
40
2.0
1
M:I B:5 A:3104nT
50
0.0
0
POINT
8
DEBRIS
10
536342.513
20
710771.325
30
0.0
0
TEXT
8
DEBRIS
10
536348.513
20
710776.325
30
0.0
40
3.0
1
MAG_022
50
0.0
0
TEXT
8
DEBRIS
10
536348.513
20
710768.325
30
0.0
40
2.0
1
M:B B:1 A:1755nT
50
0.0
0
POINT
8
DEBRIS
10
536345.213
20
710714.525
30
0.0
0
TEXT
8
DEBRIS
10
536339.213
20
710719.525
30
0.0
40
3.0
1
MAG_023
50
0.0
0
TEXT
8
DEBRIS
10
536339.213
20
710711.525
30
0.0
40
2.0
1
M:I B:6 A:1383nT
50
0.0
0
POINT
8
UNDEFINED_CONSTRUCTION
10
536343.713
20
710669.025
30
0.0
0
TEXT
8
UNDEFINED_CONSTRUCTION
10
536343.713
20
710666.025
30
0.0
40
3.0
1
MAG_024
50
0.0
0
TEXT
8
UNDEFINED_CONSTRUCTION
10
536343.713
20
710658.025
30
0.0
40
2.0
1
M:I B:6 A:8136nT
50
0.0
0
POINT
8
UNDEFINED_CONSTRUCTION
10
536345.513
20
710878.525
30
0.0
0
TEXT
8
UNDEFINED_CONSTRUCTION
10
536345.513
20
710891.525
30
0.0
40
3.0
1
MAG_025
50
0.0
0
TEXT
8
UNDEFINED_CONSTRUCTION
10
536345.513
20
710883.525
30
0.0
40
2.0
1
M:G B:5 A:708nT
50
0.0
0
POINT
8
WRECKS
10
536348.413
20
710813.225
30
0.0
0
TEXT
8
WRECKS
10
536354.413
20
710818.225
30
0.0
40
3.0
1
MAG_026
50
0.0
0
TEXT
8
WRECKS
10
536354.413
20
710810.225
30
0.0
40
2.0
1
M:F B:1 A:5711nT
50
0.0
0
POINT
8
UNDEFINED_CONSTRUCTION
10
536352.313
20
710896.025
30
0.0
0
TEXT
8
UNDEFINED_CONSTRUCTION
10
536346.313
20
710901.025
30
0.0
40
3.0
1
MAG_027
50
0.0
0
TEXT
8
UNDEFINED_CONSTRUCTION
10
536346.313
20
710893.025
30
0.0
40
2.0
1
M:G B:3 A:756nT
50
0.0
0
POINT
8
NAVIGATION_BUOY
10
536353.013
20
710983.625
30
0.0
0
TEXT
8
NAVIGATION_BUOY
10
536353.013
20
710980.625
30
0.0
40
3.0
1
MAG_028
50
0.0
0
TEXT
8
NAVIGATION_BUOY
10
536353.013
20
710972.625
30
0.0
40
2.0
1
M:F B:1 A:519nT
50
0.0
0
POINT
8
WRECKS
10
536355.113
20
710836.525
30
0.0
0
TEXT
8
WRECKS
10
536355.113
20
710849.525
30
0.0
40
3.0
1
MAG_029
50
0.0
0
TEXT
8
WRECKS
10
536355.113
20
710841.525
30
0.0
40
2.0
1
M:I B:5 A:1672nT
50
0.0
0
POINT
8
DEBRIS
10
536359.413
20
710731.125
30
0.0
0
TEXT
8
DEBRIS
10
536365.413
20
710736.125
30
0.0
40
3.0
1
MAG_030
50
0.0
0
TEXT
8
DEBRIS
10
536365.413
20
710728.125
30
0.0
40
2.0
1
M:F B:3 A:1409nT
50
0.0
0
POINT
8
WRECKS
10
536362.983
20
710782.276
30
0.0
0
TEXT
8
WRECKS
10
536356.983
20
710787.276
30
0.0
40
3.0
1
MAG_031
50
0.0
0
TEXT
8
WRECKS
10
536356.983
20
710779.276
30
0.0
40
2.0
1
M:I B:1 A:11853nT
50
0.0
0
POINT
8
WRECKS
10
536364.2
20
710787.1
30
0.0
0
TEXT
8
WRECKS
10
536364.2
20
710784.1
30
0.0
40
3.0
1
MAG_032
50
0.0
0
TEXT
8
WRECKS
10
536364.2
20
710776.1
30
0.0
40
2.0
1
M:I B:6 A:11853nT
50
0.0
0
POINT
8
WRECKS
10
536363.5
20
710760.1
30
0.0
0
TEXT
8
WRECKS
10
536363.5
20
710773.1
30
0.0
40
3.0
1
MAG_033
50
0.0
0
TEXT
8
WRECKS
10
536363.5
20
710765.1
30
0.0
40
2.0
1
M:I B:5 A:7894nT
50
0.0
0
POINT
8
DEBRIS
10
536370.513
20
710561.825
30
0.0
0
TEXT
8
DEBRIS
10
536376.513
20
710566.825
30
0.0
40
3.0
1
MAG_034
50
0.0
0
TEXT
8
DEBRIS
10
536376.513
20
710558.825
30
0.0
40
2.0
1
M:H B:6 A:979nT
50
0.0
0
POINT
8
DEBRIS
10
536379.213
20
710666.125
30
0.0
0
TEXT
8
DEBRIS
10
536373.213
20
710671.125
30
0.0
40
3.0
1
MAG_035
50
0.0
0
TEXT
8
DEBRIS
10
536373.213
20
710663.125
30
0.0
40
2.0
1
M:B B:1 A:4524nT
50
0.0
0
POINT
8
DEBRIS
10
536380.7
20
710552.3
30
0.0
0
TEXT
8
DEBRIS
10
536380.7
20
710549.3
30
0.0
40
3.0
1
MAG_036
50
0.0
0
TEXT
8
DEBRIS
10
536380.7
20
710541.3
30
0.0
40
2.0
1
M:H B:5 A:869nT
50
0.0
0
POINT
8
DEBRIS
10
536380.913
20
710980.525
30
0.0
0
TEXT
8
DEBRIS
10
536380.913
20
710993.525
30
0.0
40
3.0
1
MAG_037
50
0.0
0
TEXT
8
DEBRIS
10
536380.913
20
710985.525
30
0.0
40
2.0
1
M:E B:6 A:19nT
50
0.0
0
POINT
8
UNDEFINED_CONSTRUCTION
10
536386.413
20
710688.525
30
0.0
0
TEXT
8
UNDEFINED_CONSTRUCTION
10
536392.413
20
710693.525
30
0.0
40
3.0
1
MAG_038
50
0.0
0
TEXT
8
UNDEFINED_CONSTRUCTION
10
536392.413
20
710685.525
30
0.0
40
2.0
1
M:H B:6 A:699nT
50
0.0
0
POINT
8
DEBRIS
10
536389.713
20
710514.725
30
0.0
0
TEXT
8
DEBRIS
10
536383.713
20
710519.725
30
0.0
40
3.0
1
MAG_039
50
0.0
0
TEXT
8
DEBRIS
10
536383.713
20
710511.725
30
0.0
40
2.0
1
M:B B:1 A:362nT
50
0.0
0
POINT
8
UNDEFINED_CONSTRUCTION
10
536392.013
20
710660.525
30
0.0
0
TEXT
8
UNDEFINED_CONSTRUCTION
10
536392.013
20
710657.525
30
0.0
40
3.0
1
MAG_040
50
0.0
0
TEXT
8
UNDEFINED_CONSTRUCTION
10
536392.013
20
710649.525
30
0.0
40
2.0
1
M:I B:6 A:1309nT
50
0.0
0
POINT
8
DEBRIS
10
536396.213
20
710497.725
30
0.0
0
TEXT
8
DEBRIS
10
536396.213
20
710510.725
30
0.0
40
3.0
1
MAG_041
50
0.0
0
TEXT
8
DEBRIS
10
536396.213
20
710502.725
30
0.0
40
2.0
1
M:AAA B:1 A:50nT
50
0.0
0
POINT
8
UNDEFINED_CONSTRUCTION
10
536400.013
20
710622.325
30
0.0
0
TEXT
8
UNDEFINED_CONSTRUCTION
10
536406.013
20
710627.325
30
0.0
40
3.0
1
MAG_042
50
0.0
0
TEXT
8
UNDEFINED_CONSTRUCTION
10
536406.013
20
710619.325
30
0.0
40
2.0
1
M:I B:6 A:3827nT
50
0.0
0
POINT
8
UNDEFINED_CONSTRUCTION
10
536402.813
20
710641.325
30
0.0
0
TEXT
8
UNDEFINED_CONSTRUCTION
10
536396.813
20
710646.325
30
0.0
40
3.0
1
MAG_043
50
0.0
0
TEXT
8
UNDEFINED_CONSTRUCTION
10
536396.813
20
710638.325
30
0.0
40
2.0
1
M:I B:6 A:2226nT
50
0.0
0
POINT
8
UNDEFINED_CONSTRUCTION
10
536404.81
20
710621.19
30
0.0
0
TEXT
8
UNDEFINED_CONSTRUCTION
10
536404.81
20
710618.19
30
0.0
40
3.0
1
MAG_044
50
0.0
0
TEXT
8
UNDEFINED_CONSTRUCTION
10
536404.81
20
710610.19
30
0.0
40
2.0
1
M:I B:6 A:3941nT
50
0.0
0
POINT
8
DEBRIS
10
536405.313
20
710576.725
30
0.0
0
TEXT
8
DEBRIS
10
536405.313
20
710589.725
30
0.0
40
3.0
1
MAG_045
50
0.0
0
TEXT
8
DEBRIS
10
536405.313
20
710581.725
30
0.0
40
2.0
1
M:F B:2 A:2014nT
50
0.0
0
POINT
8
UNDEFINED_CONSTRUCTION
10
536408.738
20
710609.683
30
0.0
0
TEXT
8
UNDEFINED_CONSTRUCTION
10
536414.738
20
710614.683
30
0.0
40
3.0
1
MAG_046
50
0.0
0
TEXT
8
UNDEFINED_CONSTRUCTION
10
536414.738
20
710606.683
30
0.0
40
2.0
1
M:G B:3 A:3621nT
50
0.0
0
POINT
8
UNDEFINED_CONSTRUCTION
10
536410.713
20
710670.325
30
0.0
0
TEXT
8
UNDEFINED_CONSTRUCTION
10
536404.713
20
710675.325
30
0.0
40
3.0
1
MAG_047
50
0.0
0
TEXT
8
UNDEFINED_CONSTRUCTION
10
536404.713
20
710667.325
30
0.0
40
2.0
1
M:E B:2 A:658nT
50
0.0
0
POINT
8
DEBRIS
10
536417.313
20
710470.225
30
0.0
0
TEXT
8
DEBRIS
10
536417.313
20
710467.225
30
0.0
40
3.0
1
MAG_048
50
0.0
0
TEXT
8
DEBRIS
10
536417.313
20
710459.225
30
0.0
40
2.0
1
M:C B:1 A:923nT
50
0.0
0
POINT
8
DEBRIS
10
536420.013
20
710490.425
30
0.0
0
TEXT
8
DEBRIS
10
536420.013
20
710503.425
30
0.0
40
3.0
1
MAG_049
50
0.0
0
TEXT
8
DEBRIS
10
536420.013
20
710495.425
30
0.0
40
2.0
1
M:C B:1 A:781nT
50
0.0
0
POINT
8
DEBRIS
10
536424.913
20
710740.725
30
0.0
0
TEXT
8
DEBRIS
10
536430.913
20
710745.725
30
0.0
40
3.0
1
MAG_050
50
0.0
0
TEXT
8
DEBRIS
10
536430.913
20
710737.725
30
0.0
40
2.0
1
M:E B:1 A:347nT
50
0.0
0
POINT
8
DEBRIS
10
536427.713
20
710556.125
30
0.0
0
TEXT
8
DEBRIS
10
536421.713
20
710561.125
30
0.0
40
3.0
1
MAG_051
50
0.0
0
TEXT
8
DEBRIS
10
536421.713
20
710553.125
30
0.0
40
2.0
1
M:C B:1 A:1896nT
50
0.0
0
POINT
8
DEBRIS
10
536434.913
20
710783.825
30
0.0
0
TEXT
8
DEBRIS
10
536434.913
20
710780.825
30
0.0
40
3.0
1
MAG_052
50
0.0
0
TEXT
8
DEBRIS
10
536434.913
20
710772.825
30
0.0
40
2.0
1
M:D B:1 A:81nT
50
0.0
0
POINT
8
DEBRIS
10
536437.613
20
710652.825
30
0.0
0
TEXT
8
DEBRIS
10
536437.613
20
710665.825
30
0.0
40
3.0
1
MAG_053
50
0.0
0
TEXT
8
DEBRIS
10
536437.613
20
710657.825
30
0.0
40
2.0
1
M:E B:4 A:133nT
50
0.0
0
POINT
8
UNDEFINED_CONSTRUCTION
10
536446.313
20
710588.825
30
0.0
0
TEXT
8
UNDEFINED_CONSTRUCTION
10
536452.313
20
710593.825
30
0.0
40
3.0
1
MAG_054
50
0.0
0
TEXT
8
UNDEFINED_CONSTRUCTION
10
536452.313
20
710585.825
30
0.0
40
2.0
1
M:E B:2 A:698nT
50
0.0
0
POINT
8
UNDEFINED_CONSTRUCTION
10
536454.813
20
710555.125
30
0.0
0
TEXT
8
UNDEFINED_CONSTRUCTION
10
536448.813
20
710560.125
30
0.0
40
3.0
1
MAG_055
50
0.0
0
TEXT
8
UNDEFINED_CONSTRUCTION
10
536448.813
20
710552.125
30
0.0
40
2.0
1
M:D B:1 A:2079nT
50
0.0
0
POINT
8
DEBRIS
10
536452.38
20
710494.008
30
0.0
0
TEXT
8
DEBRIS
10
536452.38
20
710491.008
30
0.0
40
3.0
1
MAG_056
50
0.0
0
TEXT
8
DEBRIS
10
536452.38
20
710483.008
30
0.0
40
2.0
1
M:D B:3 A:287nT
50
0.0
0
POINT
8
DEBRIS
10
536454.897
20
710738.11
30
0.0
0
TEXT
8
DEBRIS
10
536454.897
20
710751.11
30
0.0
40
3.0
1
MAG_057
50
0.0
0
TEXT
8
DEBRIS
10
536454.897
20
710743.11
30
0.0
40
2.0
1
M:B B:1 A:36nT
50
0.0
0
POINT
8
DEBRIS
10
536453.613
20
710440.625
30
0.0
0
TEXT
8
DEBRIS
10
536459.613
20
710445.625
30
0.0
40
3.0
1
MAG_058
50
0.0
0
TEXT
8
DEBRIS
10
536459.613
20
710437.625
30
0.0
40
2.0
1
M:A B:1 A:455nT
50
0.0
0
POINT
8
DEBRIS
10
536457.563
20
710682.975
30
0.0
0
TEXT
8
DEBRIS
10
536451.563
20
710687.975
30
0.0
40
3.0
1
MAG_059
50
0.0
0
TEXT
8
DEBRIS
10
536451.563
20
710679.975
30
0.0
40
2.0
1
M:F B:4 A:106nT
50
0.0
0
POINT
8
DEBRIS
10
536456.313
20
710728.725
30
0.0
0
TEXT
8
DEBRIS
10
536456.313
20
710725.725
30
0.0
40
3.0
1
MAG_060
50
0.0
0
TEXT
8
DEBRIS
10
536456.313
20
710717.725
30
0.0
40
2.0
1
M:D B:2 A:56nT
50
0.0
0
POINT
8
UNDEFINED_CONSTRUCTION
10
536459.813
20
710589.925
30
0.0
0
TEXT
8
UNDEFINED_CONSTRUCTION
10
536459.813
20
710602.925
30
0.0
40
3.0
1
MAG_061
50
0.0
0
TEXT
8
UNDEFINED_CONSTRUCTION
10
536459.813
20
710594.925
30
0.0
40
2.0
1
M:E B:1 A:2848nT
50
0.0
0
POINT
8
DEBRIS
10
536461.013
20
710752.125
30
0.0
0
TEXT
8
DEBRIS
10
536467.013
20
710757.125
30
0.0
40
3.0
1
MAG_062
50
0.0
0
TEXT
8
DEBRIS
10
536467.013
20
710749.125
30
0.0
40
2.0
1
M:A B:1 A:15nT
50
0.0
0
POINT
8
DEBRIS
10
536464.613
20
710471.625
30
0.0
0
TEXT
8
DEBRIS
10
536458.613
20
710476.625
30
0.0
40
3.0
1
MAG_063
50
0.0
0
TEXT
8
DEBRIS
10
536458.613
20
710468.625
30
0.0
40
2.0
1
M:E B:4 A:686nT
50
0.0
0
POINT
8
UNDEFINED_CONSTRUCTION
10
536466.513
20
710534.225
30
0.0
0
TEXT
8
UNDEFINED_CONSTRUCTION
10
536466.513
20
710531.225
30
0.0
40
3.0
1
MAG_064
50
0.0
0
TEXT
8
UNDEFINED_CONSTRUCTION
10
536466.513
20
710523.225
30
0.0
40
2.0
1
M:I B:6 A:1537nT
50
0.0
0
POINT
8
DEBRIS
10
536466.172
20
710433.19
30
0.0
0
TEXT
8
DEBRIS
10
536466.172
20
710446.19
30
0.0
40
3.0
1
MAG_065
50
0.0
0
TEXT
8
DEBRIS
10
536466.172
20
710438.19
30
0.0
40
2.0
1
M:C B:2 A:592nT
50
0.0
0
POINT
8
DEBRIS
10
536468.213
20
710452.825
30
0.0
0
TEXT
8
DEBRIS
10
536474.213
20
710457.825
30
0.0
40
3.0
1
MAG_066
50
0.0
0
TEXT
8
DEBRIS
10
536474.213
20
710449.825
30
0.0
40
2.0
1
M:D B:3 A:629nT
50
0.0
0
POINT
8
UNDEFINED_CONSTRUCTION
10
536466.313
20
710636.125
30
0.0
0
TEXT
8
UNDEFINED_CONSTRUCTION
10
536460.313
20
710641.125
30
0.0
40
3.0
1
MAG_067
50
0.0
0
TEXT
8
UNDEFINED_CONSTRUCTION
10
536460.313
20
710633.125
30
0.0
40
2.0
1
M:I B:5 A:5045nT
50
0.0
0
POINT
8
UNDEFINED_CONSTRUCTION
10
536475.713
20
710554.425
30
0.0
0
TEXT
8
UNDEFINED_CONSTRUCTION
10
536475.713
20
710551.425
30
0.0
40
3.0
1
MAG_068
50
0.0
0
TEXT
8
UNDEFINED_CONSTRUCTION
10
536475.713
20
710543.425
30
0.0
40
2.0
1
M:D B:3 A:468nT
50
0.0
0
POINT
8
UNDEFINED_CONSTRUCTION
10
536477.187
20
710646.734
30
0.0
0
TEXT
8
UNDEFINED_CONSTRUCTION
10
536477.187
20
710659.734
30
0.0
40
3.0
1
MAG_069
50
0.0
0
TEXT
8
UNDEFINED_CONSTRUCTION
10
536477.187
20
710651.734
30
0.0
40
2.0
1
M:I B:6 A:5045nT
50
0.0
0
POINT
8
DEBRIS
10
536487.013
20
710601.725
30
0.0
0
TEXT
8
DEBRIS
10
536493.013
20
710606.725
30
0.0
40
3.0
1
MAG_070
50
0.0
0
TEXT
8
DEBRIS
10
536493.013
20
710598.725
30
0.0
40
2.0
1
M:B B:1 A:127nT
50
0.0
0
POINT
8
JETTY_QUAY
10
536486.813
20
710427.225
30
0.0
0
TEXT
8
JETTY_QUAY
10
536480.813
20
710432.225
30
0.0
40
3.0
1
MAG_071
50
0.0
0
TEXT
8
JETTY_QUAY
10
536480.813
20
710424.225
30
0.0
40
2.0
1
M:F B:3 A:1595nT
50
0.0
0
POINT
8
UNDEFINED_CONSTRUCTION
10
536489.313
20
710518.125
30
0.0
0
TEXT
8
UNDEFINED_CONSTRUCTION
10
536489.313
20
710515.125
30
0.0
40
3.0
1
MAG_072
50
0.0
0
TEXT
8
UNDEFINED_CONSTRUCTION
10
536489.313
20
710507.125
30
0.0
40
2.0
1
M:I B:5 A:20569nT
50
0.0
0
POINT
8
DEBRIS
10
536492.813
20
710695.725
30
0.0
0
TEXT
8
DEBRIS
10
536492.813
20
710708.725
30
0.0
40
3.0
1
MAG_073
50
0.0
0
TEXT
8
DEBRIS
10
536492.813
20
710700.725
30
0.0
40
2.0
1
M:B B:3 A:28nT
50
0.0
0
POINT
8
DEBRIS
10
536497.863
20
710560.542
30
0.0
0
TEXT
8
DEBRIS
10
536503.863
20
710565.542
30
0.0
40
3.0
1
MAG_074
50
0.0
0
TEXT
8
DEBRIS
10
536503.863
20
710557.542
30
0.0
40
2.0
1
M:C B:1 A:1101nT
50
0.0
0
POINT
8
DEBRIS
10
536505.013
20
710446.825
30
0.0
0
TEXT
8
DEBRIS
10
536499.013
20
710451.825
30
0.0
40
3.0
1
MAG_075
50
0.0
0
TEXT
8
DEBRIS
10
536499.013
20
710443.825
30
0.0
40
2.0
1
M:C B:3 A:364nT
50
0.0
0
POINT
8
DEBRIS
10
536503.313
20
710467.425
30
0.0
0
TEXT
8
DEBRIS
10
536503.313
20
710464.425
30
0.0
40
3.0
1
MAG_076
50
0.0
0
TEXT
8
DEBRIS
10
536503.313
20
710456.425
30
0.0
40
2.0
1
M:G B:4 A:236nT
50
0.0
0
POINT
8
DEBRIS
10
536510.613
20
710703.425
30
0.0
0
TEXT
8
DEBRIS
10
536510.613
20
710716.425
30
0.0
40
3.0
1
MAG_077
50
0.0
0
TEXT
8
DEBRIS
10
536510.613
20
710708.425
30
0.0
40
2.0
1
M:F B:5 A:70nT
50
0.0
0
POINT
8
DEBRIS
10
536513.413
20
710597.925
30
0.0
0
TEXT
8
DEBRIS
10
536519.413
20
710602.925
30
0.0
40
3.0
1
MAG_078
50
0.0
0
TEXT
8
DEBRIS
10
536519.413
20
710594.925
30
0.0
40
2.0
1
M:C B:1 A:133nT
50
0.0
0
POINT
8
DEBRIS
10
536515.813
20
710687.625
30
0.0
0
TEXT
8
DEBRIS
10
536509.813
20
710692.625
30
0.0
40
3.0
1
MAG_079
50
0.0
0
TEXT
8
DEBRIS
10
536509.813
20
710684.625
30
0.0
40
2.0
1
M:B B:1 A:73nT
50
0.0
0
POINT
8
DEBRIS
10
536522.213
20
710621.125
30
0.0
0
TEXT
8
DEBRIS
10
536522.213
20
710618.125
30
0.0
40
3.0
1
MAG_080
50
0.0
0
TEXT
8
DEBRIS
10
536522.213
20
710610.125
30
0.0
40
2.0
1
M:C B:1 A:50nT
50
0.0
0
POINT
8
DEBRIS
10
536519.313
20
710558.125
30
0.0
0
TEXT
8
DEBRIS
10
536519.313
20
710571.125
30
0.0
40
3.0
1
MAG_081
50
0.0
0
TEXT
8
DEBRIS
10
536519.313
20
710563.125
30
0.0
40
2.0
1
M:C B:1 A:666nT
50
0.0
0
POINT
8
DEBRIS
10
536521.113
20
710467.025
30
0.0
0
TEXT
8
DEBRIS
10
536527.113
20
710472.025
30
0.0
40
3.0
1
MAG_082
50
0.0
0
TEXT
8
DEBRIS
10
536527.113
20
710464.025
30
0.0
40
2.0
1
M:B B:1 A:604nT
50
0.0
0
POINT
8
DEBRIS
10
536521.413
20
710661.125
30
0.0
0
TEXT
8
DEBRIS
10
536515.413
20
710666.125
30
0.0
40
3.0
1
MAG_083
50
0.0
0
TEXT
8
DEBRIS
10
536515.413
20
710658.125
30
0.0
40
2.0
1
M:C B:1 A:142nT
50
0.0
0
POINT
8
DEBRIS
10
536525.313
20
710525.325
30
0.0
0
TEXT
8
DEBRIS
10
536525.313
20
710522.325
30
0.0
40
3.0
1
MAG_084
50
0.0
0
TEXT
8
DEBRIS
10
536525.313
20
710514.325
30
0.0
40
2.0
1
M:C B:1 A:657nT
50
0.0
0
POINT
8
DEBRIS
10
536530.513
20
710587.925
30
0.0
0
TEXT
8
DEBRIS
10
536530.513
20
710600.925
30
0.0
40
3.0
1
MAG_085
50
0.0
0
TEXT
8
DEBRIS
10
536530.513
20
710592.925
30
0.0
40
2.0
1
M:C B:1 A:292nT
50
0.0
0
POINT
8
DEBRIS
10
536529.813
20
710496.325
30
0.0
0
TEXT
8
DEBRIS
10
536535.813
20
710501.325
30
0.0
40
3.0
1
MAG_086
50
0.0
0
TEXT
8
DEBRIS
10
536535.813
20
710493.325
30
0.0
40
2.0
1
M:A B:1 A:202nT
50
0.0
0
POINT
8
DEBRIS
10
536531.213
20
710485.225
30
0.0
0
TEXT
8
DEBRIS
10
536525.213
20
710490.225
30
0.0
40
3.0
1
MAG_087
50
0.0
0
TEXT
8
DEBRIS
10
536525.213
20
710482.225
30
0.0
40
2.0
1
M:C B:2 A:329nT
50
0.0
0
POINT
8
DEBRIS
10
536535.813
20
710703.525
30
0.0
0
TEXT
8
DEBRIS
10
536535.813
20
710700.525
30
0.0
40
3.0
1
MAG_088
50
0.0
0
TEXT
8
DEBRIS
10
536535.813
20
710692.525
30
0.0
40
2.0
1
M:C B:2 A:70nT
50
0.0
0
POINT
8
UNDEFINED_OBJECTS
10
536537.345
20
710809.816
30
0.0
0
TEXT
8
UNDEFINED_OBJECTS
10
536537.345
20
710822.816
30
0.0
40
3.0
1
MAG_089
50
0.0
0
TEXT
8
UNDEFINED_OBJECTS
10
536537.345
20
710814.816
30
0.0
40
2.0
1
M:I B:3 A:5682nT
50
0.0
0
POINT
8
DEBRIS
10
536538.513
20
710430.425
30
0.0
0
TEXT
8
DEBRIS
10
536544.513
20
710435.425
30
0.0
40
3.0
1
MAG_090
50
0.0
0
TEXT
8
DEBRIS
10
536544.513
20
710427.425
30
0.0
40
2.0
1
M:B B:1 A:775nT
50
0.0
0
POINT
8
UNDEFINED_OBJECTS
10
536538.284
20
710795.205
30
0.0
0
TEXT
8
UNDEFINED_OBJECTS
10
536532.284
20
710800.205
30
0.0
40
3.0
1
MAG_091
50
0.0
0
TEXT
8
UNDEFINED_OBJECTS
10
536532.284
20
710792.205
30
0.0
40
2.0
1
M:I B:1 A:5682nT
50
0.0
0
POINT
8
DEBRIS
10
536540.413
20
710481.925
30
0.0
0
TEXT
8
DEBRIS
10
536540.413
20
710478.925
30
0.0
40
3.0
1
MAG_092
50
0.0
0
TEXT
8
DEBRIS
10
536540.413
20
710470.925
30
0.0
40
2.0
1
M:B B:2 A:538nT
50
0.0
0
POINT
8
DEBRIS
10
536539.413
20
710559.825
30
0.0
0
TEXT
8
DEBRIS
10
536539.413
20
710572.825
30
0.0
40
3.0
1
MAG_093
50
0.0
0
TEXT
8
DEBRIS
10
536539.413
20
710564.825
30
0.0
40
2.0
1
M:E B:4 A:225nT
50
0.0
0
POINT
8
DEBRIS
10
536542.613
20
710670.625
30
0.0
0
TEXT
8
DEBRIS
10
536548.613
20
710675.625
30
0.0
40
3.0
1
MAG_094
50
0.0
0
TEXT
8
DEBRIS
10
536548.613
20
710667.625
30
0.0
40
2.0
1
M:A B:1 A:41nT
50
0.0
0
POINT
8
DEBRIS
10
536543.913
20
710462.325
30
0.0
0
TEXT
8
DEBRIS
10
536537.913
20
710467.325
30
0.0
40
3.0
1
MAG_095
50
0.0
0
TEXT
8
DEBRIS
10
536537.913
20
710459.325
30
0.0
40
2.0
1
M:AA B:1 A:179nT
50
0.0
0
POINT
8
DEBRIS
10
536546.913
20
710491.825
30
0.0
0
TEXT
8
DEBRIS
10
536546.913
20
710488.825
30
0.0
40
3.0
1
MAG_096
50
0.0
0
TEXT
8
DEBRIS
10
536546.913
20
710480.825
30
0.0
40
2.0
1
M:D B:4 A:130nT
50
0.0
0
POINT
8
DEBRIS
10
536562.338
20
710482.475
30
0.0
0
TEXT
8
DEBRIS
10
536562.338
20
710495.475
30
0.0
40
3.0
1
MAG_097
50
0.0
0
TEXT
8
DEBRIS
10
536562.338
20
710487.475
30
0.0
40
2.0
1
M:A B:2 A:70nT
50
0.0
0
POINT
8
DEBRIS
10
536564.813
20
710536.125
30
0.0
0
TEXT
8
DEBRIS
10
536570.813
20
710541.125
30
0.0
40
3.0
1
MAG_098
50
0.0
0
TEXT
8
DEBRIS
10
536570.813
20
710533.125
30
0.0
40
2.0
1
M:D B:3 A:171nT
50
0.0
0
POINT
8
DEBRIS
10
536570.096
20
710511.158
30
0.0
0
TEXT
8
DEBRIS
10
536564.096
20
710516.158
30
0.0
40
3.0
1
MAG_099
50
0.0
0
TEXT
8
DEBRIS
10
536564.096
20
710508.158
30
0.0
40
2.0
1
M:C B:1 A:342nT
50
0.0
0
POINT
8
DEBRIS
10
536569.313
20
710735.525
30
0.0
0
TEXT
8
DEBRIS
10
536569.313
20
710732.525
30
0.0
40
3.0
1
MAG_100
50
0.0
0
TEXT
8
DEBRIS
10
536569.313
20
710724.525
30
0.0
40
2.0
1
M:D B:3 A:71nT
50
0.0
0
POINT
8
DEBRIS
10
536576.401
20
710413.747
30
0.0
0
TEXT
8
DEBRIS
10
536576.401
20
710426.747
30
0.0
40
3.0
1
MAG_101
50
0.0
0
TEXT
8
DEBRIS
10
536576.401
20
710418.747
30
0.0
40
2.0
1
M:B B:1 A:200nT
50
0.0
0
POINT
8
DEBRIS
10
536576.473
20
710479.282
30
0.0
0
TEXT
8
DEBRIS
10
536582.473
20
710484.282
30
0.0
40
3.0
1
MAG_102
50
0.0
0
TEXT
8
DEBRIS
10
536582.473
20
710476.282
30
0.0
40
2.0
1
M:B B:2 A:86nT
50
0.0
0
POINT
8
DEBRIS
10
536573.313
20
710464.625
30
0.0
0
TEXT
8
DEBRIS
10
536567.313
20
710469.625
30
0.0
40
3.0
1
MAG_103
50
0.0
0
TEXT
8
DEBRIS
10
536567.313
20
710461.625
30
0.0
40
2.0
1
M:AA B:1 A:63nT
50
0.0
0
POINT
8
DEBRIS
10
536579.502
20
710425.304
30
0.0
0
TEXT
8
DEBRIS
10
536579.502
20
710422.304
30
0.0
40
3.0
1
MAG_104
50
0.0
0
TEXT
8
DEBRIS
10
536579.502
20
710414.304
30
0.0
40
2.0
1
M:AA B:1 A:149nT
50
0.0
0
POINT
8
DEBRIS
10
536579.313
20
710529.925
30
0.0
0
TEXT
8
DEBRIS
10
536579.313
20
710542.925
30
0.0
40
3.0
1
MAG_105
50
0.0
0
TEXT
8
DEBRIS
10
536579.313
20
710534.925
30
0.0
40
2.0
1
M:C B:1 A:259nT
50
0.0
0
POINT
8
DEBRIS
10
536583.414
20
710730.939
30
0.0
0
TEXT
8
DEBRIS
10
536589.414
20
710735.939
30
0.0
40
3.0
1
MAG_106
50
0.0
0
TEXT
8
DEBRIS
10
536589.414
20
710727.939
30
0.0
40
2.0
1
M:B B:1 A:52nT
50
0.0
0
POINT
8
WRECKS
10
536587.813
20
710600.425
30
0.0
0
TEXT
8
WRECKS
10
536581.813
20
710605.425
30
0.0
40
3.0
1
MAG_107
50
0.0
0
TEXT
8
WRECKS
10
536581.813
20
710597.425
30
0.0
40
2.0
1
M:I B:1 A:16619nT
50
0.0
0
POINT
8
DEBRIS
10
536586.082
20
710730.401
30
0.0
0
TEXT
8
DEBRIS
10
536586.082
20
710727.401
30
0.0
40
3.0
1
MAG_108
50
0.0
0
TEXT
8
DEBRIS
10
536586.082
20
710719.401
30
0.0
40
2.0
1
M:C B:1 A:52nT
50
0.0
0
POINT
8
WRECKS
10
536594.213
20
710570.925
30
0.0
0
TEXT
8
WRECKS
10
536594.213
20
710583.925
30
0.0
40
3.0
1
MAG_109
50
0.0
0
TEXT
8
WRECKS
10
536594.213
20
710575.925
30
0.0
40
2.0
1
M:I B:1 A:16619nT
50
0.0
0
POINT
8
DEBRIS
10
536598.913
20
710711.525
30
0.0
0
TEXT
8
DEBRIS
10
536604.913
20
710716.525
30
0.0
40
3.0
1
MAG_110
50
0.0
0
TEXT
8
DEBRIS
10
536604.913
20
710708.525
30
0.0
40
2.0
1
M:B B:1 A:32nT
50
0.0
0
POINT
8
UNDEFINED_CONSTRUCTION
10
536597.113
20
710432.525
30
0.0
0
TEXT
8
UNDEFINED_CONSTRUCTION
10
536591.113
20
710437.525
30
0.0
40
3.0
1
MAG_111
50
0.0
0
TEXT
8
UNDEFINED_CONSTRUCTION
10
536591.113
20
710429.525
30
0.0
40
2.0
1
M:C B:1 A:882nT
50
0.0
0
POINT
8
WRECKS
10
536595.113
20
710511.225
30
0.0
0
TEXT
8
WRECKS
10
536595.113
20
710508.225
30
0.0
40
3.0
1
MAG_112
50
0.0
0
TEXT
8
WRECKS
10
536595.113
20
710500.225
30
0.0
40
2.0
1
M:I B:1 A:24940nT
50
0.0
0
POINT
8
UNDEFINED_CONSTRUCTION
10
536598.013
20
710418.225
30
0.0
0
TEXT
8
UNDEFINED_CONSTRUCTION
10
536598.013
20
710431.225
30
0.0
40
3.0
1
MAG_113
50
0.0
0
TEXT
8
UNDEFINED_CONSTRUCTION
10
536598.013
20
710423.225
30
0.0
40
2.0
1
M:G B:3 A:882nT
50
0.0
0
POINT
8
DEBRIS
10
536601.313
20
710680.125
30
0.0
0
TEXT
8
DEBRIS
10
536607.313
20
710685.125
30
0.0
40
3.0
1
MAG_114
50
0.0
0
TEXT
8
DEBRIS
10
536607.313
20
710677.125
30
0.0
40
2.0
1
M:D B:4 A:45nT
50
0.0
0
POINT
8
DEBRIS
10
536604.245
20
710715.491
30
0.0
0
TEXT
8
DEBRIS
10
536598.245
20
710720.491
30
0.0
40
3.0
1
MAG_115
50
0.0
0
TEXT
8
DEBRIS
10
536598.245
20
710712.491
30
0.0
40
2.0
1
M:C B:1 A:48nT
50
0.0
0
POINT
8
WRECKS
10
536615.613
20
710554.225
30
0.0
0
TEXT
8
WRECKS
10
536615.613
20
710551.225
30
0.0
40
3.0
1
MAG_116
50
0.0
0
TEXT
8
WRECKS
10
536615.613
20
710543.225
30
0.0
40
2.0
1
M:I B:4 A:14792nT
50
0.0
0
POINT
8
WRECKS
10
536619.413
20
710499.325
30
0.0
0
TEXT
8
WRECKS
10
536619.413
20
710512.325
30
0.0
40
3.0
1
MAG_117
50
0.0
0
TEXT
8
WRECKS
10
536619.413
20
710504.325
30
0.0
40
2.0
1
M:I B:1 A:23525nT
50
0.0
0
POINT
8
DEBRIS
10
536617.613
20
710696.725
30
0.0
0
TEXT
8
DEBRIS
10
536623.613
20
710701.725
30
0.0
40
3.0
1
MAG_118
50
0.0
0
TEXT
8
DEBRIS
10
536623.613
20
710693.725
30
0.0
40
2.0
1
M:G B:6 A:225nT
50
0.0
0
POINT
8
UNDEFINED_CONSTRUCTION
10
536618.213
20
710463.225
30
0.0
0
TEXT
8
UNDEFINED_CONSTRUCTION
10
536612.213
20
710468.225
30
0.0
40
3.0
1
MAG_119
50
0.0
0
TEXT
8
UNDEFINED_CONSTRUCTION
10
536612.213
20
710460.225
30
0.0
40
2.0
1
M:G B:5 A:671nT
50
0.0
0
POINT
8
DEBRIS
10
536626.313
20
710748.925
30
0.0
0
TEXT
8
DEBRIS
10
536626.313
20
710745.925
30
0.0
40
3.0
1
MAG_120
50
0.0
0
TEXT
8
DEBRIS
10
536626.313
20
710737.925
30
0.0
40
2.0
1
M:D B:1 A:68nT
50
0.0
0
POINT
8
DEBRIS
10
536628.013
20
710661.725
30
0.0
0
TEXT
8
DEBRIS
10
536628.013
20
710674.725
30
0.0
40
3.0
1
MAG_121
50
0.0
0
TEXT
8
DEBRIS
10
536628.013
20
710666.725
30
0.0
40
2.0
1
M:B B:1 A:304nT
50
0.0
0
POINT
8
DEBRIS
10
536634.913
20
710585.225
30
0.0
0
TEXT
8
DEBRIS
10
536640.913
20
710590.225
30
0.0
40
3.0
1
MAG_122
50
0.0
0
TEXT
8
DEBRIS
10
536640.913
20
710582.225
30
0.0
40
2.0
1
M:D B:1 A:241nT
50
0.0
0
POINT
8
DEBRIS
10
536637.541
20
710704.215
30
0.0
0
TEXT
8
DEBRIS
10
536631.541
20
710709.215
30
0.0
40
3.0
1
MAG_123
50
0.0
0
TEXT
8
DEBRIS
10
536631.541
20
710701.215
30
0.0
40
2.0
1
M:C B:2 A:36nT
50
0.0
0
POINT
8
DEBRIS
10
536634.113
20
710552.625
30
0.0
0
TEXT
8
DEBRIS
10
536634.113
20
710549.625
30
0.0
40
3.0
1
MAG_124
50
0.0
0
TEXT
8
DEBRIS
10
536634.113
20
710541.625
30
0.0
40
2.0
1
M:D B:1 A:2858nT
50
0.0
0
POINT
8
DEBRIS
10
536640.713
20
710668.625
30
0.0
0
TEXT
8
DEBRIS
10
536640.713
20
710681.625
30
0.0
40
3.0
1
MAG_125
50
0.0
0
TEXT
8
DEBRIS
10
536640.713
20
710673.625
30
0.0
40
2.0
1
M:B B:1 A:44nT
50
0.0
0
POINT
8
UNDEFINED_OBJECTS
10
536643.713
20
710414.692
30
0.0
0
TEXT
8
UNDEFINED_OBJECTS
10
536649.713
20
710419.692
30
0.0
40
3.0
1
MAG_126
50
0.0
0
TEXT
8
UNDEFINED_OBJECTS
10
536649.713
20
710411.692
30
0.0
40
2.0
1
M:D B:3 A:279nT
50
0.0
0
POINT
8
DEBRIS
10
536643.013
20
710719.425
30
0.0
0
TEXT
8
DEBRIS
10
536637.013
20
710724.425
30
0.0
40
3.0
1
MAG_127
50
0.0
0
TEXT
8
DEBRIS
10
536637.013
20
710716.425
30
0.0
40
2.0
1
M:C B:1 A:81nT
50
0.0
0
POINT
8
DEBRIS
10
536645.558
20
710703.967
30
0.0
0
TEXT
8
DEBRIS
10
536645.558
20
710700.967
30
0.0
40
3.0
1
MAG_128
50
0.0
0
TEXT
8
DEBRIS
10
536645.558
20
710692.967
30
0.0
40
2.0
1
M:D B:4 A:40nT
50
0.0
0
POINT
8
UNDEFINED_CONSTRUCTION
10
536654.113
20
710480.925
30
0.0
0
TEXT
8
UNDEFINED_CONSTRUCTION
10
536654.113
20
710493.925
30
0.0
40
3.0
1
MAG_129
50
0.0
0
TEXT
8
UNDEFINED_CONSTRUCTION
10
536654.113
20
710485.925
30
0.0
40
2.0
1
M:I B:6 A:6604nT
50
0.0
0
POINT
8
UNDEFINED_OBJECTS
10
536662.513
20
710427.825
30
0.0
0
TEXT
8
UNDEFINED_OBJECTS
10
536668.513
20
710432.825
30
0.0
40
3.0
1
MAG_130
50
0.0
0
TEXT
8
UNDEFINED_OBJECTS
10
536668.513
20
710424.825
30
0.0
40
2.0
1
M:G B:4 A:769nT
50
0.0
0
POINT
8
DEBRIS
10
536665.013
20
710662.425
30
0.0
0
TEXT
8
DEBRIS
10
536659.013
20
710667.425
30
0.0
40
3.0
1
MAG_131
50
0.0
0
TEXT
8
DEBRIS
10
536659.013
20
710659.425
30
0.0
40
2.0
1
M:AA B:1 A:30nT
50
0.0
0
POINT
8
DEBRIS
10
536678.362
20
710685.452
30
0.0
0
TEXT
8
DEBRIS
10
536678.362
20
710682.452
30
0.0
40
3.0
1
MAG_132
50
0.0
0
TEXT
8
DEBRIS
10
536678.362
20
710674.452
30
0.0
40
2.0
1
M:D B:3 A:58nT
50
0.0
0
POINT
8
DEBRIS
10
536677.963
20
710554.792
30
0.0
0
TEXT
8
DEBRIS
10
536677.963
20
710567.792
30
0.0
40
3.0
1
MAG_133
50
0.0
0
TEXT
8
DEBRIS
10
536677.963
20
710559.792
30
0.0
40
2.0
1
M:AA B:1 A:17nT
50
0.0
0
POINT
8
DEBRIS
10
536678.013
20
710708.225
30
0.0
0
TEXT
8
DEBRIS
10
536684.013
20
710713.225
30
0.0
40
3.0
1
MAG_134
50
0.0
0
TEXT
8
DEBRIS
10
536684.013
20
710705.225
30
0.0
40
2.0
1
M:C B:1 A:29nT
50
0.0
0
POINT
8
DEBRIS
10
536676.213
20
710683.625
30
0.0
0
TEXT
8
DEBRIS
10
536670.213
20
710688.625
30
0.0
40
3.0
1
MAG_135
50
0.0
0
TEXT
8
DEBRIS
10
536670.213
20
710680.625
30
0.0
40
2.0
1
M:C B:1 A:58nT
50
0.0
0
POINT
8
UNDEFINED_CONSTRUCTION
10
536694.613
20
710413.325
30
0.0
0
TEXT
8
UNDEFINED_CONSTRUCTION
10
536694.613
20
710410.325
30
0.0
40
3.0
1
MAG_136
50
0.0
0
TEXT
8
UNDEFINED_CONSTRUCTION
10
536694.613
20
710402.325
30
0.0
40
2.0
1
M:G B:1 A:42167nT
50
0.0
0
POINT
8
DEBRIS
10
536700.613
20
710605.725
30
0.0
0
TEXT
8
DEBRIS
10
536700.613
20
710618.725
30
0.0
40
3.0
1
MAG_137
50
0.0
0
TEXT
8
DEBRIS
10
536700.613
20
710610.725
30
0.0
40
2.0
1
M:C B:3 A:36nT
50
0.0
0
POINT
8
UNDEFINED_CONSTRUCTION
10
536703.413
20
710431.725
30
0.0
0
TEXT
8
UNDEFINED_CONSTRUCTION
10
536709.413
20
710436.725
30
0.0
40
3.0
1
MAG_138
50
0.0
0
TEXT
8
UNDEFINED_CONSTRUCTION
10
536709.413
20
710428.725
30
0.0
40
2.0
1
M:D B:1 A:3497nT
50
0.0
0
POINT
8
UNDEFINED_CONSTRUCTION
10
536702.613
20
710480.425
30
0.0
0
TEXT
8
UNDEFINED_CONSTRUCTION
10
536696.613
20
710485.425
30
0.0
40
3.0
1
MAG_139
50
0.0
0
TEXT
8
UNDEFINED_CONSTRUCTION
10
536696.613
20
710477.425
30
0.0
40
2.0
1
M:I B:4 A:5243nT
50
0.0
0
POINT
8
UNDEFINED_CONSTRUCTION
10
536707.042
20
710497.955
30
0.0
0
TEXT
8
UNDEFINED_CONSTRUCTION
10
536707.042
20
710494.955
30
0.0
40
3.0
1
MAG_140
50
0.0
0
TEXT
8
UNDEFINED_CONSTRUCTION
10
536707.042
20
710486.955
30
0.0
40
2.0
1
M:E B:1 A:4240nT
50
0.0
0
POINT
8
DEBRIS
10
536718.213
20
710709.125
30
0.0
0
TEXT
8
DEBRIS
10
536718.213
20
710722.125
30
0.0
40
3.0
1
MAG_141
50
0.0
0
TEXT
8
DEBRIS
10
536718.213
20
710714.125
30
0.0
40
2.0
1
M:G B:5 A:13nT
50
0.0
0
POINT
8
UNDEFINED_CONSTRUCTION
10
536719.713
20
710407.025
30
0.0
0
TEXT
8
UNDEFINED_CONSTRUCTION
10
536725.713
20
710412.025
30
0.0
40
3.0
1
MAG_142
50
0.0
0
TEXT
8
UNDEFINED_CONSTRUCTION
10
536725.713
20
710404.025
30
0.0
40
2.0
1
M:I B:4 A:42167nT
50
0.0
0
POINT
8
DEBRIS
10
536717.313
20
710643.425
30
0.0
0
TEXT
8
DEBRIS
10
536711.313
20
710648.425
30
0.0
40
3.0
1
MAG_143
50
0.0
0
TEXT
8
DEBRIS
10
536711.313
20
710640.425
30
0.0
40
2.0
1
M:A B:1 A:48nT
50
0.0
0
POINT
8
DEBRIS
10
536721.713
20
710724.125
30
0.0
0
TEXT
8
DEBRIS
10
536721.713
20
710721.125
30
0.0
40
3.0
1
MAG_144
50
0.0
0
TEXT
8
DEBRIS
10
536721.713
20
710713.125
30
0.0
40
2.0
1
M:F B:1 A:11nT
50
0.0
0
POINT
8
UNDEFINED_CONSTRUCTION
10
536727.313
20
710385.325
30
0.0
0
TEXT
8
UNDEFINED_CONSTRUCTION
10
536727.313
20
710398.325
30
0.0
40
3.0
1
MAG_145
50
0.0
0
TEXT
8
UNDEFINED_CONSTRUCTION
10
536727.313
20
710390.325
30
0.0
40
2.0
1
M:G B:6 A:768nT
50
0.0
0
POINT
8
DEBRIS
10
536738.013
20
710555.825
30
0.0
0
TEXT
8
DEBRIS
10
536744.013
20
710560.825
30
0.0
40
3.0
1
MAG_146
50
0.0
0
TEXT
8
DEBRIS
10
536744.013
20
710552.825
30
0.0
40
2.0
1
M:A B:3 A:104nT
50
0.0
0
POINT
8
DEBRIS
10
536738.413
20
710581.125
30
0.0
0
TEXT
8
DEBRIS
10
536732.413
20
710586.125
30
0.0
40
3.0
1
MAG_147
50
0.0
0
TEXT
8
DEBRIS
10
536732.413
20
710578.125
30
0.0
40
2.0
1
M:E B:3 A:162nT
50
0.0
0
POINT
8
DEBRIS
10
536740.413
20
710600.225
30
0.0
0
TEXT
8
DEBRIS
10
536740.413
20
710597.225
30
0.0
40
3.0
1
MAG_148
50
0.0
0
TEXT
8
DEBRIS
10
536740.413
20
710589.225
30
0.0
40
2.0
1
M:A B:1 A:34nT
50
0.0
0
POINT
8
DEBRIS
10
536755.913
20
710582.625
30
0.0
0
TEXT
8
DEBRIS
10
536755.913
20
710595.625
30
0.0
40
3.0
1
MAG_149
50
0.0
0
TEXT
8
DEBRIS
10
536755.913
20
710587.625
30
0.0
40
2.0
1
M:A B:2 A:28nT
50
0.0
0
POINT
8
DEBRIS
10
536761.213
20
710561.925
30
0.0
0
TEXT
8
DEBRIS
10
536767.213
20
710566.925
30
0.0
40
3.0
1
MAG_150
50
0.0
0
TEXT
8
DEBRIS
10
536767.213
20
710558.925
30
0.0
40
2.0
1
M:AA B:3 A:42nT
50
0.0
0
POINT
8
UNDEFINED_CONSTRUCTION
10
536763.413
20
710457.025
30
0.0
0
TEXT
8
UNDEFINED_CONSTRUCTION
10
536757.413
20
710462.025
30
0.0
40
3.0
1
MAG_151
50
0.0
0
TEXT
8
UNDEFINED_CONSTRUCTION
10
536757.413
20
710454.025
30
0.0
40
2.0
1
M:I B:5 A:6540nT
50
0.0
0
POINT
8
UNDEFINED_CONSTRUCTION
10
536766.913
20
710478.925
30
0.0
0
TEXT
8
UNDEFINED_CONSTRUCTION
10
536766.913
20
710475.925
30
0.0
40
3.0
1
MAG_152
50
0.0
0
TEXT
8
UNDEFINED_CONSTRUCTION
10
536766.913
20
710467.925
30
0.0
40
2.0
1
M:G B:1 A:6540nT
50
0.0
0
POINT
8
DEBRIS
10
536776.612
20
710517.397
30
0.0
0
TEXT
8
DEBRIS
10
536776.612
20
710530.397
30
0.0
40
3.0
1
MAG_153
50
0.0
0
TEXT
8
DEBRIS
10
536776.612
20
710522.397
30
0.0
40
2.0
1
M:AA B:1 A:19nT
50
0.0
0
POINT
8
DEBRIS
10
536777.313
20
710557.525
30
0.0
0
TEXT
8
DEBRIS
10
536783.313
20
710562.525
30
0.0
40
3.0
1
MAG_154
50
0.0
0
TEXT
8
DEBRIS
10
536783.313
20
710554.525
30
0.0
40
2.0
1
M:C B:4 A:33nT
50
0.0
0
POINT
8
DEBRIS
10
536786.513
20
710416.725
30
0.0
0
TEXT
8
DEBRIS
10
536780.513
20
710421.725
30
0.0
40
3.0
1
MAG_155
50
0.0
0
TEXT
8
DEBRIS
10
536780.513
20
710413.725
30
0.0
40
2.0
1
M:AAA B:1 A:16nT
50
0.0
0
POINT
8
DEBRIS
10
536789.513
20
710391.025
30
0.0
0
TEXT
8
DEBRIS
10
536789.513
20
710388.025
30
0.0
40
3.0
1
MAG_156
50
0.0
0
TEXT
8
DEBRIS
10
536789.513
20
710380.025
30
0.0
40
2.0
1
M:C B:2 A:272nT
50
0.0
0
POINT
8
DEBRIS
10
536794.529
20
710530.777
30
0.0
0
TEXT
8
DEBRIS
10
536794.529
20
710543.777
30
0.0
40
3.0
1
MAG_157
50
0.0
0
TEXT
8
DEBRIS
10
536794.529
20
710535.777
30
0.0
40
2.0
1
M:B B:4 A:19nT
50
0.0
0
POINT
8
DEBRIS
10
536807.013
20
710452.825
30
0.0
0
TEXT
8
DEBRIS
10
536813.013
20
710457.825
30
0.0
40
3.0
1
MAG_158
50
0.0
0
TEXT
8
DEBRIS
10
536813.013
20
710449.825
30
0.0
40
2.0
1
M:B B:1 A:102nT
50
0.0
0
POINT
8
DEBRIS
10
536804.113
20
710388.225
30
0.0
0
TEXT
8
DEBRIS
10
536798.113
20
710393.225
30
0.0
40
3.0
1
MAG_159
50
0.0
0
TEXT
8
DEBRIS
10
536798.113
20
710385.225
30
0.0
40
2.0
1
M:F B:6 A:197nT
50
0.0
0
POINT
8
DEBRIS
10
536806.613
20
710371.925
30
0.0
0
TEXT
8
DEBRIS
10
536806.613
20
710368.925
30
0.0
40
3.0
1
MAG_160
50
0.0
0
TEXT
8
DEBRIS
10
536806.613
20
710360.925
30
0.0
40
2.0
1
M:I B:5 A:7932nT
50
0.0
0
POINT
8
DEBRIS
10
536807.413
20
710518.325
30
0.0
0
TEXT
8
DEBRIS
10
536807.413
20
710531.325
30
0.0
40
3.0
1
MAG_161
50
0.0
0
TEXT
8
DEBRIS
10
536807.413
20
710523.325
30
0.0
40
2.0
1
M:AA B:2 A:57nT
50
0.0
0
POINT
8
DEBRIS
10
536817.713
20
710412.725
30
0.0
0
TEXT
8
DEBRIS
10
536823.713
20
710417.725
30
0.0
40
3.0
1
MAG_162
50
0.0
0
TEXT
8
DEBRIS
10
536823.713
20
710409.725
30
0.0
40
2.0
1
M:C B:4 A:67nT
50
0.0
0
POINT
8
DEBRIS
10
536828.213
20
710387.525
30
0.0
0
TEXT
8
DEBRIS
10
536822.213
20
710392.525
30
0.0
40
3.0
1
MAG_163
50
0.0
0
TEXT
8
DEBRIS
10
536822.213
20
710384.525
30
0.0
40
2.0
1
M:C B:3 A:184nT
50
0.0
0
POINT
8
DEBRIS
10
536829.013
20
710408.625
30
0.0
0
TEXT
8
DEBRIS
10
536829.013
20
710405.625
30
0.0
40
3.0
1
MAG_164
50
0.0
0
TEXT
8
DEBRIS
10
536829.013
20
710397.625
30
0.0
40
2.0
1
M:C B:3 A:91nT
50
0.0
0
POINT
8
DEBRIS
10
536867.063
20
710416.274
30
0.0
0
TEXT
8
DEBRIS
10
536867.063
20
710429.274
30
0.0
40
3.0
1
MAG_165
50
0.0
0
TEXT
8
DEBRIS
10
536867.063
20
710421.274
30
0.0
40
2.0
1
M:AA B:1 A:33nT
50
0.0
0
POINT
8
DEBRIS
10
536868.713
20
710490.025
30
0.0
0
TEXT
8
DEBRIS
10
536874.713
20
710495.025
30
0.0
40
3.0
1
MAG_166
50
0.0
0
TEXT
8
DEBRIS
10
536874.713
20
710487.025
30
0.0
40
2.0
1
M:B B:2 A:67nT
50
0.0
0
POINT
8
DEBRIS
10
536876.913
20
710451.025
30
0.0
0
TEXT
8
DEBRIS
10
536870.913
20
710456.025
30
0.0
40
3.0
1
MAG_167
50
0.0
0
TEXT
8
DEBRIS
10
536870.913
20
710448.025
30
0.0
40
2.0
1
M:C B:3 A:120nT
50
0.0
0
POINT
8
DEBRIS
10
536888.113
20
710404.025
30
0.0
0
TEXT
8
DEBRIS
10
536888.113
20
710401.025
30
0.0
40
3.0
1
MAG_168
50
0.0
0
TEXT
8
DEBRIS
10
536888.113
20
710393.025
30
0.0
40
2.0
1
M:B B:2 A:70nT
50
0.0
0
POINT
8
DEBRIS
10
536900.213
20
710374.725
30
0.0
0
TEXT
8
DEBRIS
10
536900.213
20
710387.725
30
0.0
40
3.0
1
MAG_169
50
0.0
0
TEXT
8
DEBRIS
10
536900.213
20
710379.725
30
0.0
40
2.0
1
M:A B:1 A:191nT
50
0.0
0
POINT
8
DEBRIS
10
536903.413
20
710486.625
30
0.0
0
TEXT
8
DEBRIS
10
536909.413
20
710491.625
30
0.0
40
3.0
1
MAG_170
50
0.0
0
TEXT
8
DEBRIS
10
536909.413
20
710483.625
30
0.0
40
2.0
1
M:A B:1 A:22nT
50
0.0
0
POINT
8
DEBRIS
10
536909.913
20
710400.825
30
0.0
0
TEXT
8
DEBRIS
10
536903.913
20
710405.825
30
0.0
40
3.0
1
MAG_171
50
0.0
0
TEXT
8
DEBRIS
10
536903.913
20
710397.825
30
0.0
40
2.0
1
M:E B:3 A:214nT
50
0.0
0
POINT
8
DEBRIS
10
536912.913
20
710427.225
30
0.0
0
TEXT
8
DEBRIS
10
536912.913
20
710424.225
30
0.0
40
3.0
1
MAG_172
50
0.0
0
TEXT
8
DEBRIS
10
536912.913
20
710416.225
30
0.0
40
2.0
1
M:B B:1 A:76nT
50
0.0
0
POINT
8
DEBRIS
10
536916.913
20
710369.825
30
0.0
0
TEXT
8
DEBRIS
10
536916.913
20
710382.825
30
0.0
40
3.0
1
MAG_173
50
0.0
0
TEXT
8
DEBRIS
10
536916.913
20
710374.825
30
0.0
40
2.0
1
M:B B:1 A:237nT
50
0.0
0
POINT
8
DEBRIS
10
536946.913
20
710381.625
30
0.0
0
TEXT
8
DEBRIS
10
536952.913
20
710386.625
30
0.0
40
3.0
1
MAG_174
50
0.0
0
TEXT
8
DEBRIS
10
536952.913
20
710378.625
30
0.0
40
2.0
1
M:G B:4 A:677nT
50
0.0
0
POINT
8
DEBRIS
10
536964.413
20
710377.925
30
0.0
0
TEXT
8
DEBRIS
10
536958.413
20
710382.925
30
0.0
40
3.0
1
MAG_175
50
0.0
0
TEXT
8
DEBRIS
10
536958.413
20
710374.925
30
0.0
40
2.0
1
M:D B:4 A:150nT
50
0.0
0
POINT
8
DEBRIS
10
536982.279
20
710423.652
30
0.0
0
TEXT
8
DEBRIS
10
536982.279
20
710420.652
30
0.0
40
3.0
1
MAG_176
50
0.0
0
TEXT
8
DEBRIS
10
536982.279
20
710412.652
30
0.0
40
2.0
1
M:B B:2 A:34nT
50
0.0
0
POINT
8
DEBRIS
10
536998.913
20
710395.225
30
0.0
0
TEXT
8
DEBRIS
10
536998.913
20
710408.225
30
0.0
40
3.0
1
MAG_177
50
0.0
0
TEXT
8
DEBRIS
10
536998.913
20
710400.225
30
0.0
40
2.0
1
M:AAA B:1 A:67nT
50
0.0
0
POINT
8
DEBRIS
10
537047.894
20
710384.063
30
0.0
0
TEXT
8
DEBRIS
10
537053.894
20
710389.063
30
0.0
40
3.0
1
MAG_178
50
0.0
0
TEXT
8
DEBRIS
10
537053.894
20
710381.063
30
0.0
40
2.0
1
M:F B:6 A:136nT
50
0.0
0
POINT
8
DEBRIS
10
537052.375
20
710391.936
30
0.0
0
TEXT
8
DEBRIS
10
537046.375
20
710396.936
30
0.0
40
3.0
1
MAG_179
50
0.0
0
TEXT
8
DEBRIS
10
537046.375
20
710388.936
30
0.0
40
2.0
1
M:A B:1 A:74nT
50
0.0
0
POINT
8
JETTY_QUAY
10
537069.413
20
710366.025
30
0.0
0
TEXT
8
JETTY_QUAY
10
537069.413
20
710363.025
30
0.0
40
3.0
1
MAG_180
50
0.0
0
TEXT
8
JETTY_QUAY
10
537069.413
20
710355.025
30
0.0
40
2.0
1
M:I B:1 A:1007nT
50
0.0
0
POINT
8
DEBRIS
10
537073.613
20
710384.925
30
0.0
0
TEXT
8
DEBRIS
10
537073.613
20
710397.925
30
0.0
40
3.0
1
MAG_181
50
0.0
0
TEXT
8
DEBRIS
10
537073.613
20
710389.925
30
0.0
40
2.0
1
M:A B:1 A:47nT
50
0.0
0
POINT
8
JETTY_QUAY
10
537094.313
20
710361.825
30
0.0
0
TEXT
8
JETTY_QUAY
10
537100.313
20
710366.825
30
0.0
40
3.0
1
MAG_182
50
0.0
0
TEXT
8
JETTY_QUAY
10
537100.313
20
710358.825
30
0.0
40
2.0
1
M:I B:3 A:3885nT
50
0.0
0
POINT
8
JETTY_QUAY
10
537112.113
20
710356.925
30
0.0
0
TEXT
8
JETTY_QUAY
10
537106.113
20
710361.925
30
0.0
40
3.0
1
MAG_183
50
0.0
0
TEXT
8
JETTY_QUAY
10
537106.113
20
710353.925
30
0.0
40
2.0
1
M:I B:1 A:8122nT
50
0.0
0
POINT
8
STEEL_PILLARS
10
537114.513
20
710377.025
30
0.0
0
TEXT
8
STEEL_PILLARS
10
537114.513
20
710374.025
30
0.0
40
3.0
1
MAG_184
50
0.0
0
TEXT
8
STEEL_PILLARS
10
537114.513
20
710366.025
30
0.0
40
2.0
1
M:H B:1 A:6297nT
50
0.0
0
POINT
8
STEEL_PILLARS
10
537122.813
20
710341.425
30
0.0
0
TEXT
8
STEEL_PILLARS
10
537122.813
20
710354.425
30
0.0
40
3.0
1
MAG_185
50
0.0
0
TEXT
8
STEEL_PILLARS
10
537122.813
20
710346.425
30
0.0
40
2.0
1
M:G B:2 A:2212nT
50
0.0
0
POINT
8
DEBRIS
10
537136.313
20
710366.125
30
0.0
0
TEXT
8
DEBRIS
10
537142.313
20
710371.125
30
0.0
40
3.0
1
MAG_186
50
0.0
0
TEXT
8
DEBRIS
10
537142.313
20
710363.125
30
0.0
40
2.0
1
M:D B:1 A:487nT
50
0.0
0
POINT
8
STEEL_PILLARS
10
537137.713
20
710343.025
30
0.0
0
TEXT
8
STEEL_PILLARS
10
537131.713
20
710348.025
30
0.0
40
3.0
1
MAG_187
50
0.0
0
TEXT
8
STEEL_PILLARS
10
537131.713
20
710340.025
30
0.0
40
2.0
1
M:E B:1 A:310nT
50
0.0
0
POINT
8
DEBRIS
10
537139.913
20
710482.125
30
0.0
0
TEXT
8
DEBRIS
10
537139.913
20
710479.125
30
0.0
40
3.0
1
MAG_188
50
0.0
0
TEXT
8
DEBRIS
10
537139.913
20
710471.125
30
0.0
40
2.0
1
M:F B:1 A:17nT
50
0.0
0
POINT
8
STEEL_PILLARS
10
537148.313
20
710379.225
30
0.0
0
TEXT
8
STEEL_PILLARS
10
537148.313
20
710392.225
30
0.0
40
3.0
1
MAG_189
50
0.0
0
TEXT
8
STEEL_PILLARS
10
537148.313
20
710384.225
30
0.0
40
2.0
1
M:E B:2 A:207nT
50
0.0
0
POINT
8
STEEL_PILLARS
10
537149.913
20
710369.425
30
0.0
0
TEXT
8
STEEL_PILLARS
10
537155.913
20
710374.425
30
0.0
40
3.0
1
MAG_190
50
0.0
0
TEXT
8
STEEL_PILLARS
10
537155.913
20
710366.425
30
0.0
40
2.0
1
M:F B:5 A:286nT
50
0.0
0
POINT
8
DEBRIS
10
537162.696
20
710330.798
30
0.0
0
TEXT
8
DEBRIS
10
537156.696
20
710335.798
30
0.0
40
3.0
1
MAG_191
50
0.0
0
TEXT
8
DEBRIS
10
537156.696
20
710327.798
30
0.0
40
2.0
1
M:B B:1 A:302nT
50
0.0
0
POINT
8
DEBRIS
10
537173.613
20
710350.525
30
0.0
0
TEXT
8
DEBRIS
10
537173.613
20
710347.525
30
0.0
40
3.0
1
MAG_192
50
0.0
0
TEXT
8
DEBRIS
10
537173.613
20
710339.525
30
0.0
40
2.0
1
M:A B:1 A:107nT
50
0.0
0
POINT
8
DEBRIS
10
537184.713
20
710338.125
30
0.0
0
TEXT
8
DEBRIS
10
537184.713
20
710351.125
30
0.0
40
3.0
1
MAG_193
50
0.0
0
TEXT
8
DEBRIS
10
537184.713
20
710343.125
30
0.0
40
2.0
1
M:AA B:1 A:118nT
50
0.0
0
POINT
8
DEBRIS
10
537183.307
20
710328.989
30
0.0
0
TEXT
8
DEBRIS
10
537189.307
20
710333.989
30
0.0
40
3.0
1
MAG_194
50
0.0
0
TEXT
8
DEBRIS
10
537189.307
20
710325.989
30
0.0
40
2.0
1
M:AA B:1 A:118nT
50
0.0
0
POINT
8
DEBRIS
10
537189.331
20
710375.458
30
0.0
0
TEXT
8
DEBRIS
10
537183.331
20
710380.458
30
0.0
40
3.0
1
MAG_195
50
0.0
0
TEXT
8
DEBRIS
10
537183.331
20
710372.458
30
0.0
40
2.0
1
M:B B:1 A:34nT
50
0.0
0
POINT
8
DEBRIS
10
537229.313
20
710326.125
30
0.0
0
TEXT
8
DEBRIS
10
537229.313
20
710323.125
30
0.0
40
3.0
1
MAG_196
50
0.0
0
TEXT
8
DEBRIS
10
537229.313
20
710315.125
30
0.0
40
2.0
1
M:B B:3 A:212nT
50
0.0
0
POINT
8
JETTY_QUAY
10
537250.932
20
710327.676
30
0.0
0
TEXT
8
JETTY_QUAY
10
537250.932
20
710340.676
30
0.0
40
3.0
1
MAG_197
50
0.0
0
TEXT
8
JETTY_QUAY
10
537250.932
20
710332.676
30
0.0
40
2.0
1
M:E B:1 A:1116nT
50
0.0
0
POINT
8
DEBRIS
10
537276.413
20
710340.925
30
0.0
0
TEXT
8
DEBRIS
10
537282.413
20
710345.925
30
0.0
40
3.0
1
MAG_198
50
0.0
0
TEXT
8
DEBRIS
10
537282.413
20
710337.925
30
0.0
40
2.0
1
M:C B:4 A:44nT
50
0.0
0
POINT
8
DEBRIS
10
537308.313
20
710406.525
30
0.0
0
TEXT
8
DEBRIS
10
537302.313
20
710411.525
30
0.0
40
3.0
1
MAG_199
50
0.0
0
TEXT
8
DEBRIS
10
537302.313
20
710403.525
30
0.0
40
2.0
1
M:G B:6 A:13nT
50
0.0
0
POINT
8
DEBRIS
10
537312.713
20
710442.425
30
0.0
0
TEXT
8
DEBRIS
10
537312.713
20
710439.425
30
0.0
40
3.0
1
MAG_200
50
0.0
0
TEXT
8
DEBRIS
10
537312.713
20
710431.425
30
0.0
40
2.0
1
M:H B:1 A:112nT
50
0.0
0
POINT
8
DEBRIS
10
537313.013
20
710337.925
30
0.0
0
TEXT
8
DEBRIS
10
537313.013
20
710350.925
30
0.0
40
3.0
1
MAG_201
50
0.0
0
TEXT
8
DEBRIS
10
537313.013
20
710342.925
30
0.0
40
2.0
1
M:D B:1 A:225nT
50
0.0
0
POINT
8
DEBRIS
10
537312.113
20
710432.325
30
0.0
0
TEXT
8
DEBRIS
10
537318.113
20
710437.325
30
0.0
40
3.0
1
MAG_202
50
0.0
0
TEXT
8
DEBRIS
10
537318.113
20
710429.325
30
0.0
40
2.0
1
M:H B:1 A:152nT
50
0.0
0
POINT
8
DEBRIS
10
537319.913
20
710468.025
30
0.0
0
TEXT
8
DEBRIS
10
537313.913
20
710473.025
30
0.0
40
3.0
1
MAG_203
50
0.0
0
TEXT
8
DEBRIS
10
537313.913
20
710465.025
30
0.0
40
2.0
1
M:H B:1 A:40nT
50
0.0
0
POINT
8
DEBRIS
10
537326.313
20
710439.225
30
0.0
0
TEXT
8
DEBRIS
10
537326.313
20
710436.225
30
0.0
40
3.0
1
MAG_204
50
0.0
0
TEXT
8
DEBRIS
10
537326.313
20
710428.225
30
0.0
40
2.0
1
M:H B:1 A:112nT
50
0.0
0
POINT
8
DEBRIS
10
537338.413
20
710342.925
30
0.0
0
TEXT
8
DEBRIS
10
537338.413
20
710355.925
30
0.0
40
3.0
1
MAG_205
50
0.0
0
TEXT
8
DEBRIS
10
537338.413
20
710347.925
30
0.0
40
2.0
1
M:F B:5 A:14nT
50
0.0
0
POINT
8
DEBRIS
10
537340.113
20
710450.325
30
0.0
0
TEXT
8
DEBRIS
10
537346.113
20
710455.325
30
0.0
40
3.0
1
MAG_206
50
0.0
0
TEXT
8
DEBRIS
10
537346.113
20
710447.325
30
0.0
40
2.0
1
M:H B:1 A:293nT
50
0.0
0
POINT
8
DEBRIS
10
537340.693
20
710326.864
30
0.0
0
TEXT
8
DEBRIS
10
537334.693
20
710331.864
30
0.0
40
3.0
1
MAG_207
50
0.0
0
TEXT
8
DEBRIS
10
537334.693
20
710323.864
30
0.0
40
2.0
1
M:A B:1 A:106nT
50
0.0
0
POINT
8
DEBRIS
10
537372.413
20
710421.525
30
0.0
0
TEXT
8
DEBRIS
10
537372.413
20
710418.525
30
0.0
40
3.0
1
MAG_208
50
0.0
0
TEXT
8
DEBRIS
10
537372.413
20
710410.525
30
0.0
40
2.0
1
M:I B:2 A:932nT
50
0.0
0
POINT
8
JETTY_QUAY
10
537379.013
20
710322.325
30
0.0
0
TEXT
8
JETTY_QUAY
10
537379.013
20
710335.325
30
0.0
40
3.0
1
MAG_209
50
0.0
0
TEXT
8
JETTY_QUAY
10
537379.013
20
710327.325
30
0.0
40
2.0
1
M:H B:1 A:1459nT
50
0.0
0
POINT
8
DEBRIS
10
537387.222
20
710439.453
30
0.0
0
TEXT
8
DEBRIS
10
537393.222
20
710444.453
30
0.0
40
3.0
1
MAG_210
50
0.0
0
TEXT
8
DEBRIS
10
537393.222
20
710436.453
30
0.0
40
2.0
1
M:I B:1 A:932nT
50
0.0
0
POINT
8
DEBRIS
10
537399.413
20
710421.025
30
0.0
0
TEXT
8
DEBRIS
10
537393.413
20
710426.025
30
0.0
40
3.0
1
MAG_211
50
0.0
0
TEXT
8
DEBRIS
10
537393.413
20
710418.025
30
0.0
40
2.0
1
M:I B:1 A:932nT
50
0.0
0
POINT
8
DEBRIS
10
537421.913
20
710405.925
30
0.0
0
TEXT
8
DEBRIS
10
537421.913
20
710402.925
30
0.0
40
3.0
1
MAG_212
50
0.0
0
TEXT
8
DEBRIS
10
537421.913
20
710394.925
30
0.0
40
2.0
1
M:I B:1 A:175nT
50
0.0
0
POINT
8
DEBRIS
10
537437.713
20
710413.125
30
0.0
0
TEXT
8
DEBRIS
10
537437.713
20
710426.125
30
0.0
40
3.0
1
MAG_213
50
0.0
0
TEXT
8
DEBRIS
10
537437.713
20
710418.125
30
0.0
40
2.0
1
M:H B:1 A:142nT
50
0.0
0
POINT
8
DEBRIS
10
537441.713
20
710431.725
30
0.0
0
TEXT
8
DEBRIS
10
537447.713
20
710436.725
30
0.0
40
3.0
1
MAG_214
50
0.0
0
TEXT
8
DEBRIS
10
537447.713
20
710428.725
30
0.0
40
2.0
1
M:G B:1 A:45nT
50
0.0
0
POINT
8
JETTY_QUAY
10
537480.113
20
710403.825
30
0.0
0
TEXT
8
JETTY_QUAY
10
537474.113
20
710408.825
30
0.0
40
3.0
1
MAG_215
50
0.0
0
TEXT
8
JETTY_QUAY
10
537474.113
20
710400.825
30
0.0
40
2.0
1
M:I B:1 A:753nT
50
0.0
0
POINT
8
JETTY_QUAY
10
537476.013
20
710386.425
30
0.0
0
TEXT
8
JETTY_QUAY
10
537476.013
20
710383.425
30
0.0
40
3.0
1
MAG_216
50
0.0
0
TEXT
8
JETTY_QUAY
10
537476.013
20
710375.425
30
0.0
40
2.0
1
M:I B:5 A:783nT
50
0.0
0
POINT
8
JETTY_QUAY
10
537489.413
20
710395.725
30
0.0
0
TEXT
8
JETTY_QUAY
10
537489.413
20
710408.725
30
0.0
40
3.0
1
MAG_217
50
0.0
0
TEXT
8
JETTY_QUAY
10
537489.413
20
710400.725
30
0.0
40
2.0
1
M:I B:1 A:1618nT
50
0.0
0
POINT
8
JETTY_QUAY
10
537517.613
20
710388.225
30
0.0
0
TEXT
8
JETTY_QUAY
10
537523.613
20
710393.225
30
0.0
40
3.0
1
MAG_218
50
0.0
0
TEXT
8
JETTY_QUAY
10
537523.613
20
710385.225
30
0.0
40
2.0
1
M:I B:1 A:1618nT
50
0.0
0
POINT
8
JETTY_QUAY
10
537541.913
20
710404.825
30
0.0
0
TEXT
8
JETTY_QUAY
10
537535.913
20
710409.825
30
0.0
40
3.0
1
MAG_219
50
0.0
0
TEXT
8
JETTY_QUAY
10
537535.913
20
710401.825
30
0.0
40
2.0
1
M:I B:1 A:147nT
50
0.0
0
POINT
8
DEBRIS
10
537566.113
20
710431.925
30
0.0
0
TEXT
8
DEBRIS
10
537566.113
20
710428.925
30
0.0
40
3.0
1
MAG_220
50
0.0
0
TEXT
8
DEBRIS
10
537566.113
20
710420.925
30
0.0
40
2.0
1
M:E B:1 A:51nT
50
0.0
0
POINT
8
JETTY_QUAY
10
537577.813
20
710388.225
30
0.0
0
TEXT
8
JETTY_QUAY
10
537577.813
20
710401.225
30
0.0
40
3.0
1
MAG_221
50
0.0
0
TEXT
8
JETTY_QUAY
10
537577.813
20
710393.225
30
0.0
40
2.0
1
M:I B:1 A:610nT
50
0.0
0
POINT
8
JETTY_QUAY
10
537617.413
20
710423.325
30
0.0
0
TEXT
8
JETTY_QUAY
10
537623.413
20
710428.325
30
0.0
40
3.0
1
MAG_222
50
0.0
0
TEXT
8
JETTY_QUAY
10
537623.413
20
710420.325
30
0.0
40
2.0
1
M:I B:1 A:184nT
50
0.0
0
POINT
8
JETTY_QUAY
10
537632.213
20
710379.025
30
0.0
0
TEXT
8
JETTY_QUAY
10
537626.213
20
710384.025
30
0.0
40
3.0
1
MAG_223
50
0.0
0
TEXT
8
JETTY_QUAY
10
537626.213
20
710376.025
30
0.0
40
2.0
1
M:I B:6 A:142nT
50
0.0
0
POINT
8
JETTY_QUAY
10
537648.113
20
710392.925
30
0.0
0
TEXT
8
JETTY_QUAY
10
537648.113
20
710389.925
30
0.0
40
3.0
1
MAG_224
50
0.0
0
TEXT
8
JETTY_QUAY
10
537648.113
20
710381.925
30
0.0
40
2.0
1
M:I B:1 A:142nT
50
0.0
0
POINT
8
JETTY_QUAY
10
537678.513
20
710372.025
30
0.0
0
TEXT
8
JETTY_QUAY
10
537678.513
20
710385.025
30
0.0
40
3.0
1
MAG_225
50
0.0
0
TEXT
8
JETTY_QUAY
10
537678.513
20
710377.025
30
0.0
40
2.0
1
M:H B:4 A:69nT
50
0.0
0
POINT
8
SSS_TARGETS
10
537317.68
20
710433.64
30
0.0
0
TEXT
8
SSS_TARGETS
10
537322.68
20
710438.64
30
0.0
40
4.0
1
SSS_003
50
0.0
0
TEXT
8
SSS_TARGETS
10
537322.68
20
710428.64
30
0.0
40
2.5
1
Debris in east channel, L:3.84m W:3.35m H:2.68m
50
0.0
0
POINT
8
SSS_TARGETS
10
536666.16
20
710692.54
30
0.0
0
TEXT
8
SSS_TARGETS
10
536671.16
20
710697.54
30
0.0
40
4.0
1
SSS_004
50
0.0
0
TEXT
8
SSS_TARGETS
10
536671.16
20
710687.54
30
0.0
40
2.5
1
Linear Debris 1, L:30m W:0.8m H:0.3m
50
0.0
0
POINT
8
SSS_TARGETS
10
536678.76
20
710681.83
30
0.0
0
TEXT
8
SSS_TARGETS
10
536683.76
20
710686.83
30
0.0
40
4.0
1
SSS_006
50
0.0
0
TEXT
8
SSS_TARGETS
10
536683.76
20
710676.83
30
0.0
40
2.5
1
Linear Debris 2, L:36m W:0.6m H:0.2m
50
0.0
0
POINT
8
SSS_TARGETS
10
536650.0
20
710680.0
30
0.0
0
TEXT
8
SSS_TARGETS
10
536655.0
20
710685.0
30
0.0
40
4.0
1
SSS_007 [POLYGON]
50
0.0
0
TEXT
8
SSS_TARGETS
10
536655.0
20
710675.0
30
0.0
40
2.5
1
Debris Area ~99m x 34m (polygon - see report)
50
0.0
0
POINT
8
SSS_TARGETS
10
536640.93
20
710673.65
30
0.0
0
TEXT
8
SSS_TARGETS
10
536645.93
20
710678.65
30
0.0
40
4.0
1
SSS_009
50
0.0
0
TEXT
8
SSS_TARGETS
10
536645.93
20
710668.65
30
0.0
40
2.5
1
Linear Features, L:28.7m W:9m H:0.33m
50
0.0
0
POINT
8
WRECKS
10
536587.81
20
710600.43
30
0.0
0
TEXT
8
WRECKS
10
536590.81
20
710603.43
30
0.0
40
3.0
1
WRECK_1_MAG_107
50
0.0
0
TEXT
8
WRECKS
10
536590.81
20
710597.43
30
0.0
40
2.0
1
Wreck 1 - MAG_107
50
0.0
0
POINT
8
WRECKS
10
536594.21
20
710570.93
30
0.0
0
TEXT
8
WRECKS
10
536597.21
20
710573.93
30
0.0
40
3.0
1
WRECK_1_MAG_109
50
0.0
0
TEXT
8
WRECKS
10
536597.21
20
710567.93
30
0.0
40
2.0
1
Wreck 1 - MAG_109
50
0.0
0
POINT
8
WRECKS
10
536615.61
20
710554.23
30
0.0
0
TEXT
8
WRECKS
10
536618.61
20
710557.23
30
0.0
40
3.0
1
WRECK_1_MAG_116
50
0.0
0
TEXT
8
WRECKS
10
536618.61
20
710551.23
30
0.0
40
2.0
1
Wreck 1 - MAG_116
50
0.0
0
POINT
8
WRECKS
10
536595.11
20
710511.23
30
0.0
0
TEXT
8
WRECKS
10
536598.11
20
710514.23
30
0.0
40
3.0
1
WRECK_2_MAG_112
50
0.0
0
TEXT
8
WRECKS
10
536598.11
20
710508.23
30
0.0
40
2.0
1
Wreck 2 - MAG_112
50
0.0
0
POINT
8
WRECKS
10
536619.41
20
710499.33
30
0.0
0
TEXT
8
WRECKS
10
536622.41
20
710502.33
30
0.0
40
3.0
1
WRECK_2_MAG_117
50
0.0
0
TEXT
8
WRECKS
10
536622.41
20
710496.33
30
0.0
40
2.0
1
Wreck 2 - MAG_117
50
0.0
0
POINT
8
UNDEFINED_OBJECTS_DETAIL
10
536400.01
20
710622.33
30
0.0
0
TEXT
8
UNDEFINED_OBJECTS_DETAIL
10
536402.01
20
710624.33
30
0.0
40
2.0
1
UNDEF_1_MAG_42
50
0.0
0
TEXT
8
UNDEFINED_OBJECTS_DETAIL
10
536402.01
20
710620.33
30
0.0
40
1.5
1
Undefined Obj 1 - MAG_42
50
0.0
0
POINT
8
UNDEFINED_OBJECTS_DETAIL
10
536404.81
20
710621.19
30
0.0
0
TEXT
8
UNDEFINED_OBJECTS_DETAIL
10
536406.81
20
710623.19
30
0.0
40
2.0
1
UNDEF_1_MAG_44
50
0.0
0
TEXT
8
UNDEFINED_OBJECTS_DETAIL
10
536406.81
20
710619.19
30
0.0
40
1.5
1
Undefined Obj 1 - MAG_44
50
0.0
0
POINT
8
UNDEFINED_OBJECTS_DETAIL
10
536408.74
20
710609.68
30
0.0
0
TEXT
8
UNDEFINED_OBJECTS_DETAIL
10
536410.74
20
710611.68
30
0.0
40
2.0
1
UNDEF_1_MAG_46
50
0.0
0
TEXT
8
UNDEFINED_OBJECTS_DETAIL
10
536410.74
20
710607.68
30
0.0
40
1.5
1
Undefined Obj 1 - MAG_46
50
0.0
0
POINT
8
UNDEFINED_OBJECTS_DETAIL
10
536466.31
20
710636.13
30
0.0
0
TEXT
8
UNDEFINED_OBJECTS_DETAIL
10
536468.31
20
710638.13
30
0.0
40
2.0
1
UNDEF_2_MAG_67
50
0.0
0
TEXT
8
UNDEFINED_OBJECTS_DETAIL
10
536468.31
20
710634.13
30
0.0
40
1.5
1
Undefined Obj 2 - MAG_67
50
0.0
0
POINT
8
UNDEFINED_OBJECTS_DETAIL
10
536477.19
20
710646.73
30
0.0
0
TEXT
8
UNDEFINED_OBJECTS_DETAIL
10
536479.19
20
710648.73
30
0.0
40
2.0
1
UNDEF_2_MAG_69
50
0.0
0
TEXT
8
UNDEFINED_OBJECTS_DETAIL
10
536479.19
20
710644.73
30
0.0
40
1.5
1
Undefined Obj 2 - MAG_69
50
0.0
0
POINT
8
UNDEFINED_OBJECTS_DETAIL
10
536446.31
20
710588.83
30
0.0
0
TEXT
8
UNDEFINED_OBJECTS_DETAIL
10
536448.31
20
710590.83
30
0.0
40
2.0
1
UNDEF_3_MAG_54
50
0.0
0
TEXT
8
UNDEFINED_OBJECTS_DETAIL
10
536448.31
20
710586.83
30
0.0
40
1.5
1
Undefined Obj 3 - MAG_54
50
0.0
0
POINT
8
UNDEFINED_OBJECTS_DETAIL
10
536454.81
20
710555.13
30
0.0
0
TEXT
8
UNDEFINED_OBJECTS_DETAIL
10
536456.81
20
710557.13
30
0.0
40
2.0
1
UNDEF_3_MAG_55
50
0.0
0
TEXT
8
UNDEFINED_OBJECTS_DETAIL
10
536456.81
20
710553.13
30
0.0
40
1.5
1
Undefined Obj 3 - MAG_55
50
0.0
0
POINT
8
UNDEFINED_OBJECTS_DETAIL
10
536459.81
20
710589.93
30
0.0
0
TEXT
8
UNDEFINED_OBJECTS_DETAIL
10
536461.81
20
710591.93
30
0.0
40
2.0
1
UNDEF_3_MAG_61
50
0.0
0
TEXT
8
UNDEFINED_OBJECTS_DETAIL
10
536461.81
20
710587.93
30
0.0
40
1.5
1
Undefined Obj 3 - MAG_61
50
0.0
0
POINT
8
UNDEFINED_OBJECTS_DETAIL
10
536466.51
20
710534.23
30
0.0
0
TEXT
8
UNDEFINED_OBJECTS_DETAIL
10
536468.51
20
710536.23
30
0.0
40
2.0
1
UNDEF_3_MAG_64
50
0.0
0
TEXT
8
UNDEFINED_OBJECTS_DETAIL
10
536468.51
20
710532.23
30
0.0
40
1.5
1
Undefined Obj 3 - MAG_64
50
0.0
0
POINT
8
UNDEFINED_OBJECTS_DETAIL
10
536475.71
20
710554.43
30
0.0
0
TEXT
8
UNDEFINED_OBJECTS_DETAIL
10
536477.71
20
710556.43
30
0.0
40
2.0
1
UNDEF_3_MAG_68
50
0.0
0
TEXT
8
UNDEFINED_OBJECTS_DETAIL
10
536477.71
20
710552.43
30
0.0
40
1.5
1
Undefined Obj 3 - MAG_68
50
0.0
0
POINT
8
UNDEFINED_OBJECTS_DETAIL
10
536489.31
20
710518.13
30
0.0
0
TEXT
8
UNDEFINED_OBJECTS_DETAIL
10
536491.31
20
710520.13
30
0.0
40
2.0
1
UNDEF_3_MAG_72
50
0.0
0
TEXT
8
UNDEFINED_OBJECTS_DETAIL
10
536491.31
20
710516.13
30
0.0
40
1.5
1
Undefined Obj 3 - MAG_72
50
0.0
0
POINT
8
UNDEFINED_OBJECTS_DETAIL
10
536597.11
20
710432.53
30
0.0
0
TEXT
8
UNDEFINED_OBJECTS_DETAIL
10
536599.11
20
710434.53
30
0.0
40
2.0
1
UNDEF_4_MAG_111
50
0.0
0
TEXT
8
UNDEFINED_OBJECTS_DETAIL
10
536599.11
20
710430.53
30
0.0
40
1.5
1
Undefined Obj 4 - MAG_111
50
0.0
0
POINT
8
UNDEFINED_OBJECTS_DETAIL
10
536598.01
20
710418.23
30
0.0
0
TEXT
8
UNDEFINED_OBJECTS_DETAIL
10
536600.01
20
710420.23
30
0.0
40
2.0
1
UNDEF_4_MAG_113
50
0.0
0
TEXT
8
UNDEFINED_OBJECTS_DETAIL
10
536600.01
20
710416.23
30
0.0
40
1.5
1
Undefined Obj 4 - MAG_113
50
0.0
0
POINT
8
UNDEFINED_OBJECTS_DETAIL
10
536618.21
20
710463.23
30
0.0
0
TEXT
8
UNDEFINED_OBJECTS_DETAIL
10
536620.21
20
710465.23
30
0.0
40
2.0
1
UNDEF_4_MAG_119
50
0.0
0
TEXT
8
UNDEFINED_OBJECTS_DETAIL
10
536620.21
20
710461.23
30
0.0
40
1.5
1
Undefined Obj 4 - MAG_119
50
0.0
0
POINT
8
UNDEFINED_OBJECTS_DETAIL
10
536654.11
20
710480.93
30
0.0
0
TEXT
8
UNDEFINED_OBJECTS_DETAIL
10
536656.11
20
710482.93
30
0.0
40
2.0
1
UNDEF_4_MAG_129
50
0.0
0
TEXT
8
UNDEFINED_OBJECTS_DETAIL
10
536656.11
20
710478.93
30
0.0
40
1.5
1
Undefined Obj 4 - MAG_129
50
0.0
0
POINT
8
UNDEFINED_OBJECTS_DETAIL
10
536694.61
20
710413.33
30
0.0
0
TEXT
8
UNDEFINED_OBJECTS_DETAIL
10
536696.61
20
710415.33
30
0.0
40
2.0
1
UNDEF_4_MAG_136
50
0.0
0
TEXT
8
UNDEFINED_OBJECTS_DETAIL
10
536696.61
20
710411.33
30
0.0
40
1.5
1
Undefined Obj 4 - MAG_136
50
0.0
0
POINT
8
UNDEFINED_OBJECTS_DETAIL
10
536703.41
20
710431.73
30
0.0
0
TEXT
8
UNDEFINED_OBJECTS_DETAIL
10
536705.41
20
710433.73
30
0.0
40
2.0
1
UNDEF_4_MAG_138
50
0.0
0
TEXT
8
UNDEFINED_OBJECTS_DETAIL
10
536705.41
20
710429.73
30
0.0
40
1.5
1
Undefined Obj 4 - MAG_138
50
0.0
0
POINT
8
UNDEFINED_OBJECTS_DETAIL
10
536702.61
20
710480.43
30
0.0
0
TEXT
8
UNDEFINED_OBJECTS_DETAIL
10
536704.61
20
710482.43
30
0.0
40
2.0
1
UNDEF_4_MAG_139
50
0.0
0
TEXT
8
UNDEFINED_OBJECTS_DETAIL
10
536704.61
20
710478.43
30
0.0
40
1.5
1
Undefined Obj 4 - MAG_139
50
0.0
0
POINT
8
UNDEFINED_OBJECTS_DETAIL
10
536707.04
20
710497.96
30
0.0
0
TEXT
8
UNDEFINED_OBJECTS_DETAIL
10
536709.04
20
710499.96
30
0.0
40
2.0
1
UNDEF_4_MAG_140
50
0.0
0
TEXT
8
UNDEFINED_OBJECTS_DETAIL
10
536709.04
20
710495.96
30
0.0
40
1.5
1
Undefined Obj 4 - MAG_140
50
0.0
0
POINT
8
UNDEFINED_OBJECTS_DETAIL
10
536719.71
20
710407.03
30
0.0
0
TEXT
8
UNDEFINED_OBJECTS_DETAIL
10
536721.71
20
710409.03
30
0.0
40
2.0
1
UNDEF_4_MAG_142
50
0.0
0
TEXT
8
UNDEFINED_OBJECTS_DETAIL
10
536721.71
20
710405.03
30
0.0
40
1.5
1
Undefined Obj 4 - MAG_142
50
0.0
0
POINT
8
UNDEFINED_OBJECTS_DETAIL
10
536727.31
20
710385.33
30
0.0
0
TEXT
8
UNDEFINED_OBJECTS_DETAIL
10
536729.31
20
710387.33
30
0.0
40
2.0
1
UNDEF_4_MAG_145
50
0.0
0
TEXT
8
UNDEFINED_OBJECTS_DETAIL
10
536729.31
20
710383.33
30
0.0
40
1.5
1
Undefined Obj 4 - MAG_145
50
0.0
0
POINT
8
UNDEFINED_OBJECTS_DETAIL
10
536643.71
20
710414.69
30
0.0
0
TEXT
8
UNDEFINED_OBJECTS_DETAIL
10
536645.71
20
710416.69
30
0.0
40
2.0
1
UNDEF_5_MAG_126
50
0.0
0
TEXT
8
UNDEFINED_OBJECTS_DETAIL
10
536645.71
20
710412.69
30
0.0
40
1.5
1
Undefined Obj 5 - MAG_126
50
0.0
0
POINT
8
UNDEFINED_OBJECTS_DETAIL
10
536662.51
20
710427.83
30
0.0
0
TEXT
8
UNDEFINED_OBJECTS_DETAIL
10
536664.51
20
710429.83
30
0.0
40
2.0
1
UNDEF_5_MAG_130
50
0.0
0
TEXT
8
UNDEFINED_OBJECTS_DETAIL
10
536664.51
20
710425.83
30
0.0
40
1.5
1
Undefined Obj 5 - MAG_130
50
0.0
0
POINT
8
UNDEFINED_OBJECTS_DETAIL
10
536763.41
20
710457.03
30
0.0
0
TEXT
8
UNDEFINED_OBJECTS_DETAIL
10
536765.41
20
710459.03
30
0.0
40
2.0
1
UNDEF_6_MAG_151
50
0.0
0
TEXT
8
UNDEFINED_OBJECTS_DETAIL
10
536765.41
20
710455.03
30
0.0
40
1.5
1
Undefined Obj 6 - MAG_151
50
0.0
0
POINT
8
UNDEFINED_OBJECTS_DETAIL
10
536766.91
20
710478.93
30
0.0
0
TEXT
8
UNDEFINED_OBJECTS_DETAIL
10
536768.91
20
710480.93
30
0.0
40
2.0
1
UNDEF_6_MAG_152
50
0.0
0
TEXT
8
UNDEFINED_OBJECTS_DETAIL
10
536768.91
20
710476.93
30
0.0
40
1.5
1
Undefined Obj 6 - MAG_152
50
0.0
0
POINT
8
LINEAR_DEBRIS
10
536666.16
20
710692.54
30
0.0
0
TEXT
8
LINEAR_DEBRIS
10
536669.16
20
710695.54
30
0.0
40
3.0
1
LINEAR_1_SSS_004
50
0.0
0
TEXT
8
LINEAR_DEBRIS
10
536669.16
20
710689.54
30
0.0
40
2.0
1
Linear Debris 1 - SSS_004 + MAG_132
50
0.0
0
POINT
8
LINEAR_DEBRIS
10
536678.76
20
710681.83
30
0.0
0
TEXT
8
LINEAR_DEBRIS
10
536681.76
20
710684.83
30
0.0
40
3.0
1
LINEAR_2_SSS_006
50
0.0
0
TEXT
8
LINEAR_DEBRIS
10
536681.76
20
710678.83
30
0.0
40
2.0
1
Linear Debris 2 - SSS_006 + MAG_135
50
0.0
0
POINT
8
LINEAR_DEBRIS
10
536492.81
20
710695.73
30
0.0
0
TEXT
8
LINEAR_DEBRIS
10
536495.81
20
710698.73
30
0.0
40
3.0
1
LINEAR_3_MAG_73
50
0.0
0
TEXT
8
LINEAR_DEBRIS
10
536495.81
20
710692.73
30
0.0
40
2.0
1
Linear Debris 3 buried - MAG_73
50
0.0
0
POINT
8
LINEAR_DEBRIS
10
536510.61
20
710703.43
30
0.0
0
TEXT
8
LINEAR_DEBRIS
10
536513.61
20
710706.43
30
0.0
40
3.0
1
LINEAR_3_MAG_77
50
0.0
0
TEXT
8
LINEAR_DEBRIS
10
536513.61
20
710700.43
30
0.0
40
2.0
1
Linear Debris 3 buried - MAG_77
50
0.0
0
POINT
8
LINEAR_DEBRIS
10
536521.41
20
710661.13
30
0.0
0
TEXT
8
LINEAR_DEBRIS
10
536524.41
20
710664.13
30
0.0
40
3.0
1
LINEAR_4_MAG_83
50
0.0
0
TEXT
8
LINEAR_DEBRIS
10
536524.41
20
710658.13
30
0.0
40
2.0
1
Linear Debris 4 buried - MAG_83
50
0.0
0
POINT
8
LINEAR_DEBRIS
10
536542.61
20
710670.63
30
0.0
0
TEXT
8
LINEAR_DEBRIS
10
536545.61
20
710673.63
30
0.0
40
3.0
1
LINEAR_4_MAG_94
50
0.0
0
TEXT
8
LINEAR_DEBRIS
10
536545.61
20
710667.63
30
0.0
40
2.0
1
Linear Debris 4 buried - MAG_94
50
0.0
0
POINT
8
OUTCROPPING
10
536404.52
20
710617.73
30
0.0
0
TEXT
8
OUTCROPPING
10
536409.52
20
710622.73
30
0.0
40
4.0
1
CONCRETE_SLAB
50
0.0
0
TEXT
8
OUTCROPPING
10
536409.52
20
710612.73
30
0.0
40
2.5
1
ESTIMATED - Reinforced concrete slab (western area)
50
0.0
0
POINT
8
OUTCROPPING
10
536405.56
20
710494.4
30
0.0
0
TEXT
8
OUTCROPPING
10
536410.56
20
710499.4
30
0.0
40
4.0
1
ABANDONED_JETTY
50
0.0
0
TEXT
8
OUTCROPPING
10
536410.56
20
710489.4
30
0.0
40
2.5
1
ESTIMATED - Abandoned jetty (southwestern area)
50
0.0
0
POINT
8
OUTCROPPING
10
537114.51
20
710377.03
30
0.0
0
TEXT
8
OUTCROPPING
10
537119.51
20
710382.03
30
0.0
40
4.0
1
STEEL_PILLARS
50
0.0
0
TEXT
8
OUTCROPPING
10
537119.51
20
710372.03
30
0.0
40
2.5
1
ESTIMATED - Steel pillars zone (southeastern area)
50
0.0
0
ENDSEC
0
EOF
