0
SECTION
2
HEADER
9
$ACADVER
1
AC1009
0
ENDSEC
0
SECTION
2
TABLES
0
TABLE
2
LAYER
70
10
0
LAYER
2
WRECKS
70
0
62
1
6
CONTINUOUS
0
LAYER
2
UNDEFINED_OBJECTS
70
0
62
2
6
CONTINUOUS
0
LAYER
2
LINEAR_DEBRIS
70
0
62
3
6
CONTINUOUS
0
LAYER
2
DEBRIS_AREA
70
0
62
4
6
CONTINUOUS
0
LAYER
2
OUTCROPPING
70
0
62
5
6
CONTINUOUS
0
LAYER
2
MAG_TARGETS
70
0
62
6
6
CONTINUOUS
0
ENDTAB
0
ENDSEC
0
SECTION
2
ENTITIES
0
TEXT
8
WRECKS
10
536587.81
20
710600.43
30
0.0
40
5.0
1
Wreck 1 - MAG_107
50
0.0
0
TEXT
8
WRECKS
10
536594.21
20
710570.93
30
0.0
40
5.0
1
Wreck 1 - MAG_109
50
0.0
0
TEXT
8
WRECKS
10
536615.61
20
710554.23
30
0.0
40
5.0
1
Wreck 1 - MAG_116
50
0.0
0
TEXT
8
WRECKS
10
536595.11
20
710511.23
30
0.0
40
5.0
1
Wreck 2 - MAG_112
50
0.0
0
TEXT
8
WRECKS
10
536619.41
20
710499.33
30
0.0
40
5.0
1
Wreck 2 - MAG_117
50
0.0
0
POINT
8
WRECKS
10
536587.81
20
710600.43
30
0.0
0
POINT
8
WRECKS
10
536594.21
20
710570.93
30
0.0
0
POINT
8
WRECKS
10
536615.61
20
710554.23
30
0.0
0
POINT
8
WRECKS
10
536595.11
20
710511.23
30
0.0
0
POINT
8
WRECKS
10
536619.41
20
710499.33
30
0.0
0
TEXT
8
UNDEFINED_OBJECTS
10
536400.01
20
710622.33
30
0.0
40
3.0
1
Undef.Obj.1 - MAG_42
50
0.0
0
TEXT
8
UNDEFINED_OBJECTS
10
536404.81
20
710621.19
30
0.0
40
3.0
1
Undef.Obj.1 - MAG_44
50
0.0
0
TEXT
8
UNDEFINED_OBJECTS
10
536408.74
20
710609.68
30
0.0
40
3.0
1
Undef.Obj.1 - MAG_46
50
0.0
0
TEXT
8
UNDEFINED_OBJECTS
10
536466.31
20
710636.13
30
0.0
40
3.0
1
Undef.Obj.2 - MAG_67
50
0.0
0
TEXT
8
UNDEFINED_OBJECTS
10
536477.19
20
710646.73
30
0.0
40
3.0
1
Undef.Obj.2 - MAG_69
50
0.0
0
TEXT
8
UNDEFINED_OBJECTS
10
536446.31
20
710588.83
30
0.0
40
3.0
1
Undef.Obj.3 - MAG_54
50
0.0
0
TEXT
8
UNDEFINED_OBJECTS
10
536454.81
20
710555.13
30
0.0
40
3.0
1
Undef.Obj.3 - MAG_55
50
0.0
0
TEXT
8
UNDEFINED_OBJECTS
10
536459.81
20
710589.93
30
0.0
40
3.0
1
Undef.Obj.3 - MAG_61
50
0.0
0
TEXT
8
UNDEFINED_OBJECTS
10
536466.51
20
710534.23
30
0.0
40
3.0
1
Undef.Obj.3 - MAG_64
50
0.0
0
TEXT
8
UNDEFINED_OBJECTS
10
536475.71
20
710554.43
30
0.0
40
3.0
1
Undef.Obj.3 - MAG_68
50
0.0
0
TEXT
8
UNDEFINED_OBJECTS
10
536489.31
20
710518.13
30
0.0
40
3.0
1
Undef.Obj.3 - MAG_72
50
0.0
0
TEXT
8
UNDEFINED_OBJECTS
10
536597.11
20
710432.53
30
0.0
40
3.0
1
Undef.Obj.4 - MAG_111
50
0.0
0
TEXT
8
UNDEFINED_OBJECTS
10
536598.01
20
710418.23
30
0.0
40
3.0
1
Undef.Obj.4 - MAG_113
50
0.0
0
TEXT
8
UNDEFINED_OBJECTS
10
536618.21
20
710463.23
30
0.0
40
3.0
1
Undef.Obj.4 - MAG_119
50
0.0
0
TEXT
8
UNDEFINED_OBJECTS
10
536654.11
20
710480.93
30
0.0
40
3.0
1
Undef.Obj.4 - MAG_129
50
0.0
0
TEXT
8
UNDEFINED_OBJECTS
10
536694.61
20
710413.33
30
0.0
40
3.0
1
Undef.Obj.4 - MAG_136
50
0.0
0
TEXT
8
UNDEFINED_OBJECTS
10
536703.41
20
710431.73
30
0.0
40
3.0
1
Undef.Obj.4 - MAG_138
50
0.0
0
TEXT
8
UNDEFINED_OBJECTS
10
536702.61
20
710480.43
30
0.0
40
3.0
1
Undef.Obj.4 - MAG_139
50
0.0
0
TEXT
8
UNDEFINED_OBJECTS
10
536707.04
20
710497.96
30
0.0
40
3.0
1
Undef.Obj.4 - MAG_140
50
0.0
0
TEXT
8
UNDEFINED_OBJECTS
10
536719.71
20
710407.03
30
0.0
40
3.0
1
Undef.Obj.4 - MAG_142
50
0.0
0
TEXT
8
UNDEFINED_OBJECTS
10
536727.31
20
710385.33
30
0.0
40
3.0
1
Undef.Obj.4 - MAG_145
50
0.0
0
TEXT
8
UNDEFINED_OBJECTS
10
536643.71
20
710414.69
30
0.0
40
3.0
1
Undef.Obj.5 - MAG_126
50
0.0
0
TEXT
8
UNDEFINED_OBJECTS
10
536662.51
20
710427.83
30
0.0
40
3.0
1
Undef.Obj.5 - MAG_130
50
0.0
0
TEXT
8
UNDEFINED_OBJECTS
10
536763.41
20
710457.03
30
0.0
40
3.0
1
Undef.Obj.6 - MAG_151
50
0.0
0
TEXT
8
UNDEFINED_OBJECTS
10
536766.91
20
710478.93
30
0.0
40
3.0
1
Undef.Obj.6 - MAG_152
50
0.0
0
POINT
8
UNDEFINED_OBJECTS
10
536400.01
20
710622.33
30
0.0
0
POINT
8
UNDEFINED_OBJECTS
10
536404.81
20
710621.19
30
0.0
0
POINT
8
UNDEFINED_OBJECTS
10
536408.74
20
710609.68
30
0.0
0
POINT
8
UNDEFINED_OBJECTS
10
536466.31
20
710636.13
30
0.0
0
POINT
8
UNDEFINED_OBJECTS
10
536477.19
20
710646.73
30
0.0
0
POINT
8
UNDEFINED_OBJECTS
10
536446.31
20
710588.83
30
0.0
0
POINT
8
UNDEFINED_OBJECTS
10
536454.81
20
710555.13
30
0.0
0
POINT
8
UNDEFINED_OBJECTS
10
536459.81
20
710589.93
30
0.0
0
POINT
8
UNDEFINED_OBJECTS
10
536466.51
20
710534.23
30
0.0
0
POINT
8
UNDEFINED_OBJECTS
10
536475.71
20
710554.43
30
0.0
0
POINT
8
UNDEFINED_OBJECTS
10
536489.31
20
710518.13
30
0.0
0
POINT
8
UNDEFINED_OBJECTS
10
536597.11
20
710432.53
30
0.0
0
POINT
8
UNDEFINED_OBJECTS
10
536598.01
20
710418.23
30
0.0
0
POINT
8
UNDEFINED_OBJECTS
10
536618.21
20
710463.23
30
0.0
0
POINT
8
UNDEFINED_OBJECTS
10
536654.11
20
710480.93
30
0.0
0
POINT
8
UNDEFINED_OBJECTS
10
536694.61
20
710413.33
30
0.0
0
POINT
8
UNDEFINED_OBJECTS
10
536703.41
20
710431.73
30
0.0
0
POINT
8
UNDEFINED_OBJECTS
10
536702.61
20
710480.43
30
0.0
0
POINT
8
UNDEFINED_OBJECTS
10
536707.04
20
710497.96
30
0.0
0
POINT
8
UNDEFINED_OBJECTS
10
536719.71
20
710407.03
30
0.0
0
POINT
8
UNDEFINED_OBJECTS
10
536727.31
20
710385.33
30
0.0
0
POINT
8
UNDEFINED_OBJECTS
10
536643.71
20
710414.69
30
0.0
0
POINT
8
UNDEFINED_OBJECTS
10
536662.51
20
710427.83
30
0.0
0
POINT
8
UNDEFINED_OBJECTS
10
536763.41
20
710457.03
30
0.0
0
POINT
8
UNDEFINED_OBJECTS
10
536766.91
20
710478.93
30
0.0
0
TEXT
8
LINEAR_DEBRIS
10
536666.16
20
710692.54
30
0.0
40
4.0
1
Linear Debris 1 - SSS_004/MAG_132 - L:30m W:0.8m H:0.3m
50
0.0
0
TEXT
8
LINEAR_DEBRIS
10
536678.76
20
710681.83
30
0.0
40
4.0
1
Linear Debris 2 - SSS_006/MAG_135 - L:36m W:0.6m H:0.2m
50
0.0
0
TEXT
8
LINEAR_DEBRIS
10
536492.81
20
710695.73
30
0.0
40
4.0
1
Linear Debris 3 (buried) - MAG_73 - Magnetic anomaly
50
0.0
0
TEXT
8
LINEAR_DEBRIS
10
536510.61
20
710703.43
30
0.0
40
4.0
1
Linear Debris 3 (buried) - MAG_77 - Magnetic anomaly
50
0.0
0
TEXT
8
LINEAR_DEBRIS
10
536521.41
20
710661.13
30
0.0
40
4.0
1
Linear Debris 4 (buried) - MAG_83 - Magnetic anomaly
50
0.0
0
TEXT
8
LINEAR_DEBRIS
10
536542.61
20
710670.63
30
0.0
40
4.0
1
Linear Debris 4 (buried) - MAG_94 - Magnetic anomaly
50
0.0
0
POINT
8
LINEAR_DEBRIS
10
536666.16
20
710692.54
30
0.0
0
POINT
8
LINEAR_DEBRIS
10
536678.76
20
710681.83
30
0.0
0
POINT
8
LINEAR_DEBRIS
10
536492.81
20
710695.73
30
0.0
0
POINT
8
LINEAR_DEBRIS
10
536510.61
20
710703.43
30
0.0
0
POINT
8
LINEAR_DEBRIS
10
536521.41
20
710661.13
30
0.0
0
POINT
8
LINEAR_DEBRIS
10
536542.61
20
710670.63
30
0.0
0
TEXT
8
DEBRIS_AREA
10
537317.68
20
710433.64
30
0.0
40
4.0
1
SSS_003 - Debris - L:3.84m W:3.35m H:2.68m
50
0.0
0
TEXT
8
DEBRIS_AREA
10
536640.93
20
710673.65
30
0.0
40
4.0
1
SSS_009 - Linear Features - L:28.7m W:9m H:0.33m
50
0.0
0
POINT
8
DEBRIS_AREA
10
537317.68
20
710433.64
30
0.0
0
POINT
8
DEBRIS_AREA
10
536640.93
20
710673.65
30
0.0
0
TEXT
8
OUTCROPPING
10
536400.00
20
710620.00
30
0.0
40
5.0
1
Outcropping reinforced concrete slab (western area)
50
0.0
0
TEXT
8
OUTCROPPING
10
536450.00
20
710580.00
30
0.0
40
5.0
1
Abandoned jetty (southwestern area)
50
0.0
0
TEXT
8
OUTCROPPING
10
536700.00
20
710550.00
30
0.0
40
5.0
1
Zone with steel pillars (southeastern area)
50
0.0
0
POINT
8
OUTCROPPING
10
536400.00
20
710620.00
30
0.0
0
POINT
8
OUTCROPPING
10
536450.00
20
710580.00
30
0.0
0
POINT
8
OUTCROPPING
10
536700.00
20
710550.00
30
0.0
0
ENDSEC
0
EOF
