0
SECTION
2
HEADER
0
ENDSEC
0
SECTION
2
TABLES
0
TABLE
2
LAYER
70
20
0
LAYER
2
LEGEND_WRECKS
70
0
62
1
6
CONTINUOUS
0
LAYER
2
LEGEND_DEBRIS
70
0
62
30
6
CONTINUOUS
0
LAYER
2
LEGEND_UNDEF_CONST
70
0
62
5
6
CONTINUOUS
0
LAYER
2
LEGEND_UNDEF_OBJ
70
0
62
6
6
CONTINUOUS
0
LAYER
2
LEGEND_JETTY
70
0
62
2
6
CONTINUOUS
0
LAYER
2
LEGEND_STEEL
70
0
62
4
6
CONTINUOUS
0
LAYER
2
LEGEND_VESSEL
70
0
62
3
6
CONTINUOUS
0
LAYER
2
LEGEND_BUOY
70
0
62
150
6
CONTINUOUS
0
LAYER
2
LEGEND_SSS
70
0
62
160
6
CONTINUOUS
0
LAYER
2
LEGEND_OUTCROP
70
0
62
140
6
CONTINUOUS
0
LAYER
2
LEGEND_TITLE
70
0
62
7
6
CONTINUOUS
0
LAYER
2
LEGEND_BOX
70
0
62
8
6
CONTINUOUS
0
ENDTAB
0
ENDSEC
0
SECTION
2
ENTITIES
0
TEXT
8
LEGEND_TITLE
10
100.0
20
500.0
30
0.0
40
7.0
1
SNAKE ISLAND GEOPHYSICAL SURVEY
50
0.0
0
TEXT
8
LEGEND_TITLE
10
100.0
20
488.0
30
0.0
40
4.0
1
Legend - G-TEC Report 6356 (May 2026)
50
0.0
0
LINE
8
LEGEND_BOX
10
80.0
20
520.0
30
0.0
11
350.0
21
520.0
31
0.0
0
LINE
8
LEGEND_BOX
10
350.0
20
520.0
30
0.0
11
350.0
21
200.0
31
0.0
0
LINE
8
LEGEND_BOX
10
350.0
20
200.0
30
0.0
11
80.0
21
200.0
31
0.0
0
LINE
8
LEGEND_BOX
10
80.0
20
200.0
30
0.0
11
80.0
21
520.0
31
0.0
0
LINE
8
LEGEND_WRECKS
10
100.0
20
463
30
0.0
11
120.0
21
463
31
0.0
0
LINE
8
LEGEND_WRECKS
10
120.0
20
463
30
0.0
11
120.0
21
457
31
0.0
0
LINE
8
LEGEND_WRECKS
10
120.0
20
457
30
0.0
11
100.0
21
457
31
0.0
0
LINE
8
LEGEND_WRECKS
10
100.0
20
457
30
0.0
11
100.0
21
463
31
0.0
0
TEXT
8
LEGEND_TITLE
10
125.0
20
460
30
0.0
40
3.0
1
WRECKS - Possible wrecks (11)
50
0.0
0
LINE
8
LEGEND_DEBRIS
10
100.0
20
438
30
0.0
11
120.0
21
438
31
0.0
0
LINE
8
LEGEND_DEBRIS
10
120.0
20
438
30
0.0
11
120.0
21
432
31
0.0
0
LINE
8
LEGEND_DEBRIS
10
120.0
20
432
30
0.0
11
100.0
21
432
31
0.0
0
LINE
8
LEGEND_DEBRIS
10
100.0
20
432
30
0.0
11
100.0
21
438
31
0.0
0
TEXT
8
LEGEND_TITLE
10
125.0
20
435
30
0.0
40
3.0
1
DEBRIS - Possible debris (147)
50
0.0
0
LINE
8
LEGEND_UNDEF_CONST
10
100.0
20
413
30
0.0
11
120.0
21
413
31
0.0
0
LINE
8
LEGEND_UNDEF_CONST
10
120.0
20
413
30
0.0
11
120.0
21
407
31
0.0
0
LINE
8
LEGEND_UNDEF_CONST
10
120.0
20
407
30
0.0
11
100.0
21
407
31
0.0
0
LINE
8
LEGEND_UNDEF_CONST
10
100.0
20
407
30
0.0
11
100.0
21
413
31
0.0
0
TEXT
8
LEGEND_TITLE
10
125.0
20
410
30
0.0
40
3.0
1
UNDEFINED_CONSTRUCTION - Remnants (38)
50
0.0
0
LINE
8
LEGEND_UNDEF_OBJ
10
100.0
20
388
30
0.0
11
120.0
21
388
31
0.0
0
LINE
8
LEGEND_UNDEF_OBJ
10
120.0
20
388
30
0.0
11
120.0
21
382
31
0.0
0
LINE
8
LEGEND_UNDEF_OBJ
10
120.0
20
382
30
0.0
11
100.0
21
382
31
0.0
0
LINE
8
LEGEND_UNDEF_OBJ
10
100.0
20
382
30
0.0
11
100.0
21
388
31
0.0
0
TEXT
8
LEGEND_TITLE
10
125.0
20
385
30
0.0
40
3.0
1
UNDEFINED_OBJECTS - Unknown (7)
50
0.0
0
LINE
8
LEGEND_JETTY
10
100.0
20
363
30
0.0
11
120.0
21
363
31
0.0
0
LINE
8
LEGEND_JETTY
10
120.0
20
363
30
0.0
11
120.0
21
357
31
0.0
0
LINE
8
LEGEND_JETTY
10
120.0
20
357
30
0.0
11
100.0
21
357
31
0.0
0
LINE
8
LEGEND_JETTY
10
100.0
20
357
30
0.0
11
100.0
21
363
31
0.0
0
TEXT
8
LEGEND_TITLE
10
125.0
20
360
30
0.0
40
3.0
1
JETTY_QUAY - Infrastructure (15)
50
0.0
0
LINE
8
LEGEND_STEEL
10
100.0
20
338
30
0.0
11
120.0
21
338
31
0.0
0
LINE
8
LEGEND_STEEL
10
120.0
20
338
30
0.0
11
120.0
21
332
31
0.0
0
LINE
8
LEGEND_STEEL
10
120.0
20
332
30
0.0
11
100.0
21
332
31
0.0
0
LINE
8
LEGEND_STEEL
10
100.0
20
332
30
0.0
11
100.0
21
338
31
0.0
0
TEXT
8
LEGEND_TITLE
10
125.0
20
335
30
0.0
40
3.0
1
STEEL_PILLARS - Steel pillars (5)
50
0.0
0
LINE
8
LEGEND_VESSEL
10
100.0
20
313
30
0.0
11
120.0
21
313
31
0.0
0
LINE
8
LEGEND_VESSEL
10
120.0
20
313
30
0.0
11
120.0
21
307
31
0.0
0
LINE
8
LEGEND_VESSEL
10
120.0
20
307
30
0.0
11
100.0
21
307
31
0.0
0
LINE
8
LEGEND_VESSEL
10
100.0
20
307
30
0.0
11
100.0
21
313
31
0.0
0
TEXT
8
LEGEND_TITLE
10
125.0
20
310
30
0.0
40
3.0
1
VESSEL_SIGNATURES - At quay (11)
50
0.0
0
LINE
8
LEGEND_BUOY
10
100.0
20
288
30
0.0
11
120.0
21
288
31
0.0
0
LINE
8
LEGEND_BUOY
10
120.0
20
288
30
0.0
11
120.0
21
282
31
0.0
0
LINE
8
LEGEND_BUOY
10
120.0
20
282
30
0.0
11
100.0
21
282
31
0.0
0
LINE
8
LEGEND_BUOY
10
100.0
20
282
30
0.0
11
100.0
21
288
31
0.0
0
TEXT
8
LEGEND_TITLE
10
125.0
20
285
30
0.0
40
3.0
1
NAVIGATION_BUOY - Buoy (1)
50
0.0
0
LINE
8
LEGEND_SSS
10
100.0
20
263
30
0.0
11
120.0
21
263
31
0.0
0
LINE
8
LEGEND_SSS
10
120.0
20
263
30
0.0
11
120.0
21
257
31
0.0
0
LINE
8
LEGEND_SSS
10
120.0
20
257
30
0.0
11
100.0
21
257
31
0.0
0
LINE
8
LEGEND_SSS
10
100.0
20
257
30
0.0
11
100.0
21
263
31
0.0
0
TEXT
8
LEGEND_TITLE
10
125.0
20
260
30
0.0
40
3.0
1
SSS_TARGETS - Side-scan sonar (4)
50
0.0
0
LINE
8
LEGEND_OUTCROP
10
100.0
20
238
30
0.0
11
120.0
21
238
31
0.0
0
LINE
8
LEGEND_OUTCROP
10
120.0
20
238
30
0.0
11
120.0
21
232
31
0.0
0
LINE
8
LEGEND_OUTCROP
10
120.0
20
232
30
0.0
11
100.0
21
232
31
0.0
0
LINE
8
LEGEND_OUTCROP
10
100.0
20
232
30
0.0
11
100.0
21
238
31
0.0
0
TEXT
8
LEGEND_TITLE
10
125.0
20
235
30
0.0
40
3.0
1
OUTCROPPING - Structures (3)
50
0.0
0
TEXT
8
LEGEND_TITLE
10
100.0
20
218.0
30
0.0
40
3.0
1
Survey Info:
50
0.0
0
TEXT
8
LEGEND_TITLE
10
100.0
20
208
30
0.0
40
2.2
1
Project: Snake Island - Geophysical Survey
50
0.0
0
TEXT
8
LEGEND_TITLE
10
100.0
20
198
30
0.0
40
2.2
1
Contractor: G-TEC S.A.
50
0.0
0
TEXT
8
LEGEND_TITLE
10
100.0
20
188
30
0.0
40
2.2
1
Client: Novadeal
50
0.0
0
TEXT
8
LEGEND_TITLE
10
100.0
20
178
30
0.0
40
2.2
1
Date: May 2026
50
0.0
0
TEXT
8
LEGEND_TITLE
10
100.0
20
168
30
0.0
40
2.2
1
Location: Apapa Port, Lagos, Nigeria
50
0.0
0
TEXT
8
LEGEND_TITLE
10
100.0
20
158
30
0.0
40
2.2
1
Projection: Lagos Minna
50
0.0
0
TEXT
8
LEGEND_TITLE
10
100.0
20
148
30
0.0
40
2.2
1
Vertical: MSL
50
0.0
0
TEXT
8
LEGEND_TITLE
10
100.0
20
138
30
0.0
40
2.2
1
Total MAG Targets: 225
50
0.0
0
TEXT
8
LEGEND_TITLE
10
100.0
20
128
30
0.0
40
2.2
1
Total SSS Targets: 4
50
0.0
0
TEXT
8
LEGEND_TITLE
10
100.0
20
118
30
0.0
40
2.2
1
Outcropping Structures: 3
50
0.0
0
ENDSEC
0
EOF
