0
SECTION
2
HEADER
9

1
AC1009
0
ENDSEC
0
SECTION
2
TABLES
0
TABLE
2
LAYER
70
30
0
LAYER
2
WRECKS
70
0
62
1
6
CONTINUOUS
0
LAYER
2
DEBRIS
70
0
62
2
6
CONTINUOUS
0
LAYER
2
UNDEFINED_CONSTRUCTION
70
0
62
3
6
CONTINUOUS
0
LAYER
2
UNDEFINED_OBJECTS
70
0
62
4
6
CONTINUOUS
0
LAYER
2
JETTY_QUAY
70
0
62
5
6
CONTINUOUS
0
LAYER
2
STEEL_PILLARS
70
0
62
6
6
CONTINUOUS
0
LAYER
2
VESSEL_SIGNATURES
70
0
62
7
6
CONTINUOUS
0
LAYER
2
NAVIGATION_BUOY
70
0
62
30
6
CONTINUOUS
0
LAYER
2
MASS_AAA_AA_A_B
70
0
62
150
6
CONTINUOUS
0
LAYER
2
MASS_C_D_E
70
0
62
160
6
CONTINUOUS
0
LAYER
2
MASS_F_G
70
0
62
170
6
CONTINUOUS
0
LAYER
2
MASS_H_I
70
0
62
180
6
CONTINUOUS
0
LAYER
2
BURIAL_SHALLOW_1_2
70
0
62
40
6
CONTINUOUS
0
LAYER
2
BURIAL_MEDIUM_3_4
70
0
62
50
6
CONTINUOUS
0
LAYER
2
BURIAL_DEEP_5_6
70
0
62
60
6
CONTINUOUS
0
LAYER
2
ANOMALY_LOW
70
0
62
82
6
CONTINUOUS
0
LAYER
2
ANOMALY_MEDIUM
70
0
62
83
6
CONTINUOUS
0
LAYER
2
ANOMALY_HIGH
70
0
62
84
6
CONTINUOUS
0
LAYER
2
ANOMALY_EXTREME
70
0
62
85
6
CONTINUOUS
0
LAYER
2
DEPTH_SHALLOW
70
0
62
120
6
CONTINUOUS
0
LAYER
2
DEPTH_MEDIUM
70
0
62
130
6
CONTINUOUS
0
LAYER
2
DEPTH_DEEP
70
0
62
140
6
CONTINUOUS
0
LAYER
2
SSS_TARGETS
70
0
62
210
6
CONTINUOUS
0
LAYER
2
OUTCROPPING
70
0
62
230
6
CONTINUOUS
0
ENDTAB
0
ENDSEC
0
SECTION
2
ENTITIES
0
POINT
8
DEBRIS
10
536276.813
20
710940.325
30
0.0
0
TEXT
8
DEBRIS
10
536278.813
20
710942.325
30
0.0
40
2.5
1
MAG_001
50
0.0
0
TEXT
8
DEBRIS
10
536278.813
20
710937.325
30
0.0
40
1.5
1
M:E B:3 A:182nT D:-2.5m
50
0.0
0
POINT
8
DEBRIS
10
536284.713
20
710926.825
30
0.0
0
TEXT
8
DEBRIS
10
536286.713
20
710928.825
30
0.0
40
2.5
1
MAG_002
50
0.0
0
TEXT
8
DEBRIS
10
536286.713
20
710923.825
30
0.0
40
1.5
1
M:AA B:1 A:214nT D:-1.0m
50
0.0
0
POINT
8
DEBRIS
10
536296.813
20
710774.225
30
0.0
0
TEXT
8
DEBRIS
10
536298.813
20
710776.225
30
0.0
40
2.5
1
MAG_003
50
0.0
0
TEXT
8
DEBRIS
10
536298.813
20
710771.225
30
0.0
40
1.5
1
M:G B:5 A:506nT D:-0.9m
50
0.0
0
POINT
8
UNDEFINED_CONSTRUCTION
10
536298.663
20
710844.175
30
0.0
0
TEXT
8
UNDEFINED_CONSTRUCTION
10
536300.663
20
710846.175
30
0.0
40
2.5
1
MAG_004
50
0.0
0
TEXT
8
UNDEFINED_CONSTRUCTION
10
536300.663
20
710841.175
30
0.0
40
1.5
1
M:E B:1 A:1448nT D:-1.9m
50
0.0
0
POINT
8
DEBRIS
10
536302.913
20
710797.925
30
0.0
0
TEXT
8
DEBRIS
10
536304.913
20
710799.925
30
0.0
40
2.5
1
MAG_005
50
0.0
0
TEXT
8
DEBRIS
10
536304.913
20
710794.925
30
0.0
40
1.5
1
M:I B:6 A:988nT D:-1.2m
50
0.0
0
POINT
8
DEBRIS
10
536306.313
20
710728.525
30
0.0
0
TEXT
8
DEBRIS
10
536308.313
20
710730.525
30
0.0
40
2.5
1
MAG_006
50
0.0
0
TEXT
8
DEBRIS
10
536308.313
20
710725.525
30
0.0
40
1.5
1
M:I B:6 A:2392nT D:-0.7m
50
0.0
0
POINT
8
UNDEFINED_CONSTRUCTION
10
536310.5
20
710834.1
30
0.0
0
TEXT
8
UNDEFINED_CONSTRUCTION
10
536312.5
20
710836.1
30
0.0
40
2.5
1
MAG_007
50
0.0
0
TEXT
8
UNDEFINED_CONSTRUCTION
10
536312.5
20
710831.1
30
0.0
40
1.5
1
M:I B:6 A:5114nT D:-1.4m
50
0.0
0
POINT
8
UNDEFINED_CONSTRUCTION
10
536317.334
20
710851.816
30
0.0
0
TEXT
8
UNDEFINED_CONSTRUCTION
10
536319.334
20
710853.816
30
0.0
40
2.5
1
MAG_008
50
0.0
0
TEXT
8
UNDEFINED_CONSTRUCTION
10
536319.334
20
710848.816
30
0.0
40
1.5
1
M:G B:1 A:2581nT D:-2.5m
50
0.0
0
POINT
8
UNDEFINED_CONSTRUCTION
10
536317.113
20
710871.425
30
0.0
0
TEXT
8
UNDEFINED_CONSTRUCTION
10
536319.113
20
710873.425
30
0.0
40
2.5
1
MAG_009
50
0.0
0
TEXT
8
UNDEFINED_CONSTRUCTION
10
536319.113
20
710868.425
30
0.0
40
1.5
1
M:I B:6 A:3089nT D:-2.3m
50
0.0
0
POINT
8
UNDEFINED_CONSTRUCTION
10
536318.656
20
710853.758
30
0.0
0
TEXT
8
UNDEFINED_CONSTRUCTION
10
536320.656
20
710855.758
30
0.0
40
2.5
1
MAG_010
50
0.0
0
TEXT
8
UNDEFINED_CONSTRUCTION
10
536320.656
20
710850.758
30
0.0
40
1.5
1
M:I B:5 A:2581nT D:-2.5m
50
0.0
0
POINT
8
UNDEFINED_OBJECTS
10
536321.213
20
710963.025
30
0.0
0
TEXT
8
UNDEFINED_OBJECTS
10
536323.213
20
710965.025
30
0.0
40
2.5
1
MAG_011
50
0.0
0
TEXT
8
UNDEFINED_OBJECTS
10
536323.213
20
710960.025
30
0.0
40
1.5
1
M:I B:1 A:1832nT D:-4.5m
50
0.0
0
POINT
8
DEBRIS
10
536323.635
20
710789.479
30
0.0
0
TEXT
8
DEBRIS
10
536325.635
20
710791.479
30
0.0
40
2.5
1
MAG_012
50
0.0
0
TEXT
8
DEBRIS
10
536325.635
20
710786.479
30
0.0
40
1.5
1
M:G B:4 A:1440nT D:-1.3m
50
0.0
0
POINT
8
UNDEFINED_OBJECTS
10
536328.8
20
710970.1
30
0.0
0
TEXT
8
UNDEFINED_OBJECTS
10
536330.8
20
710972.1
30
0.0
40
2.5
1
MAG_013
50
0.0
0
TEXT
8
UNDEFINED_OBJECTS
10
536330.8
20
710967.1
30
0.0
40
1.5
1
M:I B:1 A:3234nT D:-5.3m
50
0.0
0
POINT
8
DEBRIS
10
536327.513
20
710785.625
30
0.0
0
TEXT
8
DEBRIS
10
536329.513
20
710787.625
30
0.0
40
2.5
1
MAG_014
50
0.0
0
TEXT
8
DEBRIS
10
536329.513
20
710782.625
30
0.0
40
1.5
1
M:F B:3 A:1569nT D:-1.3m
50
0.0
0
POINT
8
UNDEFINED_CONSTRUCTION
10
536330.313
20
710887.658
30
0.0
0
TEXT
8
UNDEFINED_CONSTRUCTION
10
536332.313
20
710889.658
30
0.0
40
2.5
1
MAG_015
50
0.0
0
TEXT
8
UNDEFINED_CONSTRUCTION
10
536332.313
20
710884.658
30
0.0
40
1.5
1
M:H B:4 A:1221nT D:-3.2m
50
0.0
0
POINT
8
UNDEFINED_OBJECTS
10
536331.413
20
710975.525
30
0.0
0
TEXT
8
UNDEFINED_OBJECTS
10
536333.413
20
710977.525
30
0.0
40
2.5
1
MAG_016
50
0.0
0
TEXT
8
UNDEFINED_OBJECTS
10
536333.413
20
710972.525
30
0.0
40
1.5
1
M:I B:5 A:2394nT D:-5.2m
50
0.0
0
POINT
8
UNDEFINED_CONSTRUCTION
10
536332.413
20
710900.525
30
0.0
0
TEXT
8
UNDEFINED_CONSTRUCTION
10
536334.413
20
710902.525
30
0.0
40
2.5
1
MAG_017
50
0.0
0
TEXT
8
UNDEFINED_CONSTRUCTION
10
536334.413
20
710897.525
30
0.0
40
1.5
1
M:H B:2 A:2980nT D:-2.4m
50
0.0
0
POINT
8
DEBRIS
10
536333.6
20
710694.9
30
0.0
0
TEXT
8
DEBRIS
10
536335.6
20
710696.9
30
0.0
40
2.5
1
MAG_018
50
0.0
0
TEXT
8
DEBRIS
10
536335.6
20
710691.9
30
0.0
40
1.5
1
M:A B:1 A:309nT D:-0.7m
50
0.0
0
POINT
8
WRECKS
10
536337.213
20
710754.125
30
0.0
0
TEXT
8
WRECKS
10
536339.213
20
710756.125
30
0.0
40
2.5
1
MAG_019
50
0.0
0
TEXT
8
WRECKS
10
536339.213
20
710751.125
30
0.0
40
1.5
1
M:G B:4 A:1764nT D:-0.9m
50
0.0
0
POINT
8
DEBRIS
10
536340.083
20
710728.867
30
0.0
0
TEXT
8
DEBRIS
10
536342.083
20
710730.867
30
0.0
40
2.5
1
MAG_020
50
0.0
0
TEXT
8
DEBRIS
10
536342.083
20
710725.867
30
0.0
40
1.5
1
M:D B:3 A:905nT D:-0.9m
50
0.0
0
POINT
8
UNDEFINED_CONSTRUCTION
10
536341.013
20
710914.125
30
0.0
0
TEXT
8
UNDEFINED_CONSTRUCTION
10
536343.013
20
710916.125
30
0.0
40
2.5
1
MAG_021
50
0.0
0
TEXT
8
UNDEFINED_CONSTRUCTION
10
536343.013
20
710911.125
30
0.0
40
1.5
1
M:I B:5 A:3104nT D:-2.0m
50
0.0
0
POINT
8
DEBRIS
10
536342.513
20
710771.325
30
0.0
0
TEXT
8
DEBRIS
10
536344.513
20
710773.325
30
0.0
40
2.5
1
MAG_022
50
0.0
0
TEXT
8
DEBRIS
10
536344.513
20
710768.325
30
0.0
40
1.5
1
M:B B:1 A:1755nT D:-1.1m
50
0.0
0
POINT
8
DEBRIS
10
536345.213
20
710714.525
30
0.0
0
TEXT
8
DEBRIS
10
536347.213
20
710716.525
30
0.0
40
2.5
1
MAG_023
50
0.0
0
TEXT
8
DEBRIS
10
536347.213
20
710711.525
30
0.0
40
1.5
1
M:I B:6 A:1383nT D:-0.9m
50
0.0
0
POINT
8
UNDEFINED_CONSTRUCTION
10
536343.713
20
710669.025
30
0.0
0
TEXT
8
UNDEFINED_CONSTRUCTION
10
536345.713
20
710671.025
30
0.0
40
2.5
1
MAG_024
50
0.0
0
TEXT
8
UNDEFINED_CONSTRUCTION
10
536345.713
20
710666.025
30
0.0
40
1.5
1
M:I B:6 A:8136nT D:-0.7m
50
0.0
0
POINT
8
UNDEFINED_CONSTRUCTION
10
536345.513
20
710878.525
30
0.0
0
TEXT
8
UNDEFINED_CONSTRUCTION
10
536347.513
20
710880.525
30
0.0
40
2.5
1
MAG_025
50
0.0
0
TEXT
8
UNDEFINED_CONSTRUCTION
10
536347.513
20
710875.525
30
0.0
40
1.5
1
M:G B:5 A:708nT D:-3.1m
50
0.0
0
POINT
8
WRECKS
10
536348.413
20
710813.225
30
0.0
0
TEXT
8
WRECKS
10
536350.413
20
710815.225
30
0.0
40
2.5
1
MAG_026
50
0.0
0
TEXT
8
WRECKS
10
536350.413
20
710810.225
30
0.0
40
1.5
1
M:F B:1 A:5711nT D:-2.9m
50
0.0
0
POINT
8
UNDEFINED_CONSTRUCTION
10
536352.313
20
710896.025
30
0.0
0
TEXT
8
UNDEFINED_CONSTRUCTION
10
536354.313
20
710898.025
30
0.0
40
2.5
1
MAG_027
50
0.0
0
TEXT
8
UNDEFINED_CONSTRUCTION
10
536354.313
20
710893.025
30
0.0
40
1.5
1
M:G B:3 A:756nT D:-3.3m
50
0.0
0
POINT
8
NAVIGATION_BUOY
10
536353.013
20
710983.625
30
0.0
0
TEXT
8
NAVIGATION_BUOY
10
536355.013
20
710985.625
30
0.0
40
2.5
1
MAG_028
50
0.0
0
TEXT
8
NAVIGATION_BUOY
10
536355.013
20
710980.625
30
0.0
40
1.5
1
M:F B:1 A:519nT D:-5.1m
50
0.0
0
POINT
8
WRECKS
10
536355.113
20
710836.525
30
0.0
0
TEXT
8
WRECKS
10
536357.113
20
710838.525
30
0.0
40
2.5
1
MAG_029
50
0.0
0
TEXT
8
WRECKS
10
536357.113
20
710833.525
30
0.0
40
1.5
1
M:I B:5 A:1672nT D:-4.0m
50
0.0
0
POINT
8
DEBRIS
10
536359.413
20
710731.125
30
0.0
0
TEXT
8
DEBRIS
10
536361.413
20
710733.125
30
0.0
40
2.5
1
MAG_030
50
0.0
0
TEXT
8
DEBRIS
10
536361.413
20
710728.125
30
0.0
40
1.5
1
M:F B:3 A:1409nT D:-1.1m
50
0.0
0
POINT
8
WRECKS
10
536362.983
20
710782.276
30
0.0
0
TEXT
8
WRECKS
10
536364.983
20
710784.276
30
0.0
40
2.5
1
MAG_031
50
0.0
0
TEXT
8
WRECKS
10
536364.983
20
710779.276
30
0.0
40
1.5
1
M:I B:1 A:11853nT D:-1.7m
50
0.0
0
POINT
8
WRECKS
10
536364.2
20
710787.1
30
0.0
0
TEXT
8
WRECKS
10
536366.2
20
710789.1
30
0.0
40
2.5
1
MAG_032
50
0.0
0
TEXT
8
WRECKS
10
536366.2
20
710784.1
30
0.0
40
1.5
1
M:I B:6 A:11853nT D:-1.9m
50
0.0
0
POINT
8
WRECKS
10
536363.5
20
710760.1
30
0.0
0
TEXT
8
WRECKS
10
536365.5
20
710762.1
30
0.0
40
2.5
1
MAG_033
50
0.0
0
TEXT
8
WRECKS
10
536365.5
20
710757.1
30
0.0
40
1.5
1
M:I B:5 A:7894nT D:-1.7m
50
0.0
0
POINT
8
DEBRIS
10
536370.513
20
710561.825
30
0.0
0
TEXT
8
DEBRIS
10
536372.513
20
710563.825
30
0.0
40
2.5
1
MAG_034
50
0.0
0
TEXT
8
DEBRIS
10
536372.513
20
710558.825
30
0.0
40
1.5
1
M:H B:6 A:979nT D:-1.3m
50
0.0
0
POINT
8
DEBRIS
10
536379.213
20
710666.125
30
0.0
0
TEXT
8
DEBRIS
10
536381.213
20
710668.125
30
0.0
40
2.5
1
MAG_035
50
0.0
0
TEXT
8
DEBRIS
10
536381.213
20
710663.125
30
0.0
40
1.5
1
M:B B:1 A:4524nT D:-1.0m
50
0.0
0
POINT
8
DEBRIS
10
536380.7
20
710552.3
30
0.0
0
TEXT
8
DEBRIS
10
536382.7
20
710554.3
30
0.0
40
2.5
1
MAG_036
50
0.0
0
TEXT
8
DEBRIS
10
536382.7
20
710549.3
30
0.0
40
1.5
1
M:H B:5 A:869nT D:-1.5m
50
0.0
0
POINT
8
DEBRIS
10
536380.913
20
710980.525
30
0.0
0
TEXT
8
DEBRIS
10
536382.913
20
710982.525
30
0.0
40
2.5
1
MAG_037
50
0.0
0
TEXT
8
DEBRIS
10
536382.913
20
710977.525
30
0.0
40
1.5
1
M:E B:6 A:19nT D:-5.9m
50
0.0
0
POINT
8
UNDEFINED_CONSTRUCTION
10
536386.413
20
710688.525
30
0.0
0
TEXT
8
UNDEFINED_CONSTRUCTION
10
536388.413
20
710690.525
30
0.0
40
2.5
1
MAG_038
50
0.0
0
TEXT
8
UNDEFINED_CONSTRUCTION
10
536388.413
20
710685.525
30
0.0
40
1.5
1
M:H B:6 A:699nT D:-1.6m
50
0.0
0
POINT
8
DEBRIS
10
536389.713
20
710514.725
30
0.0
0
TEXT
8
DEBRIS
10
536391.713
20
710516.725
30
0.0
40
2.5
1
MAG_039
50
0.0
0
TEXT
8
DEBRIS
10
536391.713
20
710511.725
30
0.0
40
1.5
1
M:B B:1 A:362nT D:-1.2m
50
0.0
0
POINT
8
UNDEFINED_CONSTRUCTION
10
536392.013
20
710660.525
30
0.0
0
TEXT
8
UNDEFINED_CONSTRUCTION
10
536394.013
20
710662.525
30
0.0
40
2.5
1
MAG_040
50
0.0
0
TEXT
8
UNDEFINED_CONSTRUCTION
10
536394.013
20
710657.525
30
0.0
40
1.5
1
M:I B:6 A:1309nT D:-1.4m
50
0.0
0
POINT
8
DEBRIS
10
536396.213
20
710497.725
30
0.0
0
TEXT
8
DEBRIS
10
536398.213
20
710499.725
30
0.0
40
2.5
1
MAG_041
50
0.0
0
TEXT
8
DEBRIS
10
536398.213
20
710494.725
30
0.0
40
1.5
1
M:AAA B:1 A:50nT D:-1.2m
50
0.0
0
POINT
8
UNDEFINED_CONSTRUCTION
10
536400.013
20
710622.325
30
0.0
0
TEXT
8
UNDEFINED_CONSTRUCTION
10
536402.013
20
710624.325
30
0.0
40
2.5
1
MAG_042
50
0.0
0
TEXT
8
UNDEFINED_CONSTRUCTION
10
536402.013
20
710619.325
30
0.0
40
1.5
1
M:I B:6 A:3827nT D:-0.5m
50
0.0
0
POINT
8
UNDEFINED_CONSTRUCTION
10
536402.813
20
710641.325
30
0.0
0
TEXT
8
UNDEFINED_CONSTRUCTION
10
536404.813
20
710643.325
30
0.0
40
2.5
1
MAG_043
50
0.0
0
TEXT
8
UNDEFINED_CONSTRUCTION
10
536404.813
20
710638.325
30
0.0
40
1.5
1
M:I B:6 A:2226nT D:-0.9m
50
0.0
0
POINT
8
UNDEFINED_CONSTRUCTION
10
536404.81
20
710621.19
30
0.0
0
TEXT
8
UNDEFINED_CONSTRUCTION
10
536406.81
20
710623.19
30
0.0
40
2.5
1
MAG_044
50
0.0
0
TEXT
8
UNDEFINED_CONSTRUCTION
10
536406.81
20
710618.19
30
0.0
40
1.5
1
M:I B:6 A:3941nT D:-0.4m
50
0.0
0
POINT
8
DEBRIS
10
536405.313
20
710576.725
30
0.0
0
TEXT
8
DEBRIS
10
536407.313
20
710578.725
30
0.0
40
2.5
1
MAG_045
50
0.0
0
TEXT
8
DEBRIS
10
536407.313
20
710573.725
30
0.0
40
1.5
1
M:F B:2 A:2014nT D:-1.1m
50
0.0
0
POINT
8
UNDEFINED_CONSTRUCTION
10
536408.738
20
710609.683
30
0.0
0
TEXT
8
UNDEFINED_CONSTRUCTION
10
536410.738
20
710611.683
30
0.0
40
2.5
1
MAG_046
50
0.0
0
TEXT
8
UNDEFINED_CONSTRUCTION
10
536410.738
20
710606.683
30
0.0
40
1.5
1
M:G B:3 A:3621nT D:-0.5m
50
0.0
0
POINT
8
UNDEFINED_CONSTRUCTION
10
536410.713
20
710670.325
30
0.0
0
TEXT
8
UNDEFINED_CONSTRUCTION
10
536412.713
20
710672.325
30
0.0
40
2.5
1
MAG_047
50
0.0
0
TEXT
8
UNDEFINED_CONSTRUCTION
10
536412.713
20
710667.325
30
0.0
40
1.5
1
M:E B:2 A:658nT D:-2.0m
50
0.0
0
POINT
8
DEBRIS
10
536417.313
20
710470.225
30
0.0
0
TEXT
8
DEBRIS
10
536419.313
20
710472.225
30
0.0
40
2.5
1
MAG_048
50
0.0
0
TEXT
8
DEBRIS
10
536419.313
20
710467.225
30
0.0
40
1.5
1
M:C B:1 A:923nT D:-1.0m
50
0.0
0
POINT
8
DEBRIS
10
536420.013
20
710490.425
30
0.0
0
TEXT
8
DEBRIS
10
536422.013
20
710492.425
30
0.0
40
2.5
1
MAG_049
50
0.0
0
TEXT
8
DEBRIS
10
536422.013
20
710487.425
30
0.0
40
1.5
1
M:C B:1 A:781nT D:-1.0m
50
0.0
0
POINT
8
DEBRIS
10
536424.913
20
710740.725
30
0.0
0
TEXT
8
DEBRIS
10
536426.913
20
710742.725
30
0.0
40
2.5
1
MAG_050
50
0.0
0
TEXT
8
DEBRIS
10
536426.913
20
710737.725
30
0.0
40
1.5
1
M:E B:1 A:347nT D:-3.2m
50
0.0
0
POINT
8
DEBRIS
10
536427.713
20
710556.125
30
0.0
0
TEXT
8
DEBRIS
10
536429.713
20
710558.125
30
0.0
40
2.5
1
MAG_051
50
0.0
0
TEXT
8
DEBRIS
10
536429.713
20
710553.125
30
0.0
40
1.5
1
M:C B:1 A:1896nT D:-1.1m
50
0.0
0
POINT
8
DEBRIS
10
536434.913
20
710783.825
30
0.0
0
TEXT
8
DEBRIS
10
536436.913
20
710785.825
30
0.0
40
2.5
1
MAG_052
50
0.0
0
TEXT
8
DEBRIS
10
536436.913
20
710780.825
30
0.0
40
1.5
1
M:D B:1 A:81nT D:-3.9m
50
0.0
0
POINT
8
DEBRIS
10
536437.613
20
710652.825
30
0.0
0
TEXT
8
DEBRIS
10
536439.613
20
710654.825
30
0.0
40
2.5
1
MAG_053
50
0.0
0
TEXT
8
DEBRIS
10
536439.613
20
710649.825
30
0.0
40
1.5
1
M:E B:4 A:133nT D:-2.4m
50
0.0
0
POINT
8
UNDEFINED_CONSTRUCTION
10
536446.313
20
710588.825
30
0.0
0
TEXT
8
UNDEFINED_CONSTRUCTION
10
536448.313
20
710590.825
30
0.0
40
2.5
1
MAG_054
50
0.0
0
TEXT
8
UNDEFINED_CONSTRUCTION
10
536448.313
20
710585.825
30
0.0
40
1.5
1
M:E B:2 A:698nT D:-1.3m
50
0.0
0
POINT
8
UNDEFINED_CONSTRUCTION
10
536454.813
20
710555.125
30
0.0
0
TEXT
8
UNDEFINED_CONSTRUCTION
10
536456.813
20
710557.125
30
0.0
40
2.5
1
MAG_055
50
0.0
0
TEXT
8
UNDEFINED_CONSTRUCTION
10
536456.813
20
710552.125
30
0.0
40
1.5
1
M:D B:1 A:2079nT D:-0.9m
50
0.0
0
POINT
8
DEBRIS
10
536452.38
20
710494.008
30
0.0
0
TEXT
8
DEBRIS
10
536454.38
20
710496.008
30
0.0
40
2.5
1
MAG_056
50
0.0
0
TEXT
8
DEBRIS
10
536454.38
20
710491.008
30
0.0
40
1.5
1
M:D B:3 A:287nT D:-1.1m
50
0.0
0
POINT
8
DEBRIS
10
536454.897
20
710738.11
30
0.0
0
TEXT
8
DEBRIS
10
536456.897
20
710740.11
30
0.0
40
2.5
1
MAG_057
50
0.0
0
TEXT
8
DEBRIS
10
536456.897
20
710735.11
30
0.0
40
1.5
1
M:B B:1 A:36nT D:-3.3m
50
0.0
0
POINT
8
DEBRIS
10
536453.613
20
710440.625
30
0.0
0
TEXT
8
DEBRIS
10
536455.613
20
710442.625
30
0.0
40
2.5
1
MAG_058
50
0.0
0
TEXT
8
DEBRIS
10
536455.613
20
710437.625
30
0.0
40
1.5
1
M:A B:1 A:455nT D:-0.9m
50
0.0
0
POINT
8
DEBRIS
10
536457.563
20
710682.975
30
0.0
0
TEXT
8
DEBRIS
10
536459.563
20
710684.975
30
0.0
40
2.5
1
MAG_059
50
0.0
0
TEXT
8
DEBRIS
10
536459.563
20
710679.975
30
0.0
40
1.5
1
M:F B:4 A:106nT D:-2.8m
50
0.0
0
POINT
8
DEBRIS
10
536456.313
20
710728.725
30
0.0
0
TEXT
8
DEBRIS
10
536458.313
20
710730.725
30
0.0
40
2.5
1
MAG_060
50
0.0
0
TEXT
8
DEBRIS
10
536458.313
20
710725.725
30
0.0
40
1.5
1
M:D B:2 A:56nT D:-4.6m
50
0.0
0
POINT
8
UNDEFINED_CONSTRUCTION
10
536459.813
20
710589.925
30
0.0
0
TEXT
8
UNDEFINED_CONSTRUCTION
10
536461.813
20
710591.925
30
0.0
40
2.5
1
MAG_061
50
0.0
0
TEXT
8
UNDEFINED_CONSTRUCTION
10
536461.813
20
710586.925
30
0.0
40
1.5
1
M:E B:1 A:2848nT D:-1.3m
50
0.0
0
POINT
8
DEBRIS
10
536461.013
20
710752.125
30
0.0
0
TEXT
8
DEBRIS
10
536463.013
20
710754.125
30
0.0
40
2.5
1
MAG_062
50
0.0
0
TEXT
8
DEBRIS
10
536463.013
20
710749.125
30
0.0
40
1.5
1
M:A B:1 A:15nT D:-3.5m
50
0.0
0
POINT
8
DEBRIS
10
536464.613
20
710471.625
30
0.0
0
TEXT
8
DEBRIS
10
536466.613
20
710473.625
30
0.0
40
2.5
1
MAG_063
50
0.0
0
TEXT
8
DEBRIS
10
536466.613
20
710468.625
30
0.0
40
1.5
1
M:E B:4 A:686nT D:-0.9m
50
0.0
0
POINT
8
UNDEFINED_CONSTRUCTION
10
536466.513
20
710534.225
30
0.0
0
TEXT
8
UNDEFINED_CONSTRUCTION
10
536468.513
20
710536.225
30
0.0
40
2.5
1
MAG_064
50
0.0
0
TEXT
8
UNDEFINED_CONSTRUCTION
10
536468.513
20
710531.225
30
0.0
40
1.5
1
M:I B:6 A:1537nT D:-1.0m
50
0.0
0
POINT
8
DEBRIS
10
536466.172
20
710433.19
30
0.0
0
TEXT
8
DEBRIS
10
536468.172
20
710435.19
30
0.0
40
2.5
1
MAG_065
50
0.0
0
TEXT
8
DEBRIS
10
536468.172
20
710430.19
30
0.0
40
1.5
1
M:C B:2 A:592nT D:-0.8m
50
0.0
0
POINT
8
DEBRIS
10
536468.213
20
710452.825
30
0.0
0
TEXT
8
DEBRIS
10
536470.213
20
710454.825
30
0.0
40
2.5
1
MAG_066
50
0.0
0
TEXT
8
DEBRIS
10
536470.213
20
710449.825
30
0.0
40
1.5
1
M:D B:3 A:629nT D:-0.8m
50
0.0
0
POINT
8
UNDEFINED_CONSTRUCTION
10
536466.313
20
710636.125
30
0.0
0
TEXT
8
UNDEFINED_CONSTRUCTION
10
536468.313
20
710638.125
30
0.0
40
2.5
1
MAG_067
50
0.0
0
TEXT
8
UNDEFINED_CONSTRUCTION
10
536468.313
20
710633.125
30
0.0
40
1.5
1
M:I B:5 A:5045nT D:-2.1m
50
0.0
0
POINT
8
UNDEFINED_CONSTRUCTION
10
536475.713
20
710554.425
30
0.0
0
TEXT
8
UNDEFINED_CONSTRUCTION
10
536477.713
20
710556.425
30
0.0
40
2.5
1
MAG_068
50
0.0
0
TEXT
8
UNDEFINED_CONSTRUCTION
10
536477.713
20
710551.425
30
0.0
40
1.5
1
M:D B:3 A:468nT D:-1.0m
50
0.0
0
POINT
8
UNDEFINED_CONSTRUCTION
10
536477.187
20
710646.734
30
0.0
0
TEXT
8
UNDEFINED_CONSTRUCTION
10
536479.187
20
710648.734
30
0.0
40
2.5
1
MAG_069
50
0.0
0
TEXT
8
UNDEFINED_CONSTRUCTION
10
536479.187
20
710643.734
30
0.0
40
1.5
1
M:I B:6 A:5045nT D:-2.3m
50
0.0
0
POINT
8
DEBRIS
10
536487.013
20
710601.725
30
0.0
0
TEXT
8
DEBRIS
10
536489.013
20
710603.725
30
0.0
40
2.5
1
MAG_070
50
0.0
0
TEXT
8
DEBRIS
10
536489.013
20
710598.725
30
0.0
40
1.5
1
M:B B:1 A:127nT D:-1.8m
50
0.0
0
POINT
8
JETTY_QUAY
10
536486.813
20
710427.225
30
0.0
0
TEXT
8
JETTY_QUAY
10
536488.813
20
710429.225
30
0.0
40
2.5
1
MAG_071
50
0.0
0
TEXT
8
JETTY_QUAY
10
536488.813
20
710424.225
30
0.0
40
1.5
1
M:F B:3 A:1595nT D:-0.8m
50
0.0
0
POINT
8
UNDEFINED_CONSTRUCTION
10
536489.313
20
710518.125
30
0.0
0
TEXT
8
UNDEFINED_CONSTRUCTION
10
536491.313
20
710520.125
30
0.0
40
2.5
1
MAG_072
50
0.0
0
TEXT
8
UNDEFINED_CONSTRUCTION
10
536491.313
20
710515.125
30
0.0
40
1.5
1
M:I B:5 A:20569nT D:-1.1m
50
0.0
0
POINT
8
DEBRIS
10
536492.813
20
710695.725
30
0.0
0
TEXT
8
DEBRIS
10
536494.813
20
710697.725
30
0.0
40
2.5
1
MAG_073
50
0.0
0
TEXT
8
DEBRIS
10
536494.813
20
710692.725
30
0.0
40
1.5
1
M:B B:3 A:28nT D:-2.8m
50
0.0
0
POINT
8
DEBRIS
10
536497.863
20
710560.542
30
0.0
0
TEXT
8
DEBRIS
10
536499.863
20
710562.542
30
0.0
40
2.5
1
MAG_074
50
0.0
0
TEXT
8
DEBRIS
10
536499.863
20
710557.542
30
0.0
40
1.5
1
M:C B:1 A:1101nT D:-1.2m
50
0.0
0
POINT
8
DEBRIS
10
536505.013
20
710446.825
30
0.0
0
TEXT
8
DEBRIS
10
536507.013
20
710448.825
30
0.0
40
2.5
1
MAG_075
50
0.0
0
TEXT
8
DEBRIS
10
536507.013
20
710443.825
30
0.0
40
1.5
1
M:C B:3 A:364nT D:-0.9m
50
0.0
0
POINT
8
DEBRIS
10
536503.313
20
710467.425
30
0.0
0
TEXT
8
DEBRIS
10
536505.313
20
710469.425
30
0.0
40
2.5
1
MAG_076
50
0.0
0
TEXT
8
DEBRIS
10
536505.313
20
710464.425
30
0.0
40
1.5
1
M:G B:4 A:236nT D:-0.9m
50
0.0
0
POINT
8
DEBRIS
10
536510.613
20
710703.425
30
0.0
0
TEXT
8
DEBRIS
10
536512.613
20
710705.425
30
0.0
40
2.5
1
MAG_077
50
0.0
0
TEXT
8
DEBRIS
10
536512.613
20
710700.425
30
0.0
40
1.5
1
M:F B:5 A:70nT D:-3.0m
50
0.0
0
POINT
8
DEBRIS
10
536513.413
20
710597.925
30
0.0
0
TEXT
8
DEBRIS
10
536515.413
20
710599.925
30
0.0
40
2.5
1
MAG_078
50
0.0
0
TEXT
8
DEBRIS
10
536515.413
20
710594.925
30
0.0
40
1.5
1
M:C B:1 A:133nT D:-1.9m
50
0.0
0
POINT
8
DEBRIS
10
536515.813
20
710687.625
30
0.0
0
TEXT
8
DEBRIS
10
536517.813
20
710689.625
30
0.0
40
2.5
1
MAG_079
50
0.0
0
TEXT
8
DEBRIS
10
536517.813
20
710684.625
30
0.0
40
1.5
1
M:B B:1 A:73nT D:-2.7m
50
0.0
0
POINT
8
DEBRIS
10
536522.213
20
710621.125
30
0.0
0
TEXT
8
DEBRIS
10
536524.213
20
710623.125
30
0.0
40
2.5
1
MAG_080
50
0.0
0
TEXT
8
DEBRIS
10
536524.213
20
710618.125
30
0.0
40
1.5
1
M:C B:1 A:50nT D:-2.1m
50
0.0
0
POINT
8
DEBRIS
10
536519.313
20
710558.125
30
0.0
0
TEXT
8
DEBRIS
10
536521.313
20
710560.125
30
0.0
40
2.5
1
MAG_081
50
0.0
0
TEXT
8
DEBRIS
10
536521.313
20
710555.125
30
0.0
40
1.5
1
M:C B:1 A:666nT D:-1.5m
50
0.0
0
POINT
8
DEBRIS
10
536521.113
20
710467.025
30
0.0
0
TEXT
8
DEBRIS
10
536523.113
20
710469.025
30
0.0
40
2.5
1
MAG_082
50
0.0
0
TEXT
8
DEBRIS
10
536523.113
20
710464.025
30
0.0
40
1.5
1
M:B B:1 A:604nT D:-1.0m
50
0.0
0
POINT
8
DEBRIS
10
536521.413
20
710661.125
30
0.0
0
TEXT
8
DEBRIS
10
536523.413
20
710663.125
30
0.0
40
2.5
1
MAG_083
50
0.0
0
TEXT
8
DEBRIS
10
536523.413
20
710658.125
30
0.0
40
1.5
1
M:C B:1 A:142nT D:-2.5m
50
0.0
0
POINT
8
DEBRIS
10
536525.313
20
710525.325
30
0.0
0
TEXT
8
DEBRIS
10
536527.313
20
710527.325
30
0.0
40
2.5
1
MAG_084
50
0.0
0
TEXT
8
DEBRIS
10
536527.313
20
710522.325
30
0.0
40
1.5
1
M:C B:1 A:657nT D:-1.1m
50
0.0
0
POINT
8
DEBRIS
10
536530.513
20
710587.925
30
0.0
0
TEXT
8
DEBRIS
10
536532.513
20
710589.925
30
0.0
40
2.5
1
MAG_085
50
0.0
0
TEXT
8
DEBRIS
10
536532.513
20
710584.925
30
0.0
40
1.5
1
M:C B:1 A:292nT D:-2.0m
50
0.0
0
POINT
8
DEBRIS
10
536529.813
20
710496.325
30
0.0
0
TEXT
8
DEBRIS
10
536531.813
20
710498.325
30
0.0
40
2.5
1
MAG_086
50
0.0
0
TEXT
8
DEBRIS
10
536531.813
20
710493.325
30
0.0
40
1.5
1
M:A B:1 A:202nT D:-1.1m
50
0.0
0
POINT
8
DEBRIS
10
536531.213
20
710485.225
30
0.0
0
TEXT
8
DEBRIS
10
536533.213
20
710487.225
30
0.0
40
2.5
1
MAG_087
50
0.0
0
TEXT
8
DEBRIS
10
536533.213
20
710482.225
30
0.0
40
1.5
1
M:C B:2 A:329nT D:-1.1m
50
0.0
0
POINT
8
DEBRIS
10
536535.813
20
710703.525
30
0.0
0
TEXT
8
DEBRIS
10
536537.813
20
710705.525
30
0.0
40
2.5
1
MAG_088
50
0.0
0
TEXT
8
DEBRIS
10
536537.813
20
710700.525
30
0.0
40
1.5
1
M:C B:2 A:70nT D:-2.9m
50
0.0
0
POINT
8
UNDEFINED_OBJECTS
10
536537.345
20
710809.816
30
0.0
0
TEXT
8
UNDEFINED_OBJECTS
10
536539.345
20
710811.816
30
0.0
40
2.5
1
MAG_089
50
0.0
0
TEXT
8
UNDEFINED_OBJECTS
10
536539.345
20
710806.816
30
0.0
40
1.5
1
M:I B:3 A:5682nT D:-4.7m
50
0.0
0
POINT
8
DEBRIS
10
536538.513
20
710430.425
30
0.0
0
TEXT
8
DEBRIS
10
536540.513
20
710432.425
30
0.0
40
2.5
1
MAG_090
50
0.0
0
TEXT
8
DEBRIS
10
536540.513
20
710427.425
30
0.0
40
1.5
1
M:B B:1 A:775nT D:-1.0m
50
0.0
0
POINT
8
UNDEFINED_OBJECTS
10
536538.284
20
710795.205
30
0.0
0
TEXT
8
UNDEFINED_OBJECTS
10
536540.284
20
710797.205
30
0.0
40
2.5
1
MAG_091
50
0.0
0
TEXT
8
UNDEFINED_OBJECTS
10
536540.284
20
710792.205
30
0.0
40
1.5
1
M:I B:1 A:5682nT D:-4.5m
50
0.0
0
POINT
8
DEBRIS
10
536540.413
20
710481.925
30
0.0
0
TEXT
8
DEBRIS
10
536542.413
20
710483.925
30
0.0
40
2.5
1
MAG_092
50
0.0
0
TEXT
8
DEBRIS
10
536542.413
20
710478.925
30
0.0
40
1.5
1
M:B B:2 A:538nT D:-1.1m
50
0.0
0
POINT
8
DEBRIS
10
536539.413
20
710559.825
30
0.0
0
TEXT
8
DEBRIS
10
536541.413
20
710561.825
30
0.0
40
2.5
1
MAG_093
50
0.0
0
TEXT
8
DEBRIS
10
536541.413
20
710556.825
30
0.0
40
1.5
1
M:E B:4 A:225nT D:-1.7m
50
0.0
0
POINT
8
DEBRIS
10
536542.613
20
710670.625
30
0.0
0
TEXT
8
DEBRIS
10
536544.613
20
710672.625
30
0.0
40
2.5
1
MAG_094
50
0.0
0
TEXT
8
DEBRIS
10
536544.613
20
710667.625
30
0.0
40
1.5
1
M:A B:1 A:41nT D:-2.5m
50
0.0
0
POINT
8
DEBRIS
10
536543.913
20
710462.325
30
0.0
0
TEXT
8
DEBRIS
10
536545.913
20
710464.325
30
0.0
40
2.5
1
MAG_095
50
0.0
0
TEXT
8
DEBRIS
10
536545.913
20
710459.325
30
0.0
40
1.5
1
M:AA B:1 A:179nT D:-0.9m
50
0.0
0
POINT
8
DEBRIS
10
536546.913
20
710491.825
30
0.0
0
TEXT
8
DEBRIS
10
536548.913
20
710493.825
30
0.0
40
2.5
1
MAG_096
50
0.0
0
TEXT
8
DEBRIS
10
536548.913
20
710488.825
30
0.0
40
1.5
1
M:D B:4 A:130nT D:-1.2m
50
0.0
0
POINT
8
DEBRIS
10
536562.338
20
710482.475
30
0.0
0
TEXT
8
DEBRIS
10
536564.338
20
710484.475
30
0.0
40
2.5
1
MAG_097
50
0.0
0
TEXT
8
DEBRIS
10
536564.338
20
710479.475
30
0.0
40
1.5
1
M:A B:2 A:70nT D:-1.2m
50
0.0
0
POINT
8
DEBRIS
10
536564.813
20
710536.125
30
0.0
0
TEXT
8
DEBRIS
10
536566.813
20
710538.125
30
0.0
40
2.5
1
MAG_098
50
0.0
0
TEXT
8
DEBRIS
10
536566.813
20
710533.125
30
0.0
40
1.5
1
M:D B:3 A:171nT D:-1.7m
50
0.0
0
POINT
8
DEBRIS
10
536570.096
20
710511.158
30
0.0
0
TEXT
8
DEBRIS
10
536572.096
20
710513.158
30
0.0
40
2.5
1
MAG_099
50
0.0
0
TEXT
8
DEBRIS
10
536572.096
20
710508.158
30
0.0
40
1.5
1
M:C B:1 A:342nT D:-1.4m
50
0.0
0
POINT
8
DEBRIS
10
536569.313
20
710735.525
30
0.0
0
TEXT
8
DEBRIS
10
536571.313
20
710737.525
30
0.0
40
2.5
1
MAG_100
50
0.0
0
TEXT
8
DEBRIS
10
536571.313
20
710732.525
30
0.0
40
1.5
1
M:D B:3 A:71nT D:-3.4m
50
0.0
0
POINT
8
DEBRIS
10
536576.401
20
710413.747
30
0.0
0
TEXT
8
DEBRIS
10
536578.401
20
710415.747
30
0.0
40
2.5
1
MAG_101
50
0.0
0
TEXT
8
DEBRIS
10
536578.401
20
710410.747
30
0.0
40
1.5
1
M:B B:1 A:200nT D:-1.1m
50
0.0
0
POINT
8
DEBRIS
10
536576.473
20
710479.282
30
0.0
0
TEXT
8
DEBRIS
10
536578.473
20
710481.282
30
0.0
40
2.5
1
MAG_102
50
0.0
0
TEXT
8
DEBRIS
10
536578.473
20
710476.282
30
0.0
40
1.5
1
M:B B:2 A:86nT D:-1.3m
50
0.0
0
POINT
8
DEBRIS
10
536573.313
20
710464.625
30
0.0
0
TEXT
8
DEBRIS
10
536575.313
20
710466.625
30
0.0
40
2.5
1
MAG_103
50
0.0
0
TEXT
8
DEBRIS
10
536575.313
20
710461.625
30
0.0
40
1.5
1
M:AA B:1 A:63nT D:-1.3m
50
0.0
0
POINT
8
DEBRIS
10
536579.502
20
710425.304
30
0.0
0
TEXT
8
DEBRIS
10
536581.502
20
710427.304
30
0.0
40
2.5
1
MAG_104
50
0.0
0
TEXT
8
DEBRIS
10
536581.502
20
710422.304
30
0.0
40
1.5
1
M:AA B:1 A:149nT D:-1.1m
50
0.0
0
POINT
8
DEBRIS
10
536579.313
20
710529.925
30
0.0
0
TEXT
8
DEBRIS
10
536581.313
20
710531.925
30
0.0
40
2.5
1
MAG_105
50
0.0
0
TEXT
8
DEBRIS
10
536581.313
20
710526.925
30
0.0
40
1.5
1
M:C B:1 A:259nT D:-1.8m
50
0.0
0
POINT
8
DEBRIS
10
536583.414
20
710730.939
30
0.0
0
TEXT
8
DEBRIS
10
536585.414
20
710732.939
30
0.0
40
2.5
1
MAG_106
50
0.0
0
TEXT
8
DEBRIS
10
536585.414
20
710727.939
30
0.0
40
1.5
1
M:B B:1 A:52nT D:-3.6m
50
0.0
0
POINT
8
WRECKS
10
536587.813
20
710600.425
30
0.0
0
TEXT
8
WRECKS
10
536589.813
20
710602.425
30
0.0
40
2.5
1
MAG_107
50
0.0
0
TEXT
8
WRECKS
10
536589.813
20
710597.425
30
0.0
40
1.5
1
M:I B:1 A:16619nT D:-4.2m
50
0.0
0
POINT
8
DEBRIS
10
536586.082
20
710730.401
30
0.0
0
TEXT
8
DEBRIS
10
536588.082
20
710732.401
30
0.0
40
2.5
1
MAG_108
50
0.0
0
TEXT
8
DEBRIS
10
536588.082
20
710727.401
30
0.0
40
1.5
1
M:C B:1 A:52nT D:-3.6m
50
0.0
0
POINT
8
WRECKS
10
536594.213
20
710570.925
30
0.0
0
TEXT
8
WRECKS
10
536596.213
20
710572.925
30
0.0
40
2.5
1
MAG_109
50
0.0
0
TEXT
8
WRECKS
10
536596.213
20
710567.925
30
0.0
40
1.5
1
M:I B:1 A:16619nT D:-2.5m
50
0.0
0
POINT
8
DEBRIS
10
536598.913
20
710711.525
30
0.0
0
TEXT
8
DEBRIS
10
536600.913
20
710713.525
30
0.0
40
2.5
1
MAG_110
50
0.0
0
TEXT
8
DEBRIS
10
536600.913
20
710708.525
30
0.0
40
1.5
1
M:B B:1 A:32nT D:-3.1m
50
0.0
0
POINT
8
UNDEFINED_CONSTRUCTION
10
536597.113
20
710432.525
30
0.0
0
TEXT
8
UNDEFINED_CONSTRUCTION
10
536599.113
20
710434.525
30
0.0
40
2.5
1
MAG_111
50
0.0
0
TEXT
8
UNDEFINED_CONSTRUCTION
10
536599.113
20
710429.525
30
0.0
40
1.5
1
M:C B:1 A:882nT D:-1.2m
50
0.0
0
POINT
8
WRECKS
10
536595.113
20
710511.225
30
0.0
0
TEXT
8
WRECKS
10
536597.113
20
710513.225
30
0.0
40
2.5
1
MAG_112
50
0.0
0
TEXT
8
WRECKS
10
536597.113
20
710508.225
30
0.0
40
1.5
1
M:I B:1 A:24940nT D:-1.9m
50
0.0
0
POINT
8
UNDEFINED_CONSTRUCTION
10
536598.013
20
710418.225
30
0.0
0
TEXT
8
UNDEFINED_CONSTRUCTION
10
536600.013
20
710420.225
30
0.0
40
2.5
1
MAG_113
50
0.0
0
TEXT
8
UNDEFINED_CONSTRUCTION
10
536600.013
20
710415.225
30
0.0
40
1.5
1
M:G B:3 A:882nT D:-1.2m
50
0.0
0
POINT
8
DEBRIS
10
536601.313
20
710680.125
30
0.0
0
TEXT
8
DEBRIS
10
536603.313
20
710682.125
30
0.0
40
2.5
1
MAG_114
50
0.0
0
TEXT
8
DEBRIS
10
536603.313
20
710677.125
30
0.0
40
1.5
1
M:D B:4 A:45nT D:-3.0m
50
0.0
0
POINT
8
DEBRIS
10
536604.245
20
710715.491
30
0.0
0
TEXT
8
DEBRIS
10
536606.245
20
710717.491
30
0.0
40
2.5
1
MAG_115
50
0.0
0
TEXT
8
DEBRIS
10
536606.245
20
710712.491
30
0.0
40
1.5
1
M:C B:1 A:48nT D:-3.7m
50
0.0
0
POINT
8
WRECKS
10
536615.613
20
710554.225
30
0.0
0
TEXT
8
WRECKS
10
536617.613
20
710556.225
30
0.0
40
2.5
1
MAG_116
50
0.0
0
TEXT
8
WRECKS
10
536617.613
20
710551.225
30
0.0
40
1.5
1
M:I B:4 A:14792nT D:-2.6m
50
0.0
0
POINT
8
WRECKS
10
536619.413
20
710499.325
30
0.0
0
TEXT
8
WRECKS
10
536621.413
20
710501.325
30
0.0
40
2.5
1
MAG_117
50
0.0
0
TEXT
8
WRECKS
10
536621.413
20
710496.325
30
0.0
40
1.5
1
M:I B:1 A:23525nT D:-2.1m
50
0.0
0
POINT
8
DEBRIS
10
536617.613
20
710696.725
30
0.0
0
TEXT
8
DEBRIS
10
536619.613
20
710698.725
30
0.0
40
2.5
1
MAG_118
50
0.0
0
TEXT
8
DEBRIS
10
536619.613
20
710693.725
30
0.0
40
1.5
1
M:G B:6 A:225nT D:-3.5m
50
0.0
0
POINT
8
UNDEFINED_CONSTRUCTION
10
536618.213
20
710463.225
30
0.0
0
TEXT
8
UNDEFINED_CONSTRUCTION
10
536620.213
20
710465.225
30
0.0
40
2.5
1
MAG_119
50
0.0
0
TEXT
8
UNDEFINED_CONSTRUCTION
10
536620.213
20
710460.225
30
0.0
40
1.5
1
M:G B:5 A:671nT D:-1.7m
50
0.0
0
POINT
8
DEBRIS
10
536626.313
20
710748.925
30
0.0
0
TEXT
8
DEBRIS
10
536628.313
20
710750.925
30
0.0
40
2.5
1
MAG_120
50
0.0
0
TEXT
8
DEBRIS
10
536628.313
20
710745.925
30
0.0
40
1.5
1
M:D B:1 A:68nT D:-6.0m
50
0.0
0
POINT
8
DEBRIS
10
536628.013
20
710661.725
30
0.0
0
TEXT
8
DEBRIS
10
536630.013
20
710663.725
30
0.0
40
2.5
1
MAG_121
50
0.0
0
TEXT
8
DEBRIS
10
536630.013
20
710658.725
30
0.0
40
1.5
1
M:B B:1 A:304nT D:-3.0m
50
0.0
0
POINT
8
DEBRIS
10
536634.913
20
710585.225
30
0.0
0
TEXT
8
DEBRIS
10
536636.913
20
710587.225
30
0.0
40
2.5
1
MAG_122
50
0.0
0
TEXT
8
DEBRIS
10
536636.913
20
710582.225
30
0.0
40
1.5
1
M:D B:1 A:241nT D:-2.4m
50
0.0
0
POINT
8
DEBRIS
10
536637.541
20
710704.215
30
0.0
0
TEXT
8
DEBRIS
10
536639.541
20
710706.215
30
0.0
40
2.5
1
MAG_123
50
0.0
0
TEXT
8
DEBRIS
10
536639.541
20
710701.215
30
0.0
40
1.5
1
M:C B:2 A:36nT D:-4.0m
50
0.0
0
POINT
8
DEBRIS
10
536634.113
20
710552.625
30
0.0
0
TEXT
8
DEBRIS
10
536636.113
20
710554.625
30
0.0
40
2.5
1
MAG_124
50
0.0
0
TEXT
8
DEBRIS
10
536636.113
20
710549.625
30
0.0
40
1.5
1
M:D B:1 A:2858nT D:-2.5m
50
0.0
0
POINT
8
DEBRIS
10
536640.713
20
710668.625
30
0.0
0
TEXT
8
DEBRIS
10
536642.713
20
710670.625
30
0.0
40
2.5
1
MAG_125
50
0.0
0
TEXT
8
DEBRIS
10
536642.713
20
710665.625
30
0.0
40
1.5
1
M:B B:1 A:44nT D:-3.3m
50
0.0
0
POINT
8
UNDEFINED_OBJECTS
10
536643.713
20
710414.692
30
0.0
0
TEXT
8
UNDEFINED_OBJECTS
10
536645.713
20
710416.692
30
0.0
40
2.5
1
MAG_126
50
0.0
0
TEXT
8
UNDEFINED_OBJECTS
10
536645.713
20
710411.692
30
0.0
40
1.5
1
M:D B:3 A:279nT D:-1.3m
50
0.0
0
POINT
8
DEBRIS
10
536643.013
20
710719.425
30
0.0
0
TEXT
8
DEBRIS
10
536645.013
20
710721.425
30
0.0
40
2.5
1
MAG_127
50
0.0
0
TEXT
8
DEBRIS
10
536645.013
20
710716.425
30
0.0
40
1.5
1
M:C B:1 A:81nT D:-4.7m
50
0.0
0
POINT
8
DEBRIS
10
536645.558
20
710703.967
30
0.0
0
TEXT
8
DEBRIS
10
536647.558
20
710705.967
30
0.0
40
2.5
1
MAG_128
50
0.0
0
TEXT
8
DEBRIS
10
536647.558
20
710700.967
30
0.0
40
1.5
1
M:D B:4 A:40nT D:-4.2m
50
0.0
0
POINT
8
UNDEFINED_CONSTRUCTION
10
536654.113
20
710480.925
30
0.0
0
TEXT
8
UNDEFINED_CONSTRUCTION
10
536656.113
20
710482.925
30
0.0
40
2.5
1
MAG_129
50
0.0
0
TEXT
8
UNDEFINED_CONSTRUCTION
10
536656.113
20
710477.925
30
0.0
40
1.5
1
M:I B:6 A:6604nT D:-1.9m
50
0.0
0
POINT
8
UNDEFINED_OBJECTS
10
536662.513
20
710427.825
30
0.0
0
TEXT
8
UNDEFINED_OBJECTS
10
536664.513
20
710429.825
30
0.0
40
2.5
1
MAG_130
50
0.0
0
TEXT
8
UNDEFINED_OBJECTS
10
536664.513
20
710424.825
30
0.0
40
1.5
1
M:G B:4 A:769nT D:-1.5m
50
0.0
0
POINT
8
DEBRIS
10
536665.013
20
710662.425
30
0.0
0
TEXT
8
DEBRIS
10
536667.013
20
710664.425
30
0.0
40
2.5
1
MAG_131
50
0.0
0
TEXT
8
DEBRIS
10
536667.013
20
710659.425
30
0.0
40
1.5
1
M:AA B:1 A:30nT D:-3.4m
50
0.0
0
POINT
8
DEBRIS
10
536678.362
20
710685.452
30
0.0
0
TEXT
8
DEBRIS
10
536680.362
20
710687.452
30
0.0
40
2.5
1
MAG_132
50
0.0
0
TEXT
8
DEBRIS
10
536680.362
20
710682.452
30
0.0
40
1.5
1
M:D B:3 A:58nT D:-4.2m
50
0.0
0
POINT
8
DEBRIS
10
536677.963
20
710554.792
30
0.0
0
TEXT
8
DEBRIS
10
536679.963
20
710556.792
30
0.0
40
2.5
1
MAG_133
50
0.0
0
TEXT
8
DEBRIS
10
536679.963
20
710551.792
30
0.0
40
1.5
1
M:AA B:1 A:17nT D:-2.3m
50
0.0
0
POINT
8
DEBRIS
10
536678.013
20
710708.225
30
0.0
0
TEXT
8
DEBRIS
10
536680.013
20
710710.225
30
0.0
40
2.5
1
MAG_134
50
0.0
0
TEXT
8
DEBRIS
10
536680.013
20
710705.225
30
0.0
40
1.5
1
M:C B:1 A:29nT D:-5.1m
50
0.0
0
POINT
8
DEBRIS
10
536676.213
20
710683.625
30
0.0
0
TEXT
8
DEBRIS
10
536678.213
20
710685.625
30
0.0
40
2.5
1
MAG_135
50
0.0
0
TEXT
8
DEBRIS
10
536678.213
20
710680.625
30
0.0
40
1.5
1
M:C B:1 A:58nT D:-4.1m
50
0.0
0
POINT
8
UNDEFINED_CONSTRUCTION
10
536694.613
20
710413.325
30
0.0
0
TEXT
8
UNDEFINED_CONSTRUCTION
10
536696.613
20
710415.325
30
0.0
40
2.5
1
MAG_136
50
0.0
0
TEXT
8
UNDEFINED_CONSTRUCTION
10
536696.613
20
710410.325
30
0.0
40
1.5
1
M:G B:1 A:42167nT D:-0.8m
50
0.0
0
POINT
8
DEBRIS
10
536700.613
20
710605.725
30
0.0
0
TEXT
8
DEBRIS
10
536702.613
20
710607.725
30
0.0
40
2.5
1
MAG_137
50
0.0
0
TEXT
8
DEBRIS
10
536702.613
20
710602.725
30
0.0
40
1.5
1
M:C B:3 A:36nT D:-2.7m
50
0.0
0
POINT
8
UNDEFINED_CONSTRUCTION
10
536703.413
20
710431.725
30
0.0
0
TEXT
8
UNDEFINED_CONSTRUCTION
10
536705.413
20
710433.725
30
0.0
40
2.5
1
MAG_138
50
0.0
0
TEXT
8
UNDEFINED_CONSTRUCTION
10
536705.413
20
710428.725
30
0.0
40
1.5
1
M:D B:1 A:3497nT D:-1.6m
50
0.0
0
POINT
8
UNDEFINED_CONSTRUCTION
10
536702.613
20
710480.425
30
0.0
0
TEXT
8
UNDEFINED_CONSTRUCTION
10
536704.613
20
710482.425
30
0.0
40
2.5
1
MAG_139
50
0.0
0
TEXT
8
UNDEFINED_CONSTRUCTION
10
536704.613
20
710477.425
30
0.0
40
1.5
1
M:I B:4 A:5243nT D:-2.2m
50
0.0
0
POINT
8
UNDEFINED_CONSTRUCTION
10
536707.042
20
710497.955
30
0.0
0
TEXT
8
UNDEFINED_CONSTRUCTION
10
536709.042
20
710499.955
30
0.0
40
2.5
1
MAG_140
50
0.0
0
TEXT
8
UNDEFINED_CONSTRUCTION
10
536709.042
20
710494.955
30
0.0
40
1.5
1
M:E B:1 A:4240nT D:-2.3m
50
0.0
0
POINT
8
DEBRIS
10
536718.213
20
710709.125
30
0.0
0
TEXT
8
DEBRIS
10
536720.213
20
710711.125
30
0.0
40
2.5
1
MAG_141
50
0.0
0
TEXT
8
DEBRIS
10
536720.213
20
710706.125
30
0.0
40
1.5
1
M:G B:5 A:13nT D:-14.9m
50
0.0
0
POINT
8
UNDEFINED_CONSTRUCTION
10
536719.713
20
710407.025
30
0.0
0
TEXT
8
UNDEFINED_CONSTRUCTION
10
536721.713
20
710409.025
30
0.0
40
2.5
1
MAG_142
50
0.0
0
TEXT
8
UNDEFINED_CONSTRUCTION
10
536721.713
20
710404.025
30
0.0
40
1.5
1
M:I B:4 A:42167nT D:-0.7m
50
0.0
0
POINT
8
DEBRIS
10
536717.313
20
710643.425
30
0.0
0
TEXT
8
DEBRIS
10
536719.313
20
710645.425
30
0.0
40
2.5
1
MAG_143
50
0.0
0
TEXT
8
DEBRIS
10
536719.313
20
710640.425
30
0.0
40
1.5
1
M:A B:1 A:48nT D:-4.1m
50
0.0
0
POINT
8
DEBRIS
10
536721.713
20
710724.125
30
0.0
0
TEXT
8
DEBRIS
10
536723.713
20
710726.125
30
0.0
40
2.5
1
MAG_144
50
0.0
0
TEXT
8
DEBRIS
10
536723.713
20
710721.125
30
0.0
40
1.5
1
M:F B:1 A:11nT D:-14.3m
50
0.0
0
POINT
8
UNDEFINED_CONSTRUCTION
10
536727.313
20
710385.325
30
0.0
0
TEXT
8
UNDEFINED_CONSTRUCTION
10
536729.313
20
710387.325
30
0.0
40
2.5
1
MAG_145
50
0.0
0
TEXT
8
UNDEFINED_CONSTRUCTION
10
536729.313
20
710382.325
30
0.0
40
1.5
1
M:G B:6 A:768nT D:-0.3m
50
0.0
0
POINT
8
DEBRIS
10
536738.013
20
710555.825
30
0.0
0
TEXT
8
DEBRIS
10
536740.013
20
710557.825
30
0.0
40
2.5
1
MAG_146
50
0.0
0
TEXT
8
DEBRIS
10
536740.013
20
710552.825
30
0.0
40
1.5
1
M:A B:3 A:104nT D:-2.4m
50
0.0
0
POINT
8
DEBRIS
10
536738.413
20
710581.125
30
0.0
0
TEXT
8
DEBRIS
10
536740.413
20
710583.125
30
0.0
40
2.5
1
MAG_147
50
0.0
0
TEXT
8
DEBRIS
10
536740.413
20
710578.125
30
0.0
40
1.5
1
M:E B:3 A:162nT D:-2.5m
50
0.0
0
POINT
8
DEBRIS
10
536740.413
20
710600.225
30
0.0
0
TEXT
8
DEBRIS
10
536742.413
20
710602.225
30
0.0
40
2.5
1
MAG_148
50
0.0
0
TEXT
8
DEBRIS
10
536742.413
20
710597.225
30
0.0
40
1.5
1
M:A B:1 A:34nT D:-3.0m
50
0.0
0
POINT
8
DEBRIS
10
536755.913
20
710582.625
30
0.0
0
TEXT
8
DEBRIS
10
536757.913
20
710584.625
30
0.0
40
2.5
1
MAG_149
50
0.0
0
TEXT
8
DEBRIS
10
536757.913
20
710579.625
30
0.0
40
1.5
1
M:A B:2 A:28nT D:-2.4m
50
0.0
0
POINT
8
DEBRIS
10
536761.213
20
710561.925
30
0.0
0
TEXT
8
DEBRIS
10
536763.213
20
710563.925
30
0.0
40
2.5
1
MAG_150
50
0.0
0
TEXT
8
DEBRIS
10
536763.213
20
710558.925
30
0.0
40
1.5
1
M:AA B:3 A:42nT D:-2.5m
50
0.0
0
POINT
8
UNDEFINED_CONSTRUCTION
10
536763.413
20
710457.025
30
0.0
0
TEXT
8
UNDEFINED_CONSTRUCTION
10
536765.413
20
710459.025
30
0.0
40
2.5
1
MAG_151
50
0.0
0
TEXT
8
UNDEFINED_CONSTRUCTION
10
536765.413
20
710454.025
30
0.0
40
1.5
1
M:I B:5 A:6540nT D:-1.9m
50
0.0
0
POINT
8
UNDEFINED_CONSTRUCTION
10
536766.913
20
710478.925
30
0.0
0
TEXT
8
UNDEFINED_CONSTRUCTION
10
536768.913
20
710480.925
30
0.0
40
2.5
1
MAG_152
50
0.0
0
TEXT
8
UNDEFINED_CONSTRUCTION
10
536768.913
20
710475.925
30
0.0
40
1.5
1
M:G B:1 A:6540nT D:-2.1m
50
0.0
0
POINT
8
DEBRIS
10
536776.612
20
710517.397
30
0.0
0
TEXT
8
DEBRIS
10
536778.612
20
710519.397
30
0.0
40
2.5
1
MAG_153
50
0.0
0
TEXT
8
DEBRIS
10
536778.612
20
710514.397
30
0.0
40
1.5
1
M:AA B:1 A:19nT D:-2.2m
50
0.0
0
POINT
8
DEBRIS
10
536777.313
20
710557.525
30
0.0
0
TEXT
8
DEBRIS
10
536779.313
20
710559.525
30
0.0
40
2.5
1
MAG_154
50
0.0
0
TEXT
8
DEBRIS
10
536779.313
20
710554.525
30
0.0
40
1.5
1
M:C B:4 A:33nT D:-2.2m
50
0.0
0
POINT
8
DEBRIS
10
536786.513
20
710416.725
30
0.0
0
TEXT
8
DEBRIS
10
536788.513
20
710418.725
30
0.0
40
2.5
1
MAG_155
50
0.0
0
TEXT
8
DEBRIS
10
536788.513
20
710413.725
30
0.0
40
1.5
1
M:AAA B:1 A:16nT D:-1.7m
50
0.0
0
POINT
8
DEBRIS
10
536789.513
20
710391.025
30
0.0
0
TEXT
8
DEBRIS
10
536791.513
20
710393.025
30
0.0
40
2.5
1
MAG_156
50
0.0
0
TEXT
8
DEBRIS
10
536791.513
20
710388.025
30
0.0
40
1.5
1
M:C B:2 A:272nT D:-1.5m
50
0.0
0
POINT
8
DEBRIS
10
536794.529
20
710530.777
30
0.0
0
TEXT
8
DEBRIS
10
536796.529
20
710532.777
30
0.0
40
2.5
1
MAG_157
50
0.0
0
TEXT
8
DEBRIS
10
536796.529
20
710527.777
30
0.0
40
1.5
1
M:B B:4 A:19nT D:-2.2m
50
0.0
0
POINT
8
DEBRIS
10
536807.013
20
710452.825
30
0.0
0
TEXT
8
DEBRIS
10
536809.013
20
710454.825
30
0.0
40
2.5
1
MAG_158
50
0.0
0
TEXT
8
DEBRIS
10
536809.013
20
710449.825
30
0.0
40
1.5
1
M:B B:1 A:102nT D:-2.0m
50
0.0
0
POINT
8
DEBRIS
10
536804.113
20
710388.225
30
0.0
0
TEXT
8
DEBRIS
10
536806.113
20
710390.225
30
0.0
40
2.5
1
MAG_159
50
0.0
0
TEXT
8
DEBRIS
10
536806.113
20
710385.225
30
0.0
40
1.5
1
M:F B:6 A:197nT D:-1.4m
50
0.0
0
POINT
8
DEBRIS
10
536806.613
20
710371.925
30
0.0
0
TEXT
8
DEBRIS
10
536808.613
20
710373.925
30
0.0
40
2.5
1
MAG_160
50
0.0
0
TEXT
8
DEBRIS
10
536808.613
20
710368.925
30
0.0
40
1.5
1
M:I B:5 A:7932nT D:-1.1m
50
0.0
0
POINT
8
DEBRIS
10
536807.413
20
710518.325
30
0.0
0
TEXT
8
DEBRIS
10
536809.413
20
710520.325
30
0.0
40
2.5
1
MAG_161
50
0.0
0
TEXT
8
DEBRIS
10
536809.413
20
710515.325
30
0.0
40
1.5
1
M:AA B:2 A:57nT D:-2.2m
50
0.0
0
POINT
8
DEBRIS
10
536817.713
20
710412.725
30
0.0
0
TEXT
8
DEBRIS
10
536819.713
20
710414.725
30
0.0
40
2.5
1
MAG_162
50
0.0
0
TEXT
8
DEBRIS
10
536819.713
20
710409.725
30
0.0
40
1.5
1
M:C B:4 A:67nT D:-1.7m
50
0.0
0
POINT
8
DEBRIS
10
536828.213
20
710387.525
30
0.0
0
TEXT
8
DEBRIS
10
536830.213
20
710389.525
30
0.0
40
2.5
1
MAG_163
50
0.0
0
TEXT
8
DEBRIS
10
536830.213
20
710384.525
30
0.0
40
1.5
1
M:C B:3 A:184nT D:-1.4m
50
0.0
0
POINT
8
DEBRIS
10
536829.013
20
710408.625
30
0.0
0
TEXT
8
DEBRIS
10
536831.013
20
710410.625
30
0.0
40
2.5
1
MAG_164
50
0.0
0
TEXT
8
DEBRIS
10
536831.013
20
710405.625
30
0.0
40
1.5
1
M:C B:3 A:91nT D:-1.6m
50
0.0
0
POINT
8
DEBRIS
10
536867.063
20
710416.274
30
0.0
0
TEXT
8
DEBRIS
10
536869.063
20
710418.274
30
0.0
40
2.5
1
MAG_165
50
0.0
0
TEXT
8
DEBRIS
10
536869.063
20
710413.274
30
0.0
40
1.5
1
M:AA B:1 A:33nT D:-1.6m
50
0.0
0
POINT
8
DEBRIS
10
536868.713
20
710490.025
30
0.0
0
TEXT
8
DEBRIS
10
536870.713
20
710492.025
30
0.0
40
2.5
1
MAG_166
50
0.0
0
TEXT
8
DEBRIS
10
536870.713
20
710487.025
30
0.0
40
1.5
1
M:B B:2 A:67nT D:-2.1m
50
0.0
0
POINT
8
DEBRIS
10
536876.913
20
710451.025
30
0.0
0
TEXT
8
DEBRIS
10
536878.913
20
710453.025
30
0.0
40
2.5
1
MAG_167
50
0.0
0
TEXT
8
DEBRIS
10
536878.913
20
710448.025
30
0.0
40
1.5
1
M:C B:3 A:120nT D:-1.9m
50
0.0
0
POINT
8
DEBRIS
10
536888.113
20
710404.025
30
0.0
0
TEXT
8
DEBRIS
10
536890.113
20
710406.025
30
0.0
40
2.5
1
MAG_168
50
0.0
0
TEXT
8
DEBRIS
10
536890.113
20
710401.025
30
0.0
40
1.5
1
M:B B:2 A:70nT D:-1.7m
50
0.0
0
POINT
8
DEBRIS
10
536900.213
20
710374.725
30
0.0
0
TEXT
8
DEBRIS
10
536902.213
20
710376.725
30
0.0
40
2.5
1
MAG_169
50
0.0
0
TEXT
8
DEBRIS
10
536902.213
20
710371.725
30
0.0
40
1.5
1
M:A B:1 A:191nT D:-1.3m
50
0.0
0
POINT
8
DEBRIS
10
536903.413
20
710486.625
30
0.0
0
TEXT
8
DEBRIS
10
536905.413
20
710488.625
30
0.0
40
2.5
1
MAG_170
50
0.0
0
TEXT
8
DEBRIS
10
536905.413
20
710483.625
30
0.0
40
1.5
1
M:A B:1 A:22nT D:-5.7m
50
0.0
0
POINT
8
DEBRIS
10
536909.913
20
710400.825
30
0.0
0
TEXT
8
DEBRIS
10
536911.913
20
710402.825
30
0.0
40
2.5
1
MAG_171
50
0.0
0
TEXT
8
DEBRIS
10
536911.913
20
710397.825
30
0.0
40
1.5
1
M:E B:3 A:214nT D:-1.9m
50
0.0
0
POINT
8
DEBRIS
10
536912.913
20
710427.225
30
0.0
0
TEXT
8
DEBRIS
10
536914.913
20
710429.225
30
0.0
40
2.5
1
MAG_172
50
0.0
0
TEXT
8
DEBRIS
10
536914.913
20
710424.225
30
0.0
40
1.5
1
M:B B:1 A:76nT D:-1.9m
50
0.0
0
POINT
8
DEBRIS
10
536916.913
20
710369.825
30
0.0
0
TEXT
8
DEBRIS
10
536918.913
20
710371.825
30
0.0
40
2.5
1
MAG_173
50
0.0
0
TEXT
8
DEBRIS
10
536918.913
20
710366.825
30
0.0
40
1.5
1
M:B B:1 A:237nT D:-1.2m
50
0.0
0
POINT
8
DEBRIS
10
536946.913
20
710381.625
30
0.0
0
TEXT
8
DEBRIS
10
536948.913
20
710383.625
30
0.0
40
2.5
1
MAG_174
50
0.0
0
TEXT
8
DEBRIS
10
536948.913
20
710378.625
30
0.0
40
1.5
1
M:G B:4 A:677nT D:-1.6m
50
0.0
0
POINT
8
DEBRIS
10
536964.413
20
710377.925
30
0.0
0
TEXT
8
DEBRIS
10
536966.413
20
710379.925
30
0.0
40
2.5
1
MAG_175
50
0.0
0
TEXT
8
DEBRIS
10
536966.413
20
710374.925
30
0.0
40
1.5
1
M:D B:4 A:150nT D:-1.2m
50
0.0
0
POINT
8
DEBRIS
10
536982.279
20
710423.652
30
0.0
0
TEXT
8
DEBRIS
10
536984.279
20
710425.652
30
0.0
40
2.5
1
MAG_176
50
0.0
0
TEXT
8
DEBRIS
10
536984.279
20
710420.652
30
0.0
40
1.5
1
M:B B:2 A:34nT D:-1.9m
50
0.0
0
POINT
8
DEBRIS
10
536998.913
20
710395.225
30
0.0
0
TEXT
8
DEBRIS
10
537000.913
20
710397.225
30
0.0
40
2.5
1
MAG_177
50
0.0
0
TEXT
8
DEBRIS
10
537000.913
20
710392.225
30
0.0
40
1.5
1
M:AAA B:1 A:67nT D:-0.7m
50
0.0
0
POINT
8
DEBRIS
10
537047.894
20
710384.063
30
0.0
0
TEXT
8
DEBRIS
10
537049.894
20
710386.063
30
0.0
40
2.5
1
MAG_178
50
0.0
0
TEXT
8
DEBRIS
10
537049.894
20
710381.063
30
0.0
40
1.5
1
M:F B:6 A:136nT D:-1.5m
50
0.0
0
POINT
8
DEBRIS
10
537052.375
20
710391.936
30
0.0
0
TEXT
8
DEBRIS
10
537054.375
20
710393.936
30
0.0
40
2.5
1
MAG_179
50
0.0
0
TEXT
8
DEBRIS
10
537054.375
20
710388.936
30
0.0
40
1.5
1
M:A B:1 A:74nT D:-1.8m
50
0.0
0
POINT
8
JETTY_QUAY
10
537069.413
20
710366.025
30
0.0
0
TEXT
8
JETTY_QUAY
10
537071.413
20
710368.025
30
0.0
40
2.5
1
MAG_180
50
0.0
0
TEXT
8
JETTY_QUAY
10
537071.413
20
710363.025
30
0.0
40
1.5
1
M:I B:1 A:1007nT D:-8.3m
50
0.0
0
POINT
8
DEBRIS
10
537073.613
20
710384.925
30
0.0
0
TEXT
8
DEBRIS
10
537075.613
20
710386.925
30
0.0
40
2.5
1
MAG_181
50
0.0
0
TEXT
8
DEBRIS
10
537075.613
20
710381.925
30
0.0
40
1.5
1
M:A B:1 A:47nT D:-2.1m
50
0.0
0
POINT
8
JETTY_QUAY
10
537094.313
20
710361.825
30
0.0
0
TEXT
8
JETTY_QUAY
10
537096.313
20
710363.825
30
0.0
40
2.5
1
MAG_182
50
0.0
0
TEXT
8
JETTY_QUAY
10
537096.313
20
710358.825
30
0.0
40
1.5
1
M:I B:3 A:3885nT D:-3.6m
50
0.0
0
POINT
8
JETTY_QUAY
10
537112.113
20
710356.925
30
0.0
0
TEXT
8
JETTY_QUAY
10
537114.113
20
710358.925
30
0.0
40
2.5
1
MAG_183
50
0.0
0
TEXT
8
JETTY_QUAY
10
537114.113
20
710353.925
30
0.0
40
1.5
1
M:I B:1 A:8122nT D:-3.4m
50
0.0
0
POINT
8
STEEL_PILLARS
10
537114.513
20
710377.025
30
0.0
0
TEXT
8
STEEL_PILLARS
10
537116.513
20
710379.025
30
0.0
40
2.5
1
MAG_184
50
0.0
0
TEXT
8
STEEL_PILLARS
10
537116.513
20
710374.025
30
0.0
40
1.5
1
M:H B:1 A:6297nT D:-2.9m
50
0.0
0
POINT
8
STEEL_PILLARS
10
537122.813
20
710341.425
30
0.0
0
TEXT
8
STEEL_PILLARS
10
537124.813
20
710343.425
30
0.0
40
2.5
1
MAG_185
50
0.0
0
TEXT
8
STEEL_PILLARS
10
537124.813
20
710338.425
30
0.0
40
1.5
1
M:G B:2 A:2212nT D:-2.3m
50
0.0
0
POINT
8
DEBRIS
10
537136.313
20
710366.125
30
0.0
0
TEXT
8
DEBRIS
10
537138.313
20
710368.125
30
0.0
40
2.5
1
MAG_186
50
0.0
0
TEXT
8
DEBRIS
10
537138.313
20
710363.125
30
0.0
40
1.5
1
M:D B:1 A:487nT D:-1.8m
50
0.0
0
POINT
8
STEEL_PILLARS
10
537137.713
20
710343.025
30
0.0
0
TEXT
8
STEEL_PILLARS
10
537139.713
20
710345.025
30
0.0
40
2.5
1
MAG_187
50
0.0
0
TEXT
8
STEEL_PILLARS
10
537139.713
20
710340.025
30
0.0
40
1.5
1
M:E B:1 A:310nT D:-1.5m
50
0.0
0
POINT
8
DEBRIS
10
537139.913
20
710482.125
30
0.0
0
TEXT
8
DEBRIS
10
537141.913
20
710484.125
30
0.0
40
2.5
1
MAG_188
50
0.0
0
TEXT
8
DEBRIS
10
537141.913
20
710479.125
30
0.0
40
1.5
1
M:F B:1 A:17nT D:-15.0m
50
0.0
0
POINT
8
STEEL_PILLARS
10
537148.313
20
710379.225
30
0.0
0
TEXT
8
STEEL_PILLARS
10
537150.313
20
710381.225
30
0.0
40
2.5
1
MAG_189
50
0.0
0
TEXT
8
STEEL_PILLARS
10
537150.313
20
710376.225
30
0.0
40
1.5
1
M:E B:2 A:207nT D:-2.2m
50
0.0
0
POINT
8
STEEL_PILLARS
10
537149.913
20
710369.425
30
0.0
0
TEXT
8
STEEL_PILLARS
10
537151.913
20
710371.425
30
0.0
40
2.5
1
MAG_190
50
0.0
0
TEXT
8
STEEL_PILLARS
10
537151.913
20
710366.425
30
0.0
40
1.5
1
M:F B:5 A:286nT D:-1.7m
50
0.0
0
POINT
8
DEBRIS
10
537162.696
20
710330.798
30
0.0
0
TEXT
8
DEBRIS
10
537164.696
20
710332.798
30
0.0
40
2.5
1
MAG_191
50
0.0
0
TEXT
8
DEBRIS
10
537164.696
20
710327.798
30
0.0
40
1.5
1
M:B B:1 A:302nT D:-1.1m
50
0.0
0
POINT
8
DEBRIS
10
537173.613
20
710350.525
30
0.0
0
TEXT
8
DEBRIS
10
537175.613
20
710352.525
30
0.0
40
2.5
1
MAG_192
50
0.0
0
TEXT
8
DEBRIS
10
537175.613
20
710347.525
30
0.0
40
1.5
1
M:A B:1 A:107nT D:-1.5m
50
0.0
0
POINT
8
DEBRIS
10
537184.713
20
710338.125
30
0.0
0
TEXT
8
DEBRIS
10
537186.713
20
710340.125
30
0.0
40
2.5
1
MAG_193
50
0.0
0
TEXT
8
DEBRIS
10
537186.713
20
710335.125
30
0.0
40
1.5
1
M:AA B:1 A:118nT D:-1.3m
50
0.0
0
POINT
8
DEBRIS
10
537183.307
20
710328.989
30
0.0
0
TEXT
8
DEBRIS
10
537185.307
20
710330.989
30
0.0
40
2.5
1
MAG_194
50
0.0
0
TEXT
8
DEBRIS
10
537185.307
20
710325.989
30
0.0
40
1.5
1
M:AA B:1 A:118nT D:-1.2m
50
0.0
0
POINT
8
DEBRIS
10
537189.331
20
710375.458
30
0.0
0
TEXT
8
DEBRIS
10
537191.331
20
710377.458
30
0.0
40
2.5
1
MAG_195
50
0.0
0
TEXT
8
DEBRIS
10
537191.331
20
710372.458
30
0.0
40
1.5
1
M:B B:1 A:34nT D:-2.7m
50
0.0
0
POINT
8
DEBRIS
10
537229.313
20
710326.125
30
0.0
0
TEXT
8
DEBRIS
10
537231.313
20
710328.125
30
0.0
40
2.5
1
MAG_196
50
0.0
0
TEXT
8
DEBRIS
10
537231.313
20
710323.125
30
0.0
40
1.5
1
M:B B:3 A:212nT D:-1.8m
50
0.0
0
POINT
8
JETTY_QUAY
10
537250.932
20
710327.676
30
0.0
0
TEXT
8
JETTY_QUAY
10
537252.932
20
710329.676
30
0.0
40
2.5
1
MAG_197
50
0.0
0
TEXT
8
JETTY_QUAY
10
537252.932
20
710324.676
30
0.0
40
1.5
1
M:E B:1 A:1116nT D:-2.2m
50
0.0
0
POINT
8
DEBRIS
10
537276.413
20
710340.925
30
0.0
0
TEXT
8
DEBRIS
10
537278.413
20
710342.925
30
0.0
40
2.5
1
MAG_198
50
0.0
0
TEXT
8
DEBRIS
10
537278.413
20
710337.925
30
0.0
40
1.5
1
M:C B:4 A:44nT D:-2.0m
50
0.0
0
POINT
8
DEBRIS
10
537308.313
20
710406.525
30
0.0
0
TEXT
8
DEBRIS
10
537310.313
20
710408.525
30
0.0
40
2.5
1
MAG_199
50
0.0
0
TEXT
8
DEBRIS
10
537310.313
20
710403.525
30
0.0
40
1.5
1
M:G B:6 A:13nT D:-14.6m
50
0.0
0
POINT
8
DEBRIS
10
537312.713
20
710442.425
30
0.0
0
TEXT
8
DEBRIS
10
537314.713
20
710444.425
30
0.0
40
2.5
1
MAG_200
50
0.0
0
TEXT
8
DEBRIS
10
537314.713
20
710439.425
30
0.0
40
1.5
1
M:H B:1 A:112nT D:-15.1m
50
0.0
0
POINT
8
DEBRIS
10
537313.013
20
710337.925
30
0.0
0
TEXT
8
DEBRIS
10
537315.013
20
710339.925
30
0.0
40
2.5
1
MAG_201
50
0.0
0
TEXT
8
DEBRIS
10
537315.013
20
710334.925
30
0.0
40
1.5
1
M:D B:1 A:225nT D:-3.1m
50
0.0
0
POINT
8
DEBRIS
10
537312.113
20
710432.325
30
0.0
0
TEXT
8
DEBRIS
10
537314.113
20
710434.325
30
0.0
40
2.5
1
MAG_202
50
0.0
0
TEXT
8
DEBRIS
10
537314.113
20
710429.325
30
0.0
40
1.5
1
M:H B:1 A:152nT D:-14.6m
50
0.0
0
POINT
8
DEBRIS
10
537319.913
20
710468.025
30
0.0
0
TEXT
8
DEBRIS
10
537321.913
20
710470.025
30
0.0
40
2.5
1
MAG_203
50
0.0
0
TEXT
8
DEBRIS
10
537321.913
20
710465.025
30
0.0
40
1.5
1
M:H B:1 A:40nT D:-15.7m
50
0.0
0
POINT
8
DEBRIS
10
537326.313
20
710439.225
30
0.0
0
TEXT
8
DEBRIS
10
537328.313
20
710441.225
30
0.0
40
2.5
1
MAG_204
50
0.0
0
TEXT
8
DEBRIS
10
537328.313
20
710436.225
30
0.0
40
1.5
1
M:H B:1 A:112nT D:-15.1m
50
0.0
0
POINT
8
DEBRIS
10
537338.413
20
710342.925
30
0.0
0
TEXT
8
DEBRIS
10
537340.413
20
710344.925
30
0.0
40
2.5
1
MAG_205
50
0.0
0
TEXT
8
DEBRIS
10
537340.413
20
710339.925
30
0.0
40
1.5
1
M:F B:5 A:14nT D:-8.1m
50
0.0
0
POINT
8
DEBRIS
10
537340.113
20
710450.325
30
0.0
0
TEXT
8
DEBRIS
10
537342.113
20
710452.325
30
0.0
40
2.5
1
MAG_206
50
0.0
0
TEXT
8
DEBRIS
10
537342.113
20
710447.325
30
0.0
40
1.5
1
M:H B:1 A:293nT D:-15.6m
50
0.0
0
POINT
8
DEBRIS
10
537340.693
20
710326.864
30
0.0
0
TEXT
8
DEBRIS
10
537342.693
20
710328.864
30
0.0
40
2.5
1
MAG_207
50
0.0
0
TEXT
8
DEBRIS
10
537342.693
20
710323.864
30
0.0
40
1.5
1
M:A B:1 A:106nT D:-2.3m
50
0.0
0
POINT
8
DEBRIS
10
537372.413
20
710421.525
30
0.0
0
TEXT
8
DEBRIS
10
537374.413
20
710423.525
30
0.0
40
2.5
1
MAG_208
50
0.0
0
TEXT
8
DEBRIS
10
537374.413
20
710418.525
30
0.0
40
1.5
1
M:I B:2 A:932nT D:-15.2m
50
0.0
0
POINT
8
JETTY_QUAY
10
537379.013
20
710322.325
30
0.0
0
TEXT
8
JETTY_QUAY
10
537381.013
20
710324.325
30
0.0
40
2.5
1
MAG_209
50
0.0
0
TEXT
8
JETTY_QUAY
10
537381.013
20
710319.325
30
0.0
40
1.5
1
M:H B:1 A:1459nT D:-4.7m
50
0.0
0
POINT
8
DEBRIS
10
537387.222
20
710439.453
30
0.0
0
TEXT
8
DEBRIS
10
537389.222
20
710441.453
30
0.0
40
2.5
1
MAG_210
50
0.0
0
TEXT
8
DEBRIS
10
537389.222
20
710436.453
30
0.0
40
1.5
1
M:I B:1 A:932nT D:-15.6m
50
0.0
0
POINT
8
DEBRIS
10
537399.413
20
710421.025
30
0.0
0
TEXT
8
DEBRIS
10
537401.413
20
710423.025
30
0.0
40
2.5
1
MAG_211
50
0.0
0
TEXT
8
DEBRIS
10
537401.413
20
710418.025
30
0.0
40
1.5
1
M:I B:1 A:932nT D:-15.0m
50
0.0
0
POINT
8
DEBRIS
10
537421.913
20
710405.925
30
0.0
0
TEXT
8
DEBRIS
10
537423.913
20
710407.925
30
0.0
40
2.5
1
MAG_212
50
0.0
0
TEXT
8
DEBRIS
10
537423.913
20
710402.925
30
0.0
40
1.5
1
M:I B:1 A:175nT D:-15.2m
50
0.0
0
POINT
8
DEBRIS
10
537437.713
20
710413.125
30
0.0
0
TEXT
8
DEBRIS
10
537439.713
20
710415.125
30
0.0
40
2.5
1
MAG_213
50
0.0
0
TEXT
8
DEBRIS
10
537439.713
20
710410.125
30
0.0
40
1.5
1
M:H B:1 A:142nT D:-15.5m
50
0.0
0
POINT
8
DEBRIS
10
537441.713
20
710431.725
30
0.0
0
TEXT
8
DEBRIS
10
537443.713
20
710433.725
30
0.0
40
2.5
1
MAG_214
50
0.0
0
TEXT
8
DEBRIS
10
537443.713
20
710428.725
30
0.0
40
1.5
1
M:G B:1 A:45nT D:-15.6m
50
0.0
0
POINT
8
JETTY_QUAY
10
537480.113
20
710403.825
30
0.0
0
TEXT
8
JETTY_QUAY
10
537482.113
20
710405.825
30
0.0
40
2.5
1
MAG_215
50
0.0
0
TEXT
8
JETTY_QUAY
10
537482.113
20
710400.825
30
0.0
40
1.5
1
M:I B:1 A:753nT D:-15.3m
50
0.0
0
POINT
8
JETTY_QUAY
10
537476.013
20
710386.425
30
0.0
0
TEXT
8
JETTY_QUAY
10
537478.013
20
710388.425
30
0.0
40
2.5
1
MAG_216
50
0.0
0
TEXT
8
JETTY_QUAY
10
537478.013
20
710383.425
30
0.0
40
1.5
1
M:I B:5 A:783nT D:-14.6m
50
0.0
0
POINT
8
JETTY_QUAY
10
537489.413
20
710395.725
30
0.0
0
TEXT
8
JETTY_QUAY
10
537491.413
20
710397.725
30
0.0
40
2.5
1
MAG_217
50
0.0
0
TEXT
8
JETTY_QUAY
10
537491.413
20
710392.725
30
0.0
40
1.5
1
M:I B:1 A:1618nT D:-15.2m
50
0.0
0
POINT
8
JETTY_QUAY
10
537517.613
20
710388.225
30
0.0
0
TEXT
8
JETTY_QUAY
10
537519.613
20
710390.225
30
0.0
40
2.5
1
MAG_218
50
0.0
0
TEXT
8
JETTY_QUAY
10
537519.613
20
710385.225
30
0.0
40
1.5
1
M:I B:1 A:1618nT D:-15.2m
50
0.0
0
POINT
8
JETTY_QUAY
10
537541.913
20
710404.825
30
0.0
0
TEXT
8
JETTY_QUAY
10
537543.913
20
710406.825
30
0.0
40
2.5
1
MAG_219
50
0.0
0
TEXT
8
JETTY_QUAY
10
537543.913
20
710401.825
30
0.0
40
1.5
1
M:I B:1 A:147nT D:-15.7m
50
0.0
0
POINT
8
DEBRIS
10
537566.113
20
710431.925
30
0.0
0
TEXT
8
DEBRIS
10
537568.113
20
710433.925
30
0.0
40
2.5
1
MAG_220
50
0.0
0
TEXT
8
DEBRIS
10
537568.113
20
710428.925
30
0.0
40
1.5
1
M:E B:1 A:51nT D:-15.9m
50
0.0
0
POINT
8
JETTY_QUAY
10
537577.813
20
710388.225
30
0.0
0
TEXT
8
JETTY_QUAY
10
537579.813
20
710390.225
30
0.0
40
2.5
1
MAG_221
50
0.0
0
TEXT
8
JETTY_QUAY
10
537579.813
20
710385.225
30
0.0
40
1.5
1
M:I B:1 A:610nT D:-15.5m
50
0.0
0
POINT
8
JETTY_QUAY
10
537617.413
20
710423.325
30
0.0
0
TEXT
8
JETTY_QUAY
10
537619.413
20
710425.325
30
0.0
40
2.5
1
MAG_222
50
0.0
0
TEXT
8
JETTY_QUAY
10
537619.413
20
710420.325
30
0.0
40
1.5
1
M:I B:1 A:184nT D:-15.8m
50
0.0
0
POINT
8
JETTY_QUAY
10
537632.213
20
710379.025
30
0.0
0
TEXT
8
JETTY_QUAY
10
537634.213
20
710381.025
30
0.0
40
2.5
1
MAG_223
50
0.0
0
TEXT
8
JETTY_QUAY
10
537634.213
20
710376.025
30
0.0
40
1.5
1
M:I B:6 A:142nT D:-14.4m
50
0.0
0
POINT
8
JETTY_QUAY
10
537648.113
20
710392.925
30
0.0
0
TEXT
8
JETTY_QUAY
10
537650.113
20
710394.925
30
0.0
40
2.5
1
MAG_224
50
0.0
0
TEXT
8
JETTY_QUAY
10
537650.113
20
710389.925
30
0.0
40
1.5
1
M:I B:1 A:142nT D:-16.0m
50
0.0
0
POINT
8
JETTY_QUAY
10
537678.513
20
710372.025
30
0.0
0
TEXT
8
JETTY_QUAY
10
537680.513
20
710374.025
30
0.0
40
2.5
1
MAG_225
50
0.0
0
TEXT
8
JETTY_QUAY
10
537680.513
20
710369.025
30
0.0
40
1.5
1
M:H B:4 A:69nT D:-14.7m
50
0.0
0
POINT
8
SSS_TARGETS
10
537317.68
20
710433.64
30
0.0
0
TEXT
8
SSS_TARGETS
10
537320.68
20
710436.64
30
0.0
40
3.0
1
SSS_003
50
0.0
0
TEXT
8
SSS_TARGETS
10
537320.68
20
710429.64
30
0.0
40
2.0
1
Debris 3.84x3.35x2.68m
50
0.0
0
POINT
8
SSS_TARGETS
10
536666.16
20
710692.54
30
0.0
0
TEXT
8
SSS_TARGETS
10
536669.16
20
710695.54
30
0.0
40
3.0
1
SSS_004
50
0.0
0
TEXT
8
SSS_TARGETS
10
536669.16
20
710688.54
30
0.0
40
2.0
1
Linear Debris L:30m W:0.8m
50
0.0
0
POINT
8
SSS_TARGETS
10
536678.76
20
710681.83
30
0.0
0
TEXT
8
SSS_TARGETS
10
536681.76
20
710684.83
30
0.0
40
3.0
1
SSS_006
50
0.0
0
TEXT
8
SSS_TARGETS
10
536681.76
20
710677.83
30
0.0
40
2.0
1
Linear Debris L:36m W:0.6m
50
0.0
0
POINT
8
SSS_TARGETS
10
536640.93
20
710673.65
30
0.0
0
TEXT
8
SSS_TARGETS
10
536643.93
20
710676.65
30
0.0
40
3.0
1
SSS_009
50
0.0
0
TEXT
8
SSS_TARGETS
10
536643.93
20
710669.65
30
0.0
40
2.0
1
Linear Features L:28.7m W:9m
50
0.0
0
POINT
8
OUTCROPPING
10
536400
20
710620
30
0.0
0
TEXT
8
OUTCROPPING
10
536403
20
710623
30
0.0
40
3.0
1
CONCRETE_SLAB
50
0.0
0
TEXT
8
OUTCROPPING
10
536403
20
710616
30
0.0
40
2.0
1
Reinforced concrete slab
50
0.0
0
POINT
8
OUTCROPPING
10
536450
20
710580
30
0.0
0
TEXT
8
OUTCROPPING
10
536453
20
710583
30
0.0
40
3.0
1
ABANDONED_JETTY
50
0.0
0
TEXT
8
OUTCROPPING
10
536453
20
710576
30
0.0
40
2.0
1
Abandoned jetty
50
0.0
0
POINT
8
OUTCROPPING
10
536700
20
710550
30
0.0
0
TEXT
8
OUTCROPPING
10
536703
20
710553
30
0.0
40
3.0
1
STEEL_PILLARS
50
0.0
0
TEXT
8
OUTCROPPING
10
536703
20
710546
30
0.0
40
2.0
1
Steel pillars zone
50
0.0
0
ENDSEC
0
EOF
